<ttFont>
    <TTGlyph name=".notdef" xMin="96" yMin="0" xMax="528" yMax="660">
      <contour>
        <pt x="96" y="660" on="1"/>
        <pt x="528" y="660" on="1"/>
        <pt x="528" y="0" on="1"/>
        <pt x="96" y="0" on="1"/>
      </contour>
      <contour>
        <pt x="288" y="340" on="1"/>
        <pt x="134" y="610" on="1"/>
        <pt x="134" y="74" on="1"/>
      </contour>
      <contour>
        <pt x="488" y="74" on="1"/>
        <pt x="488" y="610" on="1"/>
        <pt x="336" y="340" on="1"/>
      </contour>
      <contour>
        <pt x="476" y="32" on="1"/>
        <pt x="376" y="208" on="1"/>
        <pt x="314" y="314" on="1"/>
        <pt x="310" y="314" on="1"/>
        <pt x="246" y="208" on="1"/>
        <pt x="144" y="32" on="1"/>
      </contour>
      <contour>
        <pt x="314" y="366" on="1"/>
        <pt x="368" y="458" on="1"/>
        <pt x="462" y="626" on="1"/>
        <pt x="160" y="626" on="1"/>
        <pt x="254" y="458" on="1"/>
        <pt x="310" y="366" on="1"/>
      </contour>
    </TTGlyph>
    <TTGlyph name="A" xMin="10" yMin="0" xMax="510" yMax="660">
      <contour>
        <pt x="384" y="264" on="1"/>
        <pt x="338" y="396" on="1"/>
        <pt x="317" y="456" on="0"/>
        <pt x="280" y="564" on="0"/>
        <pt x="262" y="626" on="1"/>
        <pt x="258" y="626" on="1"/>
        <pt x="240" y="564" on="0"/>
        <pt x="203" y="456" on="0"/>
        <pt x="182" y="396" on="1"/>
        <pt x="135" y="264" on="1"/>
      </contour>
      <contour>
        <pt x="394" y="236" on="1"/>
        <pt x="125" y="236" on="1"/>
        <pt x="42" y="0" on="1"/>
        <pt x="10" y="0" on="1"/>
        <pt x="246" y="660" on="1"/>
        <pt x="274" y="660" on="1"/>
        <pt x="510" y="0" on="1"/>
        <pt x="476" y="0" on="1"/>
      </contour>
    </TTGlyph>
    <TTGlyph name="A.sc" xMin="10" yMin="0" xMax="434" yMax="510">
      <contour>
        <pt x="324" y="204" on="1"/>
        <pt x="286" y="304" on="1"/>
        <pt x="269" y="352" on="0"/>
        <pt x="240" y="430" on="0"/>
        <pt x="224" y="475" on="1"/>
        <pt x="220" y="475" on="1"/>
        <pt x="204" y="429" on="0"/>
        <pt x="175" y="351" on="0"/>
        <pt x="158" y="304" on="1"/>
        <pt x="120" y="204" on="1"/>
      </contour>
      <contour>
        <pt x="334" y="176" on="1"/>
        <pt x="109" y="176" on="1"/>
        <pt x="42" y="0" on="1"/>
        <pt x="10" y="0" on="1"/>
        <pt x="207" y="510" on="1"/>
        <pt x="236" y="510" on="1"/>
        <pt x="434" y="0" on="1"/>
        <pt x="400" y="0" on="1"/>
      </contour>
    </TTGlyph>
    <TTGlyph name="A.sups" xMin="3" yMin="270" xMax="341" yMax="702">
      <contour>
        <pt x="250" y="444" on="1"/>
        <pt x="222" y="525" on="1"/>
        <pt x="208" y="565" on="0"/>
        <pt x="185" y="636" on="0"/>
        <pt x="173" y="674" on="1"/>
        <pt x="171" y="674" on="1"/>
        <pt x="159" y="634" on="0"/>
        <pt x="136" y="564" on="0"/>
        <pt x="122" y="525" on="1"/>
        <pt x="93" y="444" on="1"/>
      </contour>
      <contour>
        <pt x="259" y="419" on="1"/>
        <pt x="85" y="419" on="1"/>
        <pt x="32" y="270" on="1"/>
        <pt x="3" y="270" on="1"/>
        <pt x="158" y="702" on="1"/>
        <pt x="187" y="702" on="1"/>
        <pt x="341" y="270" on="1"/>
        <pt x="310" y="270" on="1"/>
      </contour>
    </TTGlyph>
    <TTGlyph name="AE" xMin="26" yMin="0" xMax="758" yMax="660">
      <contour>
        <pt x="414" y="254" on="1"/>
        <pt x="414" y="630" on="1"/>
        <pt x="410" y="630" on="1"/>
        <pt x="378" y="573" on="0"/>
        <pt x="313" y="454" on="0"/>
        <pt x="280" y="392" on="1"/>
        <pt x="203" y="254" on="1"/>
      </contour>
      <contour>
        <pt x="758" y="28" on="1"/>
        <pt x="758" y="0" on="1"/>
        <pt x="414" y="0" on="1"/>
        <pt x="414" y="226" on="1"/>
        <pt x="187" y="226" on="1"/>
        <pt x="60" y="0" on="1"/>
        <pt x="26" y="0" on="1"/>
        <pt x="398" y="660" on="1"/>
        <pt x="748" y="660" on="1"/>
        <pt x="748" y="632" on="1"/>
        <pt x="446" y="632" on="1"/>
        <pt x="446" y="366" on="1"/>
        <pt x="696" y="366" on="1"/>
        <pt x="696" y="338" on="1"/>
        <pt x="446" y="338" on="1"/>
        <pt x="446" y="28" on="1"/>
      </contour>
    </TTGlyph>
    <TTGlyph name="AE.sc" xMin="26" yMin="0" xMax="642" yMax="510">
      <contour>
        <pt x="352" y="196" on="1"/>
        <pt x="352" y="482" on="1"/>
        <pt x="349" y="482" on="1"/>
        <pt x="323" y="439" on="0"/>
        <pt x="267" y="347" on="0"/>
        <pt x="240" y="300" on="1"/>
        <pt x="177" y="196" on="1"/>
      </contour>
      <contour>
        <pt x="642" y="28" on="1"/>
        <pt x="642" y="0" on="1"/>
        <pt x="352" y="0" on="1"/>
        <pt x="352" y="168" on="1"/>
        <pt x="160" y="168" on="1"/>
        <pt x="58" y="0" on="1"/>
        <pt x="26" y="0" on="1"/>
        <pt x="336" y="510" on="1"/>
        <pt x="632" y="510" on="1"/>
        <pt x="632" y="482" on="1"/>
        <pt x="384" y="482" on="1"/>
        <pt x="384" y="286" on="1"/>
        <pt x="590" y="286" on="1"/>
        <pt x="590" y="258" on="1"/>
        <pt x="384" y="258" on="1"/>
        <pt x="384" y="28" on="1"/>
      </contour>
    </TTGlyph>
    <TTGlyph name="Aacute" xMin="10" yMin="0" xMax="510" yMax="814">
      <component glyphName="A" x="0" y="0" flags="0x204"/>
      <component glyphName="uni0301.cap" x="260" y="0" flags="0x4"/>
    </TTGlyph>
    <TTGlyph name="Aacute.sc" xMin="10" yMin="0" xMax="434" yMax="695">
      <component glyphName="A.sc" x="0" y="0" flags="0x204"/>
      <component glyphName="uni0301.cap" x="222" y="-119" flags="0x4"/>
    </TTGlyph>
    <TTGlyph name="Abreve" xMin="10" yMin="0" xMax="510" yMax="814">
      <component glyphName="A" x="0" y="0" flags="0x204"/>
      <component glyphName="uni0306.cap" x="260" y="0" flags="0x4"/>
    </TTGlyph>
    <TTGlyph name="Abreve.sc" xMin="10" yMin="0" xMax="434" yMax="695">
      <component glyphName="A.sc" x="0" y="0" flags="0x204"/>
      <component glyphName="uni0306.cap" x="222" y="-119" flags="0x4"/>
    </TTGlyph>
    <TTGlyph name="Acircumflex" xMin="10" yMin="0" xMax="510" yMax="814">
      <component glyphName="A" x="0" y="0" flags="0x204"/>
      <component glyphName="uni0302.cap" x="260" y="0" flags="0x4"/>
    </TTGlyph>
    <TTGlyph name="Acircumflex.sc" xMin="10" yMin="0" xMax="434" yMax="695">
      <component glyphName="A.sc" x="0" y="0" flags="0x204"/>
      <component glyphName="uni0302.cap" x="222" y="-119" flags="0x4"/>
    </TTGlyph>
    <TTGlyph name="Adieresis" xMin="10" yMin="0" xMax="510" yMax="792">
      <component glyphName="A" x="0" y="0" flags="0x204"/>
      <component glyphName="uni0308.cap" x="260" y="0" flags="0x4"/>
    </TTGlyph>
    <TTGlyph name="Adieresis.sc" xMin="10" yMin="0" xMax="434" yMax="673">
      <component glyphName="A.sc" x="0" y="0" flags="0x204"/>
      <component glyphName="uni0308.cap" x="222" y="-119" flags="0x4"/>
    </TTGlyph>
    <TTGlyph name="Agrave" xMin="10" yMin="0" xMax="510" yMax="814">
      <component glyphName="A" x="0" y="0" flags="0x204"/>
      <component glyphName="uni0300.cap" x="260" y="0" flags="0x4"/>
    </TTGlyph>
    <TTGlyph name="Agrave.sc" xMin="10" yMin="0" xMax="434" yMax="695">
      <component glyphName="A.sc" x="0" y="0" flags="0x204"/>
      <component glyphName="uni0300.cap" x="222" y="-119" flags="0x4"/>
    </TTGlyph>
    <TTGlyph name="Amacron" xMin="10" yMin="0" xMax="510" yMax="764">
      <component glyphName="A" x="0" y="0" flags="0x204"/>
      <component glyphName="uni0304.cap" x="260" y="0" flags="0x4"/>
    </TTGlyph>
    <TTGlyph name="Amacron.sc" xMin="10" yMin="0" xMax="434" yMax="645">
      <component glyphName="A.sc" x="0" y="0" flags="0x204"/>
      <component glyphName="uni0304.cap" x="222" y="-119" flags="0x4"/>
    </TTGlyph>
    <TTGlyph name="Aogonek" xMin="10" yMin="-202" xMax="548" yMax="660">
      <contour>
        <pt x="384" y="264" on="1"/>
        <pt x="338" y="396" on="1"/>
        <pt x="317" y="456" on="0"/>
        <pt x="280" y="564" on="0"/>
        <pt x="262" y="626" on="1"/>
        <pt x="258" y="626" on="1"/>
        <pt x="240" y="564" on="0"/>
        <pt x="203" y="456" on="0"/>
        <pt x="182" y="396" on="1"/>
        <pt x="135" y="264" on="1"/>
      </contour>
      <contour>
        <pt x="548" y="-180" on="1"/>
        <pt x="537" y="-189" on="0"/>
        <pt x="503" y="-202" on="0"/>
        <pt x="488" y="-202" on="1"/>
        <pt x="455" y="-202" on="0"/>
        <pt x="408" y="-163" on="0"/>
        <pt x="408" y="-122" on="1"/>
        <pt x="408" y="-86" on="0"/>
        <pt x="451" y="-20" on="0"/>
        <pt x="478" y="0" on="1"/>
        <pt x="476" y="0" on="1"/>
        <pt x="394" y="236" on="1"/>
        <pt x="125" y="236" on="1"/>
        <pt x="42" y="0" on="1"/>
        <pt x="10" y="0" on="1"/>
        <pt x="246" y="660" on="1"/>
        <pt x="274" y="660" on="1"/>
        <pt x="510" y="0" on="1"/>
        <pt x="480" y="-23" on="0"/>
        <pt x="438" y="-88" on="0"/>
        <pt x="438" y="-120" on="1"/>
        <pt x="438" y="-147" on="0"/>
        <pt x="470" y="-174" on="0"/>
        <pt x="490" y="-174" on="1"/>
        <pt x="504" y="-174" on="0"/>
        <pt x="523" y="-168" on="0"/>
        <pt x="534" y="-160" on="1"/>
      </contour>
    </TTGlyph>
    <TTGlyph name="Aogonek.sc" xMin="10" yMin="-202" xMax="472" yMax="510">
      <contour>
        <pt x="324" y="204" on="1"/>
        <pt x="286" y="304" on="1"/>
        <pt x="269" y="352" on="0"/>
        <pt x="240" y="430" on="0"/>
        <pt x="224" y="475" on="1"/>
        <pt x="220" y="475" on="1"/>
        <pt x="204" y="429" on="0"/>
        <pt x="175" y="351" on="0"/>
        <pt x="158" y="304" on="1"/>
        <pt x="120" y="204" on="1"/>
      </contour>
      <contour>
        <pt x="472" y="-180" on="1"/>
        <pt x="461" y="-189" on="0"/>
        <pt x="427" y="-202" on="0"/>
        <pt x="412" y="-202" on="1"/>
        <pt x="379" y="-202" on="0"/>
        <pt x="332" y="-163" on="0"/>
        <pt x="332" y="-122" on="1"/>
        <pt x="332" y="-86" on="0"/>
        <pt x="375" y="-20" on="0"/>
        <pt x="402" y="0" on="1"/>
        <pt x="400" y="0" on="1"/>
        <pt x="334" y="176" on="1"/>
        <pt x="109" y="176" on="1"/>
        <pt x="42" y="0" on="1"/>
        <pt x="10" y="0" on="1"/>
        <pt x="207" y="510" on="1"/>
        <pt x="236" y="510" on="1"/>
        <pt x="434" y="0" on="1"/>
        <pt x="404" y="-23" on="0"/>
        <pt x="362" y="-88" on="0"/>
        <pt x="362" y="-120" on="1"/>
        <pt x="362" y="-147" on="0"/>
        <pt x="394" y="-174" on="0"/>
        <pt x="414" y="-174" on="1"/>
        <pt x="428" y="-174" on="0"/>
        <pt x="447" y="-168" on="0"/>
        <pt x="458" y="-160" on="1"/>
      </contour>
    </TTGlyph>
    <TTGlyph name="Aring" xMin="10" yMin="0" xMax="510" yMax="860">
      <component glyphName="A" x="0" y="0" flags="0x204"/>
      <component glyphName="uni030A.cap" x="260" y="0" flags="0x4"/>
    </TTGlyph>
    <TTGlyph name="Aring.sc" xMin="10" yMin="0" xMax="434" yMax="741">
      <component glyphName="A.sc" x="0" y="0" flags="0x204"/>
      <component glyphName="uni030A.cap" x="222" y="-119" flags="0x4"/>
    </TTGlyph>
    <TTGlyph name="Atilde" xMin="10" yMin="0" xMax="510" yMax="804">
      <component glyphName="A" x="0" y="0" flags="0x204"/>
      <component glyphName="uni0303.cap" x="260" y="0" flags="0x4"/>
    </TTGlyph>
    <TTGlyph name="Atilde.sc" xMin="10" yMin="0" xMax="434" yMax="685">
      <component glyphName="A.sc" x="0" y="0" flags="0x204"/>
      <component glyphName="uni0303.cap" x="222" y="-119" flags="0x4"/>
    </TTGlyph>
    <TTGlyph name="B" xMin="100" yMin="0" xMax="528" yMax="660">
      <contour>
        <pt x="100" y="660" on="1"/>
        <pt x="272" y="660" on="1"/>
        <pt x="372" y="660" on="0"/>
        <pt x="486" y="581" on="0"/>
        <pt x="486" y="500" on="1"/>
        <pt x="486" y="447" on="0"/>
        <pt x="427" y="371" on="0"/>
        <pt x="368" y="356" on="1"/>
        <pt x="368" y="352" on="1"/>
        <pt x="442" y="341" on="0"/>
        <pt x="528" y="261" on="0"/>
        <pt x="528" y="192" on="1"/>
        <pt x="528" y="97" on="0"/>
        <pt x="397" y="0" on="0"/>
        <pt x="284" y="0" on="1"/>
        <pt x="100" y="0" on="1"/>
      </contour>
      <contour>
        <pt x="252" y="366" on="1"/>
        <pt x="360" y="366" on="0"/>
        <pt x="454" y="435" on="0"/>
        <pt x="454" y="504" on="1"/>
        <pt x="454" y="572" on="0"/>
        <pt x="355" y="632" on="0"/>
        <pt x="258" y="632" on="1"/>
        <pt x="132" y="632" on="1"/>
        <pt x="132" y="366" on="1"/>
      </contour>
      <contour>
        <pt x="272" y="28" on="1"/>
        <pt x="324" y="28" on="0"/>
        <pt x="407" y="47" on="0"/>
        <pt x="465" y="87" on="0"/>
        <pt x="496" y="148" on="0"/>
        <pt x="496" y="190" on="1"/>
        <pt x="496" y="265" on="0"/>
        <pt x="379" y="338" on="0"/>
        <pt x="272" y="338" on="1"/>
        <pt x="132" y="338" on="1"/>
        <pt x="132" y="28" on="1"/>
      </contour>
    </TTGlyph>
    <TTGlyph name="B.sc" xMin="100" yMin="0" xMax="463" yMax="510">
      <contour>
        <pt x="100" y="510" on="1"/>
        <pt x="246" y="510" on="1"/>
        <pt x="331" y="510" on="0"/>
        <pt x="428" y="450" on="0"/>
        <pt x="428" y="385" on="1"/>
        <pt x="428" y="345" on="0"/>
        <pt x="382" y="288" on="0"/>
        <pt x="339" y="276" on="1"/>
        <pt x="339" y="272" on="1"/>
        <pt x="393" y="263" on="0"/>
        <pt x="463" y="202" on="0"/>
        <pt x="463" y="149" on="1"/>
        <pt x="463" y="74" on="0"/>
        <pt x="352" y="0" on="0"/>
        <pt x="257" y="0" on="1"/>
        <pt x="100" y="0" on="1"/>
      </contour>
      <contour>
        <pt x="230" y="284" on="1"/>
        <pt x="320" y="284" on="0"/>
        <pt x="397" y="336" on="0"/>
        <pt x="397" y="387" on="1"/>
        <pt x="397" y="438" on="0"/>
        <pt x="315" y="484" on="0"/>
        <pt x="235" y="484" on="1"/>
        <pt x="132" y="484" on="1"/>
        <pt x="132" y="284" on="1"/>
      </contour>
      <contour>
        <pt x="247" y="26" on="1"/>
        <pt x="287" y="26" on="0"/>
        <pt x="355" y="38" on="0"/>
        <pt x="405" y="66" on="0"/>
        <pt x="432" y="112" on="0"/>
        <pt x="432" y="147" on="1"/>
        <pt x="432" y="204" on="0"/>
        <pt x="336" y="258" on="0"/>
        <pt x="247" y="258" on="1"/>
        <pt x="132" y="258" on="1"/>
        <pt x="132" y="26" on="1"/>
      </contour>
    </TTGlyph>
    <TTGlyph name="B.sups" xMin="63" yMin="270" xMax="352" yMax="702">
      <contour>
        <pt x="63" y="702" on="1"/>
        <pt x="181" y="702" on="1"/>
        <pt x="247" y="702" on="0"/>
        <pt x="325" y="651" on="0"/>
        <pt x="325" y="597" on="1"/>
        <pt x="325" y="563" on="0"/>
        <pt x="285" y="513" on="0"/>
        <pt x="247" y="504" on="1"/>
        <pt x="247" y="501" on="1"/>
        <pt x="296" y="493" on="0"/>
        <pt x="352" y="441" on="0"/>
        <pt x="352" y="396" on="1"/>
        <pt x="352" y="333" on="0"/>
        <pt x="264" y="270" on="0"/>
        <pt x="189" y="270" on="1"/>
        <pt x="63" y="270" on="1"/>
      </contour>
      <contour>
        <pt x="169" y="512" on="1"/>
        <pt x="238" y="512" on="0"/>
        <pt x="296" y="554" on="0"/>
        <pt x="296" y="598" on="1"/>
        <pt x="296" y="640" on="0"/>
        <pt x="234" y="678" on="0"/>
        <pt x="173" y="678" on="1"/>
        <pt x="92" y="678" on="1"/>
        <pt x="92" y="512" on="1"/>
      </contour>
      <contour>
        <pt x="181" y="294" on="1"/>
        <pt x="247" y="294" on="0"/>
        <pt x="323" y="340" on="0"/>
        <pt x="323" y="395" on="1"/>
        <pt x="323" y="443" on="0"/>
        <pt x="249" y="488" on="0"/>
        <pt x="181" y="488" on="1"/>
        <pt x="92" y="488" on="1"/>
        <pt x="92" y="294" on="1"/>
      </contour>
    </TTGlyph>
    <TTGlyph name="C" xMin="56" yMin="-12" xMax="522" yMax="672">
      <contour>
        <pt x="56" y="332" on="1"/>
        <pt x="56" y="410" on="0"/>
        <pt x="96" y="536" on="0"/>
        <pt x="168" y="624" on="0"/>
        <pt x="271" y="672" on="0"/>
        <pt x="334" y="672" on="1"/>
        <pt x="391" y="672" on="0"/>
        <pt x="476" y="624" on="0"/>
        <pt x="502" y="594" on="1"/>
        <pt x="482" y="572" on="1"/>
        <pt x="455" y="604" on="0"/>
        <pt x="381" y="642" on="0"/>
        <pt x="334" y="642" on="1"/>
        <pt x="277" y="642" on="0"/>
        <pt x="186" y="599" on="0"/>
        <pt x="123" y="518" on="0"/>
        <pt x="90" y="403" on="0"/>
        <pt x="90" y="332" on="1"/>
        <pt x="90" y="261" on="0"/>
        <pt x="123" y="145" on="0"/>
        <pt x="186" y="63" on="0"/>
        <pt x="274" y="18" on="0"/>
        <pt x="330" y="18" on="1"/>
        <pt x="383" y="18" on="0"/>
        <pt x="464" y="60" on="0"/>
        <pt x="502" y="102" on="1"/>
        <pt x="522" y="82" on="1"/>
        <pt x="484" y="38" on="0"/>
        <pt x="393" y="-12" on="0"/>
        <pt x="328" y="-12" on="1"/>
        <pt x="267" y="-12" on="0"/>
        <pt x="167" y="37" on="0"/>
        <pt x="95" y="127" on="0"/>
        <pt x="56" y="254" on="0"/>
      </contour>
    </TTGlyph>
    <TTGlyph name="C.sc" xMin="56" yMin="-12" xMax="450" yMax="522">
      <contour>
        <pt x="56" y="256" on="1"/>
        <pt x="56" y="317" on="0"/>
        <pt x="90" y="415" on="0"/>
        <pt x="152" y="484" on="0"/>
        <pt x="239" y="522" on="0"/>
        <pt x="292" y="522" on="1"/>
        <pt x="340" y="522" on="0"/>
        <pt x="411" y="484" on="0"/>
        <pt x="434" y="460" on="1"/>
        <pt x="414" y="438" on="1"/>
        <pt x="391" y="462" on="0"/>
        <pt x="331" y="492" on="0"/>
        <pt x="292" y="492" on="1"/>
        <pt x="196" y="492" on="0"/>
        <pt x="90" y="365" on="0"/>
        <pt x="90" y="256" on="1"/>
        <pt x="90" y="146" on="0"/>
        <pt x="195" y="18" on="0"/>
        <pt x="288" y="18" on="1"/>
        <pt x="333" y="18" on="0"/>
        <pt x="400" y="49" on="0"/>
        <pt x="430" y="82" on="1"/>
        <pt x="450" y="62" on="1"/>
        <pt x="417" y="26" on="0"/>
        <pt x="341" y="-12" on="0"/>
        <pt x="287" y="-12" on="1"/>
        <pt x="235" y="-12" on="0"/>
        <pt x="150" y="26" on="0"/>
        <pt x="89" y="95" on="0"/>
        <pt x="56" y="194" on="0"/>
      </contour>
    </TTGlyph>
    <TTGlyph name="C.sups" xMin="34" yMin="262" xMax="346" yMax="710">
      <contour>
        <pt x="34" y="487" on="1"/>
        <pt x="34" y="538" on="0"/>
        <pt x="61" y="620" on="0"/>
        <pt x="111" y="679" on="0"/>
        <pt x="179" y="710" on="0"/>
        <pt x="221" y="710" on="1"/>
        <pt x="259" y="710" on="0"/>
        <pt x="317" y="679" on="0"/>
        <pt x="335" y="659" on="1"/>
        <pt x="317" y="640" on="1"/>
        <pt x="299" y="660" on="0"/>
        <pt x="251" y="685" on="0"/>
        <pt x="222" y="685" on="1"/>
        <pt x="186" y="685" on="0"/>
        <pt x="127" y="657" on="0"/>
        <pt x="87" y="605" on="0"/>
        <pt x="65" y="533" on="0"/>
        <pt x="65" y="488" on="1"/>
        <pt x="65" y="396" on="0"/>
        <pt x="147" y="288" on="0"/>
        <pt x="219" y="288" on="1"/>
        <pt x="253" y="288" on="0"/>
        <pt x="306" y="315" on="0"/>
        <pt x="329" y="341" on="1"/>
        <pt x="346" y="323" on="1"/>
        <pt x="322" y="295" on="0"/>
        <pt x="260" y="262" on="0"/>
        <pt x="218" y="262" on="1"/>
        <pt x="177" y="262" on="0"/>
        <pt x="110" y="293" on="0"/>
        <pt x="61" y="352" on="0"/>
        <pt x="34" y="435" on="0"/>
      </contour>
    </TTGlyph>
    <TTGlyph name="Cacute" xMin="56" yMin="-12" xMax="522" yMax="814">
      <component glyphName="C" x="0" y="0" flags="0x204"/>
      <component glyphName="uni0301.cap" x="320" y="0" flags="0x4"/>
    </TTGlyph>
    <TTGlyph name="Cacute.sc" xMin="56" yMin="-12" xMax="450" yMax="695">
      <component glyphName="C.sc" x="0" y="0" flags="0x204"/>
      <component glyphName="uni0301.cap" x="285" y="-119" flags="0x4"/>
    </TTGlyph>
    <TTGlyph name="Ccaron" xMin="56" yMin="-12" xMax="522" yMax="814">
      <component glyphName="C" x="0" y="0" flags="0x204"/>
      <component glyphName="uni030C.cap" x="320" y="0" flags="0x4"/>
    </TTGlyph>
    <TTGlyph name="Ccaron.sc" xMin="56" yMin="-12" xMax="450" yMax="695">
      <component glyphName="C.sc" x="0" y="0" flags="0x204"/>
      <component glyphName="uni030C.cap" x="285" y="-119" flags="0x4"/>
    </TTGlyph>
    <TTGlyph name="Ccedilla" xMin="56" yMin="-206" xMax="522" yMax="672">
      <component glyphName="C" x="0" y="0" flags="0x204"/>
      <component glyphName="uni0327.cap" x="338" y="0" flags="0x4"/>
    </TTGlyph>
    <TTGlyph name="Ccedilla.sc" xMin="56" yMin="-206" xMax="450" yMax="522">
      <component glyphName="C.sc" x="0" y="0" flags="0x204"/>
      <component glyphName="uni0327.cap" x="284" y="0" flags="0x4"/>
    </TTGlyph>
    <TTGlyph name="Ccircumflex" xMin="56" yMin="-12" xMax="522" yMax="814">
      <component glyphName="C" x="0" y="0" flags="0x204"/>
      <component glyphName="uni0302.cap" x="320" y="0" flags="0x4"/>
    </TTGlyph>
    <TTGlyph name="Ccircumflex.sc" xMin="56" yMin="-12" xMax="450" yMax="695">
      <component glyphName="C.sc" x="0" y="0" flags="0x204"/>
      <component glyphName="uni0302.cap" x="285" y="-119" flags="0x4"/>
    </TTGlyph>
    <TTGlyph name="Cdotaccent" xMin="56" yMin="-12" xMax="522" yMax="794">
      <component glyphName="C" x="0" y="0" flags="0x204"/>
      <component glyphName="uni0307.cap" x="320" y="0" flags="0x4"/>
    </TTGlyph>
    <TTGlyph name="Cdotaccent.sc" xMin="56" yMin="-12" xMax="450" yMax="675">
      <component glyphName="C.sc" x="0" y="0" flags="0x204"/>
      <component glyphName="uni0307.cap" x="285" y="-119" flags="0x4"/>
    </TTGlyph>
    <TTGlyph name="D" xMin="100" yMin="0" xMax="544" yMax="660">
      <contour>
        <pt x="100" y="660" on="1"/>
        <pt x="248" y="660" on="1"/>
        <pt x="324" y="660" on="0"/>
        <pt x="436" y="613" on="0"/>
        <pt x="509" y="526" on="0"/>
        <pt x="544" y="405" on="0"/>
        <pt x="544" y="332" on="1"/>
        <pt x="544" y="258" on="0"/>
        <pt x="509" y="136" on="0"/>
        <pt x="436" y="49" on="0"/>
        <pt x="324" y="0" on="0"/>
        <pt x="248" y="0" on="1"/>
        <pt x="100" y="0" on="1"/>
      </contour>
      <contour>
        <pt x="244" y="28" on="1"/>
        <pt x="314" y="28" on="0"/>
        <pt x="415" y="74" on="0"/>
        <pt x="480" y="155" on="0"/>
        <pt x="510" y="267" on="0"/>
        <pt x="510" y="332" on="1"/>
        <pt x="510" y="397" on="0"/>
        <pt x="480" y="507" on="0"/>
        <pt x="415" y="587" on="0"/>
        <pt x="314" y="632" on="0"/>
        <pt x="244" y="632" on="1"/>
        <pt x="132" y="632" on="1"/>
        <pt x="132" y="28" on="1"/>
      </contour>
    </TTGlyph>
    <TTGlyph name="D.sc" xMin="100" yMin="0" xMax="478" yMax="510">
      <contour>
        <pt x="100" y="510" on="1"/>
        <pt x="226" y="510" on="1"/>
        <pt x="290" y="510" on="0"/>
        <pt x="385" y="474" on="0"/>
        <pt x="448" y="407" on="0"/>
        <pt x="478" y="313" on="0"/>
        <pt x="478" y="256" on="1"/>
        <pt x="478" y="199" on="0"/>
        <pt x="448" y="104" on="0"/>
        <pt x="385" y="37" on="0"/>
        <pt x="290" y="0" on="0"/>
        <pt x="226" y="0" on="1"/>
        <pt x="100" y="0" on="1"/>
      </contour>
      <contour>
        <pt x="222" y="26" on="1"/>
        <pt x="339" y="26" on="0"/>
        <pt x="444" y="149" on="0"/>
        <pt x="444" y="256" on="1"/>
        <pt x="444" y="306" on="0"/>
        <pt x="418" y="389" on="0"/>
        <pt x="364" y="449" on="0"/>
        <pt x="280" y="483" on="0"/>
        <pt x="222" y="483" on="1"/>
        <pt x="132" y="483" on="1"/>
        <pt x="132" y="26" on="1"/>
      </contour>
    </TTGlyph>
    <TTGlyph name="D.sups" xMin="63" yMin="270" xMax="363" yMax="702">
      <contour>
        <pt x="63" y="702" on="1"/>
        <pt x="165" y="702" on="1"/>
        <pt x="265" y="702" on="0"/>
        <pt x="363" y="585" on="0"/>
        <pt x="363" y="488" on="1"/>
        <pt x="363" y="439" on="0"/>
        <pt x="339" y="358" on="0"/>
        <pt x="290" y="301" on="0"/>
        <pt x="215" y="270" on="0"/>
        <pt x="165" y="270" on="1"/>
        <pt x="63" y="270" on="1"/>
      </contour>
      <contour>
        <pt x="165" y="295" on="1"/>
        <pt x="208" y="295" on="0"/>
        <pt x="272" y="323" on="0"/>
        <pt x="312" y="374" on="0"/>
        <pt x="332" y="445" on="0"/>
        <pt x="332" y="488" on="1"/>
        <pt x="332" y="573" on="0"/>
        <pt x="250" y="677" on="0"/>
        <pt x="162" y="677" on="1"/>
        <pt x="92" y="677" on="1"/>
        <pt x="92" y="295" on="1"/>
      </contour>
    </TTGlyph>
    <TTGlyph name="Dcaron" xMin="100" yMin="0" xMax="544" yMax="814">
      <component glyphName="D" x="0" y="0" flags="0x204"/>
      <component glyphName="uni030C.cap" x="300" y="0" flags="0x4"/>
    </TTGlyph>
    <TTGlyph name="Dcaron.sc" xMin="100" yMin="0" xMax="478" yMax="695">
      <component glyphName="D.sc" x="0" y="0" flags="0x204"/>
      <component glyphName="uni030C.cap" x="273" y="-119" flags="0x4"/>
    </TTGlyph>
    <TTGlyph name="Dcroat" xMin="38" yMin="0" xMax="564" yMax="660">
      <component glyphName="Eth" x="0" y="0" flags="0x204"/>
    </TTGlyph>
    <TTGlyph name="Dcroat.sc" xMin="38" yMin="0" xMax="494" yMax="510">
      <component glyphName="Eth.sc" x="0" y="0" flags="0x204"/>
    </TTGlyph>
    <TTGlyph name="E" xMin="100" yMin="0" xMax="464" yMax="660">
      <contour>
        <pt x="100" y="660" on="1"/>
        <pt x="454" y="660" on="1"/>
        <pt x="454" y="632" on="1"/>
        <pt x="132" y="632" on="1"/>
        <pt x="132" y="366" on="1"/>
        <pt x="402" y="366" on="1"/>
        <pt x="402" y="338" on="1"/>
        <pt x="132" y="338" on="1"/>
        <pt x="132" y="28" on="1"/>
        <pt x="464" y="28" on="1"/>
        <pt x="464" y="0" on="1"/>
        <pt x="100" y="0" on="1"/>
      </contour>
    </TTGlyph>
    <TTGlyph name="E.sc" xMin="100" yMin="0" xMax="410" yMax="510">
      <contour>
        <pt x="100" y="510" on="1"/>
        <pt x="400" y="510" on="1"/>
        <pt x="400" y="482" on="1"/>
        <pt x="132" y="482" on="1"/>
        <pt x="132" y="286" on="1"/>
        <pt x="358" y="286" on="1"/>
        <pt x="358" y="258" on="1"/>
        <pt x="132" y="258" on="1"/>
        <pt x="132" y="28" on="1"/>
        <pt x="410" y="28" on="1"/>
        <pt x="410" y="0" on="1"/>
        <pt x="100" y="0" on="1"/>
      </contour>
    </TTGlyph>
    <TTGlyph name="E.sups" xMin="63" yMin="270" xMax="308" yMax="702">
      <contour>
        <pt x="63" y="702" on="1"/>
        <pt x="302" y="702" on="1"/>
        <pt x="302" y="677" on="1"/>
        <pt x="92" y="677" on="1"/>
        <pt x="92" y="513" on="1"/>
        <pt x="269" y="513" on="1"/>
        <pt x="269" y="488" on="1"/>
        <pt x="92" y="488" on="1"/>
        <pt x="92" y="295" on="1"/>
        <pt x="308" y="295" on="1"/>
        <pt x="308" y="270" on="1"/>
        <pt x="63" y="270" on="1"/>
      </contour>
    </TTGlyph>
    <TTGlyph name="Eacute" xMin="100" yMin="0" xMax="464" yMax="814">
      <component glyphName="E" x="0" y="0" flags="0x204"/>
      <component glyphName="uni0301.cap" x="281" y="0" flags="0x4"/>
    </TTGlyph>
    <TTGlyph name="Eacute.sc" xMin="100" yMin="0" xMax="410" yMax="695">
      <component glyphName="E.sc" x="0" y="0" flags="0x204"/>
      <component glyphName="uni0301.cap" x="261" y="-119" flags="0x4"/>
    </TTGlyph>
    <TTGlyph name="Ebreve" xMin="100" yMin="0" xMax="464" yMax="814">
      <component glyphName="E" x="0" y="0" flags="0x204"/>
      <component glyphName="uni0306.cap" x="281" y="0" flags="0x4"/>
    </TTGlyph>
    <TTGlyph name="Ebreve.sc" xMin="100" yMin="0" xMax="410" yMax="695">
      <component glyphName="E.sc" x="0" y="0" flags="0x204"/>
      <component glyphName="uni0306.cap" x="261" y="-119" flags="0x4"/>
    </TTGlyph>
    <TTGlyph name="Ecaron" xMin="100" yMin="0" xMax="464" yMax="814">
      <component glyphName="E" x="0" y="0" flags="0x204"/>
      <component glyphName="uni030C.cap" x="281" y="0" flags="0x4"/>
    </TTGlyph>
    <TTGlyph name="Ecaron.sc" xMin="100" yMin="0" xMax="410" yMax="695">
      <component glyphName="E.sc" x="0" y="0" flags="0x204"/>
      <component glyphName="uni030C.cap" x="261" y="-119" flags="0x4"/>
    </TTGlyph>
    <TTGlyph name="Ecircumflex" xMin="100" yMin="0" xMax="464" yMax="814">
      <component glyphName="E" x="0" y="0" flags="0x204"/>
      <component glyphName="uni0302.cap" x="281" y="0" flags="0x4"/>
    </TTGlyph>
    <TTGlyph name="Ecircumflex.sc" xMin="100" yMin="0" xMax="410" yMax="695">
      <component glyphName="E.sc" x="0" y="0" flags="0x204"/>
      <component glyphName="uni0302.cap" x="261" y="-119" flags="0x4"/>
    </TTGlyph>
    <TTGlyph name="Edieresis" xMin="100" yMin="0" xMax="464" yMax="792">
      <component glyphName="E" x="0" y="0" flags="0x204"/>
      <component glyphName="uni0308.cap" x="281" y="0" flags="0x4"/>
    </TTGlyph>
    <TTGlyph name="Edieresis.sc" xMin="100" yMin="0" xMax="410" yMax="673">
      <component glyphName="E.sc" x="0" y="0" flags="0x204"/>
      <component glyphName="uni0308.cap" x="261" y="-119" flags="0x4"/>
    </TTGlyph>
    <TTGlyph name="Edotaccent" xMin="100" yMin="0" xMax="464" yMax="794">
      <component glyphName="E" x="0" y="0" flags="0x204"/>
      <component glyphName="uni0307.cap" x="281" y="0" flags="0x4"/>
    </TTGlyph>
    <TTGlyph name="Edotaccent.sc" xMin="100" yMin="0" xMax="410" yMax="675">
      <component glyphName="E.sc" x="0" y="0" flags="0x204"/>
      <component glyphName="uni0307.cap" x="261" y="-119" flags="0x4"/>
    </TTGlyph>
    <TTGlyph name="Egrave" xMin="100" yMin="0" xMax="464" yMax="814">
      <component glyphName="E" x="0" y="0" flags="0x204"/>
      <component glyphName="uni0300.cap" x="281" y="0" flags="0x4"/>
    </TTGlyph>
    <TTGlyph name="Egrave.sc" xMin="100" yMin="0" xMax="410" yMax="695">
      <component glyphName="E.sc" x="0" y="0" flags="0x204"/>
      <component glyphName="uni0300.cap" x="261" y="-119" flags="0x4"/>
    </TTGlyph>
    <TTGlyph name="Emacron" xMin="100" yMin="0" xMax="464" yMax="764">
      <component glyphName="E" x="0" y="0" flags="0x204"/>
      <component glyphName="uni0304.cap" x="281" y="0" flags="0x4"/>
    </TTGlyph>
    <TTGlyph name="Emacron.sc" xMin="100" yMin="0" xMax="410" yMax="645">
      <component glyphName="E.sc" x="0" y="0" flags="0x204"/>
      <component glyphName="uni0304.cap" x="261" y="-119" flags="0x4"/>
    </TTGlyph>
    <TTGlyph name="Eogonek" xMin="100" yMin="-202" xMax="476" yMax="660">
      <contour>
        <pt x="100" y="660" on="1"/>
        <pt x="454" y="660" on="1"/>
        <pt x="454" y="632" on="1"/>
        <pt x="132" y="632" on="1"/>
        <pt x="132" y="366" on="1"/>
        <pt x="402" y="366" on="1"/>
        <pt x="402" y="338" on="1"/>
        <pt x="132" y="338" on="1"/>
        <pt x="132" y="28" on="1"/>
        <pt x="464" y="28" on="1"/>
        <pt x="464" y="0" on="1"/>
        <pt x="462" y="0" on="1"/>
        <pt x="445" y="-4" on="0"/>
        <pt x="411" y="-25" on="0"/>
        <pt x="383" y="-57" on="0"/>
        <pt x="366" y="-98" on="0"/>
        <pt x="366" y="-120" on="1"/>
        <pt x="366" y="-147" on="0"/>
        <pt x="398" y="-174" on="0"/>
        <pt x="418" y="-174" on="1"/>
        <pt x="432" y="-174" on="0"/>
        <pt x="451" y="-168" on="0"/>
        <pt x="462" y="-160" on="1"/>
        <pt x="476" y="-180" on="1"/>
        <pt x="465" y="-189" on="0"/>
        <pt x="431" y="-202" on="0"/>
        <pt x="416" y="-202" on="1"/>
        <pt x="383" y="-202" on="0"/>
        <pt x="336" y="-163" on="0"/>
        <pt x="336" y="-122" on="1"/>
        <pt x="336" y="-84" on="0"/>
        <pt x="378" y="-20" on="0"/>
        <pt x="408" y="0" on="1"/>
        <pt x="100" y="0" on="1"/>
      </contour>
    </TTGlyph>
    <TTGlyph name="Eogonek.sc" xMin="100" yMin="-202" xMax="422" yMax="510">
      <contour>
        <pt x="100" y="510" on="1"/>
        <pt x="400" y="510" on="1"/>
        <pt x="400" y="482" on="1"/>
        <pt x="132" y="482" on="1"/>
        <pt x="132" y="286" on="1"/>
        <pt x="358" y="286" on="1"/>
        <pt x="358" y="258" on="1"/>
        <pt x="132" y="258" on="1"/>
        <pt x="132" y="28" on="1"/>
        <pt x="410" y="28" on="1"/>
        <pt x="410" y="0" on="1"/>
        <pt x="408" y="0" on="1"/>
        <pt x="391" y="-4" on="0"/>
        <pt x="357" y="-25" on="0"/>
        <pt x="329" y="-57" on="0"/>
        <pt x="312" y="-98" on="0"/>
        <pt x="312" y="-120" on="1"/>
        <pt x="312" y="-147" on="0"/>
        <pt x="344" y="-174" on="0"/>
        <pt x="364" y="-174" on="1"/>
        <pt x="378" y="-174" on="0"/>
        <pt x="397" y="-168" on="0"/>
        <pt x="408" y="-160" on="1"/>
        <pt x="422" y="-180" on="1"/>
        <pt x="411" y="-189" on="0"/>
        <pt x="377" y="-202" on="0"/>
        <pt x="362" y="-202" on="1"/>
        <pt x="329" y="-202" on="0"/>
        <pt x="282" y="-163" on="0"/>
        <pt x="282" y="-122" on="1"/>
        <pt x="282" y="-84" on="0"/>
        <pt x="324" y="-20" on="0"/>
        <pt x="354" y="0" on="1"/>
        <pt x="100" y="0" on="1"/>
      </contour>
    </TTGlyph>
    <TTGlyph name="Eth" xMin="38" yMin="0" xMax="564" yMax="660">
      <contour>
        <pt x="264" y="28" on="1"/>
        <pt x="334" y="28" on="0"/>
        <pt x="435" y="74" on="0"/>
        <pt x="500" y="155" on="0"/>
        <pt x="530" y="267" on="0"/>
        <pt x="530" y="332" on="1"/>
        <pt x="530" y="397" on="0"/>
        <pt x="500" y="507" on="0"/>
        <pt x="435" y="587" on="0"/>
        <pt x="334" y="632" on="0"/>
        <pt x="264" y="632" on="1"/>
        <pt x="152" y="632" on="1"/>
        <pt x="152" y="364" on="1"/>
        <pt x="320" y="364" on="1"/>
        <pt x="320" y="336" on="1"/>
        <pt x="152" y="336" on="1"/>
        <pt x="152" y="28" on="1"/>
      </contour>
      <contour>
        <pt x="268" y="660" on="1"/>
        <pt x="344" y="660" on="0"/>
        <pt x="456" y="613" on="0"/>
        <pt x="529" y="526" on="0"/>
        <pt x="564" y="405" on="0"/>
        <pt x="564" y="332" on="1"/>
        <pt x="564" y="258" on="0"/>
        <pt x="529" y="136" on="0"/>
        <pt x="456" y="49" on="0"/>
        <pt x="344" y="0" on="0"/>
        <pt x="268" y="0" on="1"/>
        <pt x="120" y="0" on="1"/>
        <pt x="120" y="336" on="1"/>
        <pt x="38" y="336" on="1"/>
        <pt x="38" y="362" on="1"/>
        <pt x="120" y="364" on="1"/>
        <pt x="120" y="660" on="1"/>
      </contour>
    </TTGlyph>
    <TTGlyph name="Eth.sc" xMin="38" yMin="0" xMax="494" yMax="510">
      <contour>
        <pt x="238" y="26" on="1"/>
        <pt x="355" y="26" on="0"/>
        <pt x="460" y="149" on="0"/>
        <pt x="460" y="256" on="1"/>
        <pt x="460" y="306" on="0"/>
        <pt x="434" y="389" on="0"/>
        <pt x="380" y="449" on="0"/>
        <pt x="296" y="483" on="0"/>
        <pt x="238" y="483" on="1"/>
        <pt x="148" y="483" on="1"/>
        <pt x="148" y="286" on="1"/>
        <pt x="300" y="286" on="1"/>
        <pt x="300" y="258" on="1"/>
        <pt x="148" y="258" on="1"/>
        <pt x="148" y="26" on="1"/>
      </contour>
      <contour>
        <pt x="242" y="510" on="1"/>
        <pt x="306" y="510" on="0"/>
        <pt x="401" y="474" on="0"/>
        <pt x="464" y="407" on="0"/>
        <pt x="494" y="313" on="0"/>
        <pt x="494" y="256" on="1"/>
        <pt x="494" y="199" on="0"/>
        <pt x="464" y="104" on="0"/>
        <pt x="401" y="37" on="0"/>
        <pt x="306" y="0" on="0"/>
        <pt x="242" y="0" on="1"/>
        <pt x="116" y="0" on="1"/>
        <pt x="116" y="258" on="1"/>
        <pt x="38" y="258" on="1"/>
        <pt x="38" y="284" on="1"/>
        <pt x="116" y="286" on="1"/>
        <pt x="116" y="510" on="1"/>
      </contour>
    </TTGlyph>
    <TTGlyph name="Euro" xMin="24" yMin="-12" xMax="468" yMax="652">
      <contour>
        <pt x="468" y="82" on="1"/>
        <pt x="437" y="38" on="0"/>
        <pt x="360" y="-12" on="0"/>
        <pt x="304" y="-12" on="1"/>
        <pt x="216" y="-12" on="0"/>
        <pt x="104" y="129" on="0"/>
        <pt x="90" y="250" on="1"/>
        <pt x="24" y="250" on="1"/>
        <pt x="24" y="274" on="1"/>
        <pt x="87" y="278" on="1"/>
        <pt x="86" y="289" on="0"/>
        <pt x="86" y="311" on="0"/>
        <pt x="86" y="322" on="1"/>
        <pt x="86" y="331" on="0"/>
        <pt x="86" y="349" on="0"/>
        <pt x="87" y="358" on="1"/>
        <pt x="24" y="358" on="1"/>
        <pt x="24" y="382" on="1"/>
        <pt x="89" y="386" on="1"/>
        <pt x="95" y="448" on="0"/>
        <pt x="133" y="546" on="0"/>
        <pt x="193" y="615" on="0"/>
        <pt x="272" y="652" on="0"/>
        <pt x="320" y="652" on="1"/>
        <pt x="365" y="652" on="0"/>
        <pt x="437" y="604" on="0"/>
        <pt x="458" y="574" on="1"/>
        <pt x="436" y="554" on="1"/>
        <pt x="413" y="586" on="0"/>
        <pt x="356" y="624" on="0"/>
        <pt x="320" y="624" on="1"/>
        <pt x="235" y="624" on="0"/>
        <pt x="134" y="497" on="0"/>
        <pt x="123" y="386" on="1"/>
        <pt x="410" y="386" on="1"/>
        <pt x="410" y="358" on="1"/>
        <pt x="121" y="358" on="1"/>
        <pt x="120" y="349" on="0"/>
        <pt x="120" y="331" on="0"/>
        <pt x="120" y="322" on="1"/>
        <pt x="120" y="311" on="0"/>
        <pt x="120" y="289" on="0"/>
        <pt x="121" y="278" on="1"/>
        <pt x="370" y="278" on="1"/>
        <pt x="370" y="250" on="1"/>
        <pt x="124" y="250" on="1"/>
        <pt x="136" y="142" on="0"/>
        <pt x="229" y="16" on="0"/>
        <pt x="306" y="16" on="1"/>
        <pt x="350" y="16" on="0"/>
        <pt x="415" y="58" on="0"/>
        <pt x="446" y="100" on="1"/>
      </contour>
    </TTGlyph>
    <TTGlyph name="F" xMin="100" yMin="0" xMax="452" yMax="660">
      <contour>
        <pt x="100" y="660" on="1"/>
        <pt x="452" y="660" on="1"/>
        <pt x="452" y="632" on="1"/>
        <pt x="132" y="632" on="1"/>
        <pt x="132" y="354" on="1"/>
        <pt x="402" y="354" on="1"/>
        <pt x="402" y="326" on="1"/>
        <pt x="132" y="326" on="1"/>
        <pt x="132" y="0" on="1"/>
        <pt x="100" y="0" on="1"/>
      </contour>
    </TTGlyph>
    <TTGlyph name="F.sc" xMin="100" yMin="0" xMax="399" yMax="510">
      <contour>
        <pt x="100" y="510" on="1"/>
        <pt x="399" y="510" on="1"/>
        <pt x="399" y="483" on="1"/>
        <pt x="132" y="483" on="1"/>
        <pt x="132" y="275" on="1"/>
        <pt x="357" y="275" on="1"/>
        <pt x="357" y="248" on="1"/>
        <pt x="132" y="248" on="1"/>
        <pt x="132" y="0" on="1"/>
        <pt x="100" y="0" on="1"/>
      </contour>
    </TTGlyph>
    <TTGlyph name="F.sups" xMin="63" yMin="270" xMax="301" yMax="702">
      <contour>
        <pt x="63" y="702" on="1"/>
        <pt x="301" y="702" on="1"/>
        <pt x="301" y="677" on="1"/>
        <pt x="92" y="677" on="1"/>
        <pt x="92" y="504" on="1"/>
        <pt x="269" y="504" on="1"/>
        <pt x="269" y="479" on="1"/>
        <pt x="92" y="479" on="1"/>
        <pt x="92" y="270" on="1"/>
        <pt x="63" y="270" on="1"/>
      </contour>
    </TTGlyph>
    <TTGlyph name="G" xMin="56" yMin="-12" xMax="526" yMax="672">
      <contour>
        <pt x="56" y="332" on="1"/>
        <pt x="56" y="410" on="0"/>
        <pt x="97" y="536" on="0"/>
        <pt x="172" y="624" on="0"/>
        <pt x="279" y="672" on="0"/>
        <pt x="344" y="672" on="1"/>
        <pt x="377" y="672" on="0"/>
        <pt x="431" y="658" on="0"/>
        <pt x="474" y="635" on="0"/>
        <pt x="507" y="607" on="0"/>
        <pt x="520" y="594" on="1"/>
        <pt x="500" y="572" on="1"/>
        <pt x="474" y="601" on="0"/>
        <pt x="400" y="642" on="0"/>
        <pt x="344" y="642" on="1"/>
        <pt x="285" y="642" on="0"/>
        <pt x="191" y="599" on="0"/>
        <pt x="125" y="518" on="0"/>
        <pt x="90" y="403" on="0"/>
        <pt x="90" y="332" on="1"/>
        <pt x="90" y="261" on="0"/>
        <pt x="124" y="145" on="0"/>
        <pt x="187" y="63" on="0"/>
        <pt x="278" y="18" on="0"/>
        <pt x="336" y="18" on="1"/>
        <pt x="384" y="18" on="0"/>
        <pt x="468" y="46" on="0"/>
        <pt x="494" y="72" on="1"/>
        <pt x="494" y="290" on="1"/>
        <pt x="330" y="290" on="1"/>
        <pt x="330" y="318" on="1"/>
        <pt x="526" y="318" on="1"/>
        <pt x="526" y="62" on="1"/>
        <pt x="496" y="29" on="0"/>
        <pt x="399" y="-12" on="0"/>
        <pt x="334" y="-12" on="1"/>
        <pt x="271" y="-12" on="0"/>
        <pt x="168" y="37" on="0"/>
        <pt x="96" y="127" on="0"/>
        <pt x="56" y="254" on="0"/>
      </contour>
    </TTGlyph>
    <TTGlyph name="G.sc" xMin="56" yMin="-12" xMax="454" yMax="522">
      <contour>
        <pt x="56" y="256" on="1"/>
        <pt x="56" y="317" on="0"/>
        <pt x="91" y="416" on="0"/>
        <pt x="155" y="485" on="0"/>
        <pt x="245" y="522" on="0"/>
        <pt x="300" y="522" on="1"/>
        <pt x="356" y="522" on="0"/>
        <pt x="425" y="483" on="0"/>
        <pt x="448" y="462" on="1"/>
        <pt x="428" y="440" on="1"/>
        <pt x="407" y="461" on="0"/>
        <pt x="347" y="492" on="0"/>
        <pt x="300" y="492" on="1"/>
        <pt x="201" y="492" on="0"/>
        <pt x="90" y="366" on="0"/>
        <pt x="90" y="256" on="1"/>
        <pt x="90" y="201" on="0"/>
        <pt x="118" y="113" on="0"/>
        <pt x="170" y="51" on="0"/>
        <pt x="247" y="18" on="0"/>
        <pt x="295" y="18" on="1"/>
        <pt x="335" y="18" on="0"/>
        <pt x="401" y="39" on="0"/>
        <pt x="422" y="57" on="1"/>
        <pt x="422" y="220" on="1"/>
        <pt x="288" y="220" on="1"/>
        <pt x="288" y="248" on="1"/>
        <pt x="454" y="248" on="1"/>
        <pt x="454" y="42" on="1"/>
        <pt x="428" y="19" on="0"/>
        <pt x="346" y="-12" on="0"/>
        <pt x="292" y="-12" on="1"/>
        <pt x="238" y="-12" on="0"/>
        <pt x="151" y="26" on="0"/>
        <pt x="90" y="95" on="0"/>
        <pt x="56" y="194" on="0"/>
      </contour>
    </TTGlyph>
    <TTGlyph name="G.sups" xMin="34" yMin="262" xMax="350" yMax="710">
      <contour>
        <pt x="34" y="487" on="1"/>
        <pt x="34" y="538" on="0"/>
        <pt x="62" y="620" on="0"/>
        <pt x="113" y="679" on="0"/>
        <pt x="184" y="710" on="0"/>
        <pt x="228" y="710" on="1"/>
        <pt x="272" y="710" on="0"/>
        <pt x="329" y="677" on="0"/>
        <pt x="346" y="659" on="1"/>
        <pt x="329" y="640" on="1"/>
        <pt x="312" y="658" on="0"/>
        <pt x="264" y="685" on="0"/>
        <pt x="228" y="685" on="1"/>
        <pt x="190" y="685" on="0"/>
        <pt x="130" y="657" on="0"/>
        <pt x="88" y="605" on="0"/>
        <pt x="65" y="533" on="0"/>
        <pt x="65" y="488" on="1"/>
        <pt x="65" y="396" on="0"/>
        <pt x="149" y="288" on="0"/>
        <pt x="224" y="288" on="1"/>
        <pt x="254" y="288" on="0"/>
        <pt x="307" y="306" on="0"/>
        <pt x="323" y="321" on="1"/>
        <pt x="323" y="457" on="1"/>
        <pt x="218" y="457" on="1"/>
        <pt x="218" y="482" on="1"/>
        <pt x="350" y="482" on="1"/>
        <pt x="350" y="310" on="1"/>
        <pt x="330" y="289" on="0"/>
        <pt x="265" y="262" on="0"/>
        <pt x="222" y="262" on="1"/>
        <pt x="180" y="262" on="0"/>
        <pt x="111" y="293" on="0"/>
        <pt x="61" y="352" on="0"/>
        <pt x="34" y="435" on="0"/>
      </contour>
    </TTGlyph>
    <TTGlyph name="Gbreve" xMin="56" yMin="-12" xMax="526" yMax="814">
      <component glyphName="G" x="0" y="0" flags="0x204"/>
      <component glyphName="uni0306.cap" x="343" y="0" flags="0x4"/>
    </TTGlyph>
    <TTGlyph name="Gbreve.sc" xMin="56" yMin="-12" xMax="454" yMax="695">
      <component glyphName="G.sc" x="0" y="0" flags="0x204"/>
      <component glyphName="uni0306.cap" x="299" y="-119" flags="0x4"/>
    </TTGlyph>
    <TTGlyph name="Gcaron" xMin="56" yMin="-12" xMax="526" yMax="814">
      <component glyphName="G" x="0" y="0" flags="0x204"/>
      <component glyphName="uni030C.cap" x="343" y="0" flags="0x4"/>
    </TTGlyph>
    <TTGlyph name="Gcaron.sc" xMin="56" yMin="-12" xMax="454" yMax="695">
      <component glyphName="G.sc" x="0" y="0" flags="0x204"/>
      <component glyphName="uni030C.cap" x="299" y="-119" flags="0x4"/>
    </TTGlyph>
    <TTGlyph name="Gcircumflex" xMin="56" yMin="-12" xMax="526" yMax="814">
      <component glyphName="G" x="0" y="0" flags="0x204"/>
      <component glyphName="uni0302.cap" x="343" y="0" flags="0x4"/>
    </TTGlyph>
    <TTGlyph name="Gcircumflex.sc" xMin="56" yMin="-12" xMax="454" yMax="695">
      <component glyphName="G.sc" x="0" y="0" flags="0x204"/>
      <component glyphName="uni0302.cap" x="299" y="-119" flags="0x4"/>
    </TTGlyph>
    <TTGlyph name="Gdotaccent" xMin="56" yMin="-12" xMax="526" yMax="794">
      <component glyphName="G" x="0" y="0" flags="0x204"/>
      <component glyphName="uni0307.cap" x="343" y="0" flags="0x4"/>
    </TTGlyph>
    <TTGlyph name="Gdotaccent.sc" xMin="56" yMin="-12" xMax="454" yMax="675">
      <component glyphName="G.sc" x="0" y="0" flags="0x204"/>
      <component glyphName="uni0307.cap" x="299" y="-119" flags="0x4"/>
    </TTGlyph>
    <TTGlyph name="H" xMin="100" yMin="0" xMax="534" yMax="660">
      <contour>
        <pt x="100" y="660" on="1"/>
        <pt x="132" y="660" on="1"/>
        <pt x="132" y="366" on="1"/>
        <pt x="502" y="366" on="1"/>
        <pt x="502" y="660" on="1"/>
        <pt x="534" y="660" on="1"/>
        <pt x="534" y="0" on="1"/>
        <pt x="502" y="0" on="1"/>
        <pt x="502" y="338" on="1"/>
        <pt x="132" y="338" on="1"/>
        <pt x="132" y="0" on="1"/>
        <pt x="100" y="0" on="1"/>
      </contour>
    </TTGlyph>
    <TTGlyph name="H.sc" xMin="100" yMin="0" xMax="472" yMax="510">
      <contour>
        <pt x="100" y="510" on="1"/>
        <pt x="132" y="510" on="1"/>
        <pt x="132" y="286" on="1"/>
        <pt x="440" y="286" on="1"/>
        <pt x="440" y="510" on="1"/>
        <pt x="472" y="510" on="1"/>
        <pt x="472" y="0" on="1"/>
        <pt x="440" y="0" on="1"/>
        <pt x="440" y="258" on="1"/>
        <pt x="132" y="258" on="1"/>
        <pt x="132" y="0" on="1"/>
        <pt x="100" y="0" on="1"/>
      </contour>
    </TTGlyph>
    <TTGlyph name="H.sups" xMin="63" yMin="270" xMax="357" yMax="702">
      <contour>
        <pt x="63" y="702" on="1"/>
        <pt x="92" y="702" on="1"/>
        <pt x="92" y="513" on="1"/>
        <pt x="328" y="513" on="1"/>
        <pt x="328" y="702" on="1"/>
        <pt x="357" y="702" on="1"/>
        <pt x="357" y="270" on="1"/>
        <pt x="328" y="270" on="1"/>
        <pt x="328" y="488" on="1"/>
        <pt x="92" y="488" on="1"/>
        <pt x="92" y="270" on="1"/>
        <pt x="63" y="270" on="1"/>
      </contour>
    </TTGlyph>
    <TTGlyph name="Hbar" xMin="38" yMin="0" xMax="628" yMax="660">
      <contour>
        <pt x="522" y="496" on="1"/>
        <pt x="152" y="496" on="1"/>
        <pt x="152" y="366" on="1"/>
        <pt x="522" y="366" on="1"/>
      </contour>
      <contour>
        <pt x="628" y="496" on="1"/>
        <pt x="554" y="496" on="1"/>
        <pt x="554" y="0" on="1"/>
        <pt x="522" y="0" on="1"/>
        <pt x="522" y="338" on="1"/>
        <pt x="152" y="338" on="1"/>
        <pt x="152" y="0" on="1"/>
        <pt x="120" y="0" on="1"/>
        <pt x="120" y="496" on="1"/>
        <pt x="38" y="496" on="1"/>
        <pt x="38" y="520" on="1"/>
        <pt x="120" y="524" on="1"/>
        <pt x="120" y="660" on="1"/>
        <pt x="152" y="660" on="1"/>
        <pt x="152" y="524" on="1"/>
        <pt x="522" y="524" on="1"/>
        <pt x="522" y="660" on="1"/>
        <pt x="554" y="660" on="1"/>
        <pt x="554" y="524" on="1"/>
        <pt x="628" y="524" on="1"/>
      </contour>
    </TTGlyph>
    <TTGlyph name="Hbar.sc" xMin="38" yMin="0" xMax="568" yMax="510">
      <contour>
        <pt x="460" y="382" on="1"/>
        <pt x="152" y="382" on="1"/>
        <pt x="152" y="286" on="1"/>
        <pt x="460" y="286" on="1"/>
      </contour>
      <contour>
        <pt x="568" y="382" on="1"/>
        <pt x="492" y="382" on="1"/>
        <pt x="492" y="0" on="1"/>
        <pt x="460" y="0" on="1"/>
        <pt x="460" y="258" on="1"/>
        <pt x="152" y="258" on="1"/>
        <pt x="152" y="0" on="1"/>
        <pt x="120" y="0" on="1"/>
        <pt x="120" y="382" on="1"/>
        <pt x="38" y="382" on="1"/>
        <pt x="38" y="404" on="1"/>
        <pt x="120" y="408" on="1"/>
        <pt x="120" y="510" on="1"/>
        <pt x="152" y="510" on="1"/>
        <pt x="152" y="408" on="1"/>
        <pt x="460" y="408" on="1"/>
        <pt x="460" y="510" on="1"/>
        <pt x="492" y="510" on="1"/>
        <pt x="492" y="408" on="1"/>
        <pt x="568" y="408" on="1"/>
      </contour>
    </TTGlyph>
    <TTGlyph name="Hcircumflex" xMin="100" yMin="0" xMax="534" yMax="814">
      <component glyphName="H" x="0" y="0" flags="0x204"/>
      <component glyphName="uni0302.cap" x="317" y="0" flags="0x4"/>
    </TTGlyph>
    <TTGlyph name="Hcircumflex.sc" xMin="100" yMin="0" xMax="472" yMax="695">
      <component glyphName="H.sc" x="0" y="0" flags="0x204"/>
      <component glyphName="uni0302.cap" x="286" y="-119" flags="0x4"/>
    </TTGlyph>
    <TTGlyph name="I" xMin="100" yMin="0" xMax="132" yMax="660">
      <contour>
        <pt x="100" y="660" on="1"/>
        <pt x="132" y="660" on="1"/>
        <pt x="132" y="0" on="1"/>
        <pt x="100" y="0" on="1"/>
      </contour>
    </TTGlyph>
    <TTGlyph name="I.a" xMin="42" yMin="0" xMax="258" yMax="660">
      <contour>
        <pt x="42" y="28" on="1"/>
        <pt x="134" y="28" on="1"/>
        <pt x="134" y="632" on="1"/>
        <pt x="42" y="632" on="1"/>
        <pt x="42" y="660" on="1"/>
        <pt x="258" y="660" on="1"/>
        <pt x="258" y="632" on="1"/>
        <pt x="166" y="632" on="1"/>
        <pt x="166" y="28" on="1"/>
        <pt x="258" y="28" on="1"/>
        <pt x="258" y="0" on="1"/>
        <pt x="42" y="0" on="1"/>
      </contour>
    </TTGlyph>
    <TTGlyph name="I.sc" xMin="100" yMin="0" xMax="132" yMax="510">
      <contour>
        <pt x="100" y="510" on="1"/>
        <pt x="132" y="510" on="1"/>
        <pt x="132" y="0" on="1"/>
        <pt x="100" y="0" on="1"/>
      </contour>
    </TTGlyph>
    <TTGlyph name="I.sups" xMin="63" yMin="270" xMax="92" yMax="702">
      <contour>
        <pt x="63" y="702" on="1"/>
        <pt x="92" y="702" on="1"/>
        <pt x="92" y="270" on="1"/>
        <pt x="63" y="270" on="1"/>
      </contour>
    </TTGlyph>
    <TTGlyph name="Iacute" xMin="84" yMin="0" xMax="222" yMax="814">
      <component glyphName="I" x="0" y="0" flags="0x204"/>
      <component glyphName="uni0301.cap" x="116" y="0" flags="0x4"/>
    </TTGlyph>
    <TTGlyph name="Iacute.a" xMin="42" yMin="0" xMax="258" yMax="814">
      <component glyphName="I.a" x="0" y="0" flags="0x204"/>
      <component glyphName="uni0301.cap" x="151" y="0" flags="0x4"/>
    </TTGlyph>
    <TTGlyph name="Iacute.sc" xMin="84" yMin="0" xMax="222" yMax="695">
      <component glyphName="I.sc" x="0" y="0" flags="0x204"/>
      <component glyphName="uni0301.cap" x="116" y="-119" flags="0x4"/>
    </TTGlyph>
    <TTGlyph name="Icircumflex" xMin="6" yMin="0" xMax="226" yMax="814">
      <component glyphName="I" x="0" y="0" flags="0x204"/>
      <component glyphName="uni0302.cap" x="116" y="0" flags="0x4"/>
    </TTGlyph>
    <TTGlyph name="Icircumflex.a" xMin="41" yMin="0" xMax="261" yMax="814">
      <component glyphName="I.a" x="0" y="0" flags="0x204"/>
      <component glyphName="uni0302.cap" x="151" y="0" flags="0x4"/>
    </TTGlyph>
    <TTGlyph name="Icircumflex.sc" xMin="6" yMin="0" xMax="226" yMax="695">
      <component glyphName="I.sc" x="0" y="0" flags="0x204"/>
      <component glyphName="uni0302.cap" x="116" y="-119" flags="0x4"/>
    </TTGlyph>
    <TTGlyph name="Idieresis" xMin="8" yMin="0" xMax="224" yMax="792">
      <component glyphName="I" x="0" y="0" flags="0x204"/>
      <component glyphName="uni0308.cap" x="116" y="0" flags="0x4"/>
    </TTGlyph>
    <TTGlyph name="Idieresis.a" xMin="42" yMin="0" xMax="259" yMax="792">
      <component glyphName="I.a" x="0" y="0" flags="0x204"/>
      <component glyphName="uni0308.cap" x="151" y="0" flags="0x4"/>
    </TTGlyph>
    <TTGlyph name="Idieresis.sc" xMin="8" yMin="0" xMax="224" yMax="673">
      <component glyphName="I.sc" x="0" y="0" flags="0x204"/>
      <component glyphName="uni0308.cap" x="116" y="-119" flags="0x4"/>
    </TTGlyph>
    <TTGlyph name="Idotaccent" xMin="82" yMin="0" xMax="150" yMax="794">
      <component glyphName="I" x="0" y="0" flags="0x204"/>
      <component glyphName="uni0307.cap" x="116" y="0" flags="0x4"/>
    </TTGlyph>
    <TTGlyph name="Idotaccent.a" xMin="42" yMin="0" xMax="258" yMax="794">
      <component glyphName="I.a" x="0" y="0" flags="0x204"/>
      <component glyphName="uni0307.cap" x="151" y="0" flags="0x4"/>
    </TTGlyph>
    <TTGlyph name="Idotaccent.sc" xMin="82" yMin="0" xMax="150" yMax="675">
      <component glyphName="I.sc" x="0" y="0" flags="0x204"/>
      <component glyphName="uni0307.cap" x="116" y="-119" flags="0x4"/>
    </TTGlyph>
    <TTGlyph name="Igrave" xMin="10" yMin="0" xMax="148" yMax="814">
      <component glyphName="I" x="0" y="0" flags="0x204"/>
      <component glyphName="uni0300.cap" x="116" y="0" flags="0x4"/>
    </TTGlyph>
    <TTGlyph name="Igrave.a" xMin="42" yMin="0" xMax="258" yMax="814">
      <component glyphName="I.a" x="0" y="0" flags="0x204"/>
      <component glyphName="uni0300.cap" x="151" y="0" flags="0x4"/>
    </TTGlyph>
    <TTGlyph name="Igrave.sc" xMin="10" yMin="0" xMax="148" yMax="695">
      <component glyphName="I.sc" x="0" y="0" flags="0x204"/>
      <component glyphName="uni0300.cap" x="116" y="-119" flags="0x4"/>
    </TTGlyph>
    <TTGlyph name="Imacron" xMin="6" yMin="0" xMax="226" yMax="764">
      <component glyphName="I" x="0" y="0" flags="0x204"/>
      <component glyphName="uni0304.cap" x="116" y="0" flags="0x4"/>
    </TTGlyph>
    <TTGlyph name="Imacron.a" xMin="41" yMin="0" xMax="261" yMax="764">
      <component glyphName="I.a" x="0" y="0" flags="0x204"/>
      <component glyphName="uni0304.cap" x="151" y="0" flags="0x4"/>
    </TTGlyph>
    <TTGlyph name="Imacron.sc" xMin="6" yMin="0" xMax="226" yMax="645">
      <component glyphName="I.sc" x="0" y="0" flags="0x204"/>
      <component glyphName="uni0304.cap" x="116" y="-119" flags="0x4"/>
    </TTGlyph>
    <TTGlyph name="Iogonek" xMin="44" yMin="-202" xMax="184" yMax="660">
      <contour>
        <pt x="100" y="660" on="1"/>
        <pt x="132" y="660" on="1"/>
        <pt x="132" y="0" on="1"/>
        <pt x="108" y="-30" on="0"/>
        <pt x="74" y="-85" on="0"/>
        <pt x="74" y="-120" on="1"/>
        <pt x="74" y="-147" on="0"/>
        <pt x="106" y="-174" on="0"/>
        <pt x="126" y="-174" on="1"/>
        <pt x="140" y="-174" on="0"/>
        <pt x="159" y="-168" on="0"/>
        <pt x="170" y="-160" on="1"/>
        <pt x="184" y="-180" on="1"/>
        <pt x="173" y="-189" on="0"/>
        <pt x="139" y="-202" on="0"/>
        <pt x="124" y="-202" on="1"/>
        <pt x="91" y="-202" on="0"/>
        <pt x="44" y="-163" on="0"/>
        <pt x="44" y="-122" on="1"/>
        <pt x="44" y="-83" on="0"/>
        <pt x="78" y="-27" on="0"/>
        <pt x="104" y="0" on="1"/>
        <pt x="100" y="0" on="1"/>
      </contour>
    </TTGlyph>
    <TTGlyph name="Iogonek.a" xMin="42" yMin="-202" xMax="258" yMax="660">
      <contour>
        <pt x="42" y="28" on="1"/>
        <pt x="134" y="28" on="1"/>
        <pt x="134" y="632" on="1"/>
        <pt x="42" y="632" on="1"/>
        <pt x="42" y="660" on="1"/>
        <pt x="258" y="660" on="1"/>
        <pt x="258" y="632" on="1"/>
        <pt x="166" y="632" on="1"/>
        <pt x="166" y="28" on="1"/>
        <pt x="258" y="28" on="1"/>
        <pt x="258" y="0" on="1"/>
        <pt x="176" y="0" on="1"/>
        <pt x="143" y="-25" on="0"/>
        <pt x="106" y="-88" on="0"/>
        <pt x="106" y="-120" on="1"/>
        <pt x="106" y="-147" on="0"/>
        <pt x="138" y="-174" on="0"/>
        <pt x="158" y="-174" on="1"/>
        <pt x="172" y="-174" on="0"/>
        <pt x="191" y="-168" on="0"/>
        <pt x="202" y="-160" on="1"/>
        <pt x="216" y="-180" on="1"/>
        <pt x="205" y="-189" on="0"/>
        <pt x="171" y="-202" on="0"/>
        <pt x="156" y="-202" on="1"/>
        <pt x="123" y="-202" on="0"/>
        <pt x="76" y="-163" on="0"/>
        <pt x="76" y="-122" on="1"/>
        <pt x="76" y="-86" on="0"/>
        <pt x="114" y="-23" on="0"/>
        <pt x="141" y="0" on="1"/>
        <pt x="42" y="0" on="1"/>
      </contour>
    </TTGlyph>
    <TTGlyph name="Iogonek.sc" xMin="44" yMin="-202" xMax="184" yMax="510">
      <contour>
        <pt x="100" y="510" on="1"/>
        <pt x="132" y="510" on="1"/>
        <pt x="132" y="0" on="1"/>
        <pt x="108" y="-30" on="0"/>
        <pt x="74" y="-85" on="0"/>
        <pt x="74" y="-120" on="1"/>
        <pt x="74" y="-147" on="0"/>
        <pt x="106" y="-174" on="0"/>
        <pt x="126" y="-174" on="1"/>
        <pt x="140" y="-174" on="0"/>
        <pt x="159" y="-168" on="0"/>
        <pt x="170" y="-160" on="1"/>
        <pt x="184" y="-180" on="1"/>
        <pt x="173" y="-189" on="0"/>
        <pt x="139" y="-202" on="0"/>
        <pt x="124" y="-202" on="1"/>
        <pt x="91" y="-202" on="0"/>
        <pt x="44" y="-163" on="0"/>
        <pt x="44" y="-122" on="1"/>
        <pt x="44" y="-83" on="0"/>
        <pt x="78" y="-27" on="0"/>
        <pt x="104" y="0" on="1"/>
        <pt x="100" y="0" on="1"/>
      </contour>
    </TTGlyph>
    <TTGlyph name="Itilde" xMin="-8" yMin="0" xMax="240" yMax="804">
      <component glyphName="I" x="0" y="0" flags="0x204"/>
      <component glyphName="uni0303.cap" x="116" y="0" flags="0x4"/>
    </TTGlyph>
    <TTGlyph name="Itilde.a" xMin="27" yMin="0" xMax="275" yMax="804">
      <component glyphName="I.a" x="0" y="0" flags="0x204"/>
      <component glyphName="uni0303.cap" x="151" y="0" flags="0x4"/>
    </TTGlyph>
    <TTGlyph name="Itilde.sc" xMin="-8" yMin="0" xMax="240" yMax="685">
      <component glyphName="I.sc" x="0" y="0" flags="0x204"/>
      <component glyphName="uni0303.cap" x="116" y="-119" flags="0x4"/>
    </TTGlyph>
    <TTGlyph name="J" xMin="44" yMin="-12" xMax="358" yMax="660">
      <contour>
        <pt x="70" y="98" on="1"/>
        <pt x="96" y="54" on="0"/>
        <pt x="158" y="18" on="0"/>
        <pt x="202" y="18" on="1"/>
        <pt x="265" y="18" on="0"/>
        <pt x="326" y="95" on="0"/>
        <pt x="326" y="178" on="1"/>
        <pt x="326" y="660" on="1"/>
        <pt x="358" y="660" on="1"/>
        <pt x="358" y="174" on="1"/>
        <pt x="358" y="135" on="0"/>
        <pt x="341" y="67" on="0"/>
        <pt x="304" y="17" on="0"/>
        <pt x="243" y="-12" on="0"/>
        <pt x="200" y="-12" on="1"/>
        <pt x="147" y="-12" on="0"/>
        <pt x="68" y="37" on="0"/>
        <pt x="44" y="82" on="1"/>
      </contour>
    </TTGlyph>
    <TTGlyph name="J.sc" xMin="44" yMin="-12" xMax="314" yMax="510">
      <contour>
        <pt x="68" y="80" on="1"/>
        <pt x="89" y="47" on="0"/>
        <pt x="142" y="18" on="0"/>
        <pt x="178" y="18" on="1"/>
        <pt x="231" y="18" on="0"/>
        <pt x="282" y="76" on="0"/>
        <pt x="282" y="139" on="1"/>
        <pt x="282" y="510" on="1"/>
        <pt x="314" y="510" on="1"/>
        <pt x="314" y="135" on="1"/>
        <pt x="314" y="105" on="0"/>
        <pt x="299" y="51" on="0"/>
        <pt x="267" y="11" on="0"/>
        <pt x="214" y="-12" on="0"/>
        <pt x="177" y="-12" on="1"/>
        <pt x="132" y="-12" on="0"/>
        <pt x="64" y="29" on="0"/>
        <pt x="44" y="64" on="1"/>
      </contour>
    </TTGlyph>
    <TTGlyph name="J.sups" xMin="25" yMin="262" xMax="241" yMax="702">
      <contour>
        <pt x="47" y="339" on="1"/>
        <pt x="64" y="312" on="0"/>
        <pt x="104" y="288" on="0"/>
        <pt x="131" y="288" on="1"/>
        <pt x="172" y="288" on="0"/>
        <pt x="212" y="337" on="0"/>
        <pt x="212" y="390" on="1"/>
        <pt x="212" y="702" on="1"/>
        <pt x="241" y="702" on="1"/>
        <pt x="241" y="387" on="1"/>
        <pt x="241" y="361" on="0"/>
        <pt x="229" y="315" on="0"/>
        <pt x="202" y="281" on="0"/>
        <pt x="161" y="262" on="0"/>
        <pt x="131" y="262" on="1"/>
        <pt x="94" y="262" on="0"/>
        <pt x="42" y="296" on="0"/>
        <pt x="25" y="325" on="1"/>
      </contour>
    </TTGlyph>
    <TTGlyph name="Jcircumflex" xMin="44" yMin="-12" xMax="448" yMax="814">
      <component glyphName="J" x="0" y="0" flags="0x204"/>
      <component glyphName="uni0302.cap" x="338" y="0" flags="0x4"/>
    </TTGlyph>
    <TTGlyph name="Jcircumflex.sc" xMin="44" yMin="-12" xMax="402" yMax="695">
      <component glyphName="J.sc" x="0" y="0" flags="0x204"/>
      <component glyphName="uni0302.cap" x="292" y="-119" flags="0x4"/>
    </TTGlyph>
    <TTGlyph name="K" xMin="100" yMin="0" xMax="538" yMax="660">
      <contour>
        <pt x="100" y="660" on="1"/>
        <pt x="132" y="660" on="1"/>
        <pt x="132" y="280" on="1"/>
        <pt x="134" y="280" on="1"/>
        <pt x="470" y="660" on="1"/>
        <pt x="510" y="660" on="1"/>
        <pt x="298" y="418" on="1"/>
        <pt x="538" y="0" on="1"/>
        <pt x="500" y="0" on="1"/>
        <pt x="274" y="394" on="1"/>
        <pt x="132" y="234" on="1"/>
        <pt x="132" y="0" on="1"/>
        <pt x="100" y="0" on="1"/>
      </contour>
    </TTGlyph>
    <TTGlyph name="K.sc" xMin="100" yMin="0" xMax="470" yMax="510">
      <contour>
        <pt x="100" y="510" on="1"/>
        <pt x="132" y="510" on="1"/>
        <pt x="132" y="222" on="1"/>
        <pt x="134" y="222" on="1"/>
        <pt x="412" y="510" on="1"/>
        <pt x="450" y="510" on="1"/>
        <pt x="272" y="322" on="1"/>
        <pt x="470" y="0" on="1"/>
        <pt x="434" y="0" on="1"/>
        <pt x="250" y="300" on="1"/>
        <pt x="132" y="180" on="1"/>
        <pt x="132" y="0" on="1"/>
        <pt x="100" y="0" on="1"/>
      </contour>
    </TTGlyph>
    <TTGlyph name="K.sups" xMin="63" yMin="270" xMax="361" yMax="702">
      <contour>
        <pt x="63" y="702" on="1"/>
        <pt x="92" y="702" on="1"/>
        <pt x="92" y="461" on="1"/>
        <pt x="94" y="461" on="1"/>
        <pt x="307" y="702" on="1"/>
        <pt x="342" y="702" on="1"/>
        <pt x="202" y="543" on="1"/>
        <pt x="361" y="270" on="1"/>
        <pt x="328" y="270" on="1"/>
        <pt x="182" y="521" on="1"/>
        <pt x="92" y="420" on="1"/>
        <pt x="92" y="270" on="1"/>
        <pt x="63" y="270" on="1"/>
      </contour>
    </TTGlyph>
    <TTGlyph name="L" xMin="100" yMin="0" xMax="442" yMax="660">
      <contour>
        <pt x="100" y="660" on="1"/>
        <pt x="132" y="660" on="1"/>
        <pt x="132" y="28" on="1"/>
        <pt x="442" y="28" on="1"/>
        <pt x="442" y="0" on="1"/>
        <pt x="100" y="0" on="1"/>
      </contour>
    </TTGlyph>
    <TTGlyph name="L.sc" xMin="100" yMin="0" xMax="390" yMax="510">
      <contour>
        <pt x="100" y="510" on="1"/>
        <pt x="132" y="510" on="1"/>
        <pt x="132" y="28" on="1"/>
        <pt x="390" y="28" on="1"/>
        <pt x="390" y="0" on="1"/>
        <pt x="100" y="0" on="1"/>
      </contour>
    </TTGlyph>
    <TTGlyph name="L.sups" xMin="63" yMin="270" xMax="294" yMax="702">
      <contour>
        <pt x="63" y="702" on="1"/>
        <pt x="92" y="702" on="1"/>
        <pt x="92" y="295" on="1"/>
        <pt x="294" y="295" on="1"/>
        <pt x="294" y="270" on="1"/>
        <pt x="63" y="270" on="1"/>
      </contour>
    </TTGlyph>
    <TTGlyph name="Lacute" xMin="86" yMin="0" xMax="442" yMax="814">
      <component glyphName="L" x="0" y="0" flags="0x204"/>
      <component glyphName="uni0301.cap" x="118" y="0" flags="0x4"/>
    </TTGlyph>
    <TTGlyph name="Lacute.sc" xMin="90" yMin="0" xMax="390" yMax="695">
      <component glyphName="L.sc" x="0" y="0" flags="0x204"/>
      <component glyphName="uni0301.cap" x="122" y="-119" flags="0x4"/>
    </TTGlyph>
    <TTGlyph name="Lcaron" xMin="100" yMin="0" xMax="442" yMax="723">
      <component glyphName="L" x="0" y="0" flags="0x204"/>
      <component glyphName="uni030C.a" x="346" y="-29" flags="0x4"/>
    </TTGlyph>
    <TTGlyph name="Lcaron.sc" xMin="100" yMin="0" xMax="390" yMax="603">
      <component glyphName="L.sc" x="0" y="0" flags="0x204"/>
      <component glyphName="uni030C.a" x="322" y="-149" flags="0x4"/>
    </TTGlyph>
    <TTGlyph name="Ldot" xMin="100" yMin="0" xMax="442" yMax="660">
      <component glyphName="L" x="0" y="0" flags="0x204"/>
      <component glyphName="period" x="246" y="296" flags="0x4"/>
    </TTGlyph>
    <TTGlyph name="Ldot.sc" xMin="100" yMin="0" xMax="390" yMax="510">
      <component glyphName="L.sc" x="0" y="0" flags="0x204"/>
      <component glyphName="period" x="216" y="236" flags="0x4"/>
    </TTGlyph>
    <TTGlyph name="Lslash" xMin="14" yMin="0" xMax="446" yMax="660">
      <contour>
        <pt x="446" y="28" on="1"/>
        <pt x="446" y="0" on="1"/>
        <pt x="104" y="0" on="1"/>
        <pt x="104" y="264" on="1"/>
        <pt x="14" y="216" on="1"/>
        <pt x="14" y="246" on="1"/>
        <pt x="104" y="294" on="1"/>
        <pt x="104" y="660" on="1"/>
        <pt x="136" y="660" on="1"/>
        <pt x="136" y="308" on="1"/>
        <pt x="332" y="410" on="1"/>
        <pt x="332" y="380" on="1"/>
        <pt x="136" y="278" on="1"/>
        <pt x="136" y="28" on="1"/>
      </contour>
    </TTGlyph>
    <TTGlyph name="Lslash.sc" xMin="14" yMin="0" xMax="394" yMax="510">
      <contour>
        <pt x="394" y="28" on="1"/>
        <pt x="394" y="0" on="1"/>
        <pt x="104" y="0" on="1"/>
        <pt x="104" y="194" on="1"/>
        <pt x="14" y="146" on="1"/>
        <pt x="14" y="176" on="1"/>
        <pt x="104" y="224" on="1"/>
        <pt x="104" y="510" on="1"/>
        <pt x="136" y="510" on="1"/>
        <pt x="136" y="238" on="1"/>
        <pt x="302" y="326" on="1"/>
        <pt x="302" y="296" on="1"/>
        <pt x="136" y="208" on="1"/>
        <pt x="136" y="28" on="1"/>
      </contour>
    </TTGlyph>
    <TTGlyph name="M" xMin="100" yMin="0" xMax="598" yMax="660">
      <contour>
        <pt x="100" y="660" on="1"/>
        <pt x="152" y="660" on="1"/>
        <pt x="294" y="260" on="1"/>
        <pt x="348" y="110" on="1"/>
        <pt x="352" y="110" on="1"/>
        <pt x="404" y="260" on="1"/>
        <pt x="546" y="660" on="1"/>
        <pt x="598" y="660" on="1"/>
        <pt x="598" y="0" on="1"/>
        <pt x="566" y="0" on="1"/>
        <pt x="566" y="460" on="1"/>
        <pt x="566" y="499" on="0"/>
        <pt x="568" y="591" on="0"/>
        <pt x="570" y="632" on="1"/>
        <pt x="566" y="632" on="1"/>
        <pt x="515" y="488" on="1"/>
        <pt x="368" y="74" on="1"/>
        <pt x="330" y="74" on="1"/>
        <pt x="182" y="488" on="1"/>
        <pt x="130" y="632" on="1"/>
        <pt x="126" y="632" on="1"/>
        <pt x="128" y="591" on="0"/>
        <pt x="130" y="499" on="0"/>
        <pt x="130" y="460" on="1"/>
        <pt x="130" y="0" on="1"/>
        <pt x="100" y="0" on="1"/>
      </contour>
    </TTGlyph>
    <TTGlyph name="M.sc" xMin="100" yMin="0" xMax="516" yMax="510">
      <contour>
        <pt x="100" y="510" on="1"/>
        <pt x="148" y="510" on="1"/>
        <pt x="264" y="206" on="1"/>
        <pt x="306" y="92" on="1"/>
        <pt x="310" y="92" on="1"/>
        <pt x="353" y="206" on="1"/>
        <pt x="468" y="510" on="1"/>
        <pt x="516" y="510" on="1"/>
        <pt x="516" y="0" on="1"/>
        <pt x="486" y="0" on="1"/>
        <pt x="486" y="344" on="1"/>
        <pt x="486" y="375" on="0"/>
        <pt x="486" y="447" on="0"/>
        <pt x="488" y="480" on="1"/>
        <pt x="484" y="480" on="1"/>
        <pt x="443" y="368" on="1"/>
        <pt x="324" y="56" on="1"/>
        <pt x="292" y="56" on="1"/>
        <pt x="172" y="368" on="1"/>
        <pt x="130" y="480" on="1"/>
        <pt x="126" y="480" on="1"/>
        <pt x="128" y="448" on="0"/>
        <pt x="130" y="375" on="0"/>
        <pt x="130" y="344" on="1"/>
        <pt x="130" y="0" on="1"/>
        <pt x="100" y="0" on="1"/>
      </contour>
    </TTGlyph>
    <TTGlyph name="M.sups" xMin="63" yMin="270" xMax="401" yMax="702">
      <contour>
        <pt x="63" y="702" on="1"/>
        <pt x="106" y="702" on="1"/>
        <pt x="197" y="449" on="1"/>
        <pt x="232" y="353" on="1"/>
        <pt x="235" y="353" on="1"/>
        <pt x="269" y="449" on="1"/>
        <pt x="359" y="702" on="1"/>
        <pt x="401" y="702" on="1"/>
        <pt x="401" y="270" on="1"/>
        <pt x="373" y="270" on="1"/>
        <pt x="373" y="555" on="1"/>
        <pt x="373" y="581" on="0"/>
        <pt x="375" y="643" on="0"/>
        <pt x="376" y="670" on="1"/>
        <pt x="374" y="670" on="1"/>
        <pt x="340" y="576" on="1"/>
        <pt x="246" y="315" on="1"/>
        <pt x="219" y="315" on="1"/>
        <pt x="124" y="576" on="1"/>
        <pt x="89" y="670" on="1"/>
        <pt x="86" y="670" on="1"/>
        <pt x="88" y="643" on="0"/>
        <pt x="90" y="581" on="0"/>
        <pt x="90" y="555" on="1"/>
        <pt x="90" y="270" on="1"/>
        <pt x="63" y="270" on="1"/>
      </contour>
    </TTGlyph>
    <TTGlyph name="N" xMin="100" yMin="0" xMax="532" yMax="660">
      <contour>
        <pt x="100" y="660" on="1"/>
        <pt x="134" y="660" on="1"/>
        <pt x="426" y="176" on="1"/>
        <pt x="502" y="46" on="1"/>
        <pt x="506" y="46" on="1"/>
        <pt x="504" y="94" on="0"/>
        <pt x="502" y="185" on="0"/>
        <pt x="502" y="232" on="1"/>
        <pt x="502" y="660" on="1"/>
        <pt x="532" y="660" on="1"/>
        <pt x="532" y="0" on="1"/>
        <pt x="498" y="0" on="1"/>
        <pt x="206" y="484" on="1"/>
        <pt x="130" y="614" on="1"/>
        <pt x="126" y="614" on="1"/>
        <pt x="128" y="567" on="0"/>
        <pt x="130" y="481" on="0"/>
        <pt x="130" y="434" on="1"/>
        <pt x="130" y="0" on="1"/>
        <pt x="100" y="0" on="1"/>
      </contour>
    </TTGlyph>
    <TTGlyph name="N.sc" xMin="100" yMin="0" xMax="468" yMax="510">
      <contour>
        <pt x="100" y="510" on="1"/>
        <pt x="134" y="510" on="1"/>
        <pt x="376" y="142" on="1"/>
        <pt x="438" y="43" on="1"/>
        <pt x="442" y="43" on="1"/>
        <pt x="440" y="80" on="0"/>
        <pt x="438" y="152" on="0"/>
        <pt x="438" y="189" on="1"/>
        <pt x="438" y="510" on="1"/>
        <pt x="468" y="510" on="1"/>
        <pt x="468" y="0" on="1"/>
        <pt x="434" y="0" on="1"/>
        <pt x="192" y="366" on="1"/>
        <pt x="130" y="467" on="1"/>
        <pt x="126" y="467" on="1"/>
        <pt x="128" y="430" on="0"/>
        <pt x="130" y="361" on="0"/>
        <pt x="130" y="325" on="1"/>
        <pt x="130" y="0" on="1"/>
        <pt x="100" y="0" on="1"/>
      </contour>
    </TTGlyph>
    <TTGlyph name="N.sups" xMin="63" yMin="270" xMax="356" yMax="702">
      <contour>
        <pt x="63" y="702" on="1"/>
        <pt x="95" y="702" on="1"/>
        <pt x="280" y="395" on="1"/>
        <pt x="330" y="310" on="1"/>
        <pt x="333" y="310" on="1"/>
        <pt x="331" y="341" on="0"/>
        <pt x="329" y="403" on="0"/>
        <pt x="329" y="435" on="1"/>
        <pt x="329" y="702" on="1"/>
        <pt x="356" y="702" on="1"/>
        <pt x="356" y="270" on="1"/>
        <pt x="325" y="270" on="1"/>
        <pt x="140" y="577" on="1"/>
        <pt x="89" y="662" on="1"/>
        <pt x="87" y="662" on="1"/>
        <pt x="88" y="631" on="0"/>
        <pt x="90" y="572" on="0"/>
        <pt x="90" y="541" on="1"/>
        <pt x="90" y="270" on="1"/>
        <pt x="63" y="270" on="1"/>
      </contour>
    </TTGlyph>
    <TTGlyph name="Nacute" xMin="100" yMin="0" xMax="532" yMax="814">
      <component glyphName="N" x="0" y="0" flags="0x204"/>
      <component glyphName="uni0301.cap" x="321" y="0" flags="0x4"/>
    </TTGlyph>
    <TTGlyph name="Nacute.sc" xMin="100" yMin="0" xMax="468" yMax="695">
      <component glyphName="N.sc" x="0" y="0" flags="0x204"/>
      <component glyphName="uni0301.cap" x="292" y="-119" flags="0x4"/>
    </TTGlyph>
    <TTGlyph name="Ncaron" xMin="100" yMin="0" xMax="532" yMax="814">
      <component glyphName="N" x="0" y="0" flags="0x204"/>
      <component glyphName="uni030C.cap" x="321" y="0" flags="0x4"/>
    </TTGlyph>
    <TTGlyph name="Ncaron.sc" xMin="100" yMin="0" xMax="468" yMax="695">
      <component glyphName="N.sc" x="0" y="0" flags="0x204"/>
      <component glyphName="uni030C.cap" x="292" y="-119" flags="0x4"/>
    </TTGlyph>
    <TTGlyph name="Ntilde" xMin="100" yMin="0" xMax="532" yMax="804">
      <component glyphName="N" x="0" y="0" flags="0x204"/>
      <component glyphName="uni0303.cap" x="321" y="0" flags="0x4"/>
    </TTGlyph>
    <TTGlyph name="Ntilde.sc" xMin="100" yMin="0" xMax="468" yMax="685">
      <component glyphName="N.sc" x="0" y="0" flags="0x204"/>
      <component glyphName="uni0303.cap" x="292" y="-119" flags="0x4"/>
    </TTGlyph>
    <TTGlyph name="O" xMin="56" yMin="-12" xMax="592" yMax="672">
      <contour>
        <pt x="324" y="-12" on="1"/>
        <pt x="265" y="-12" on="0"/>
        <pt x="167" y="37" on="0"/>
        <pt x="96" y="127" on="0"/>
        <pt x="56" y="254" on="0"/>
        <pt x="56" y="332" on="1"/>
        <pt x="56" y="410" on="0"/>
        <pt x="96" y="536" on="0"/>
        <pt x="167" y="624" on="0"/>
        <pt x="265" y="672" on="0"/>
        <pt x="324" y="672" on="1"/>
        <pt x="382" y="672" on="0"/>
        <pt x="481" y="624" on="0"/>
        <pt x="552" y="536" on="0"/>
        <pt x="592" y="410" on="0"/>
        <pt x="592" y="332" on="1"/>
        <pt x="592" y="254" on="0"/>
        <pt x="552" y="127" on="0"/>
        <pt x="481" y="37" on="0"/>
        <pt x="382" y="-12" on="0"/>
      </contour>
      <contour>
        <pt x="324" y="18" on="1"/>
        <pt x="376" y="18" on="0"/>
        <pt x="463" y="63" on="0"/>
        <pt x="524" y="145" on="0"/>
        <pt x="558" y="261" on="0"/>
        <pt x="558" y="332" on="1"/>
        <pt x="558" y="403" on="0"/>
        <pt x="524" y="518" on="0"/>
        <pt x="463" y="599" on="0"/>
        <pt x="376" y="642" on="0"/>
        <pt x="324" y="642" on="1"/>
        <pt x="271" y="642" on="0"/>
        <pt x="185" y="599" on="0"/>
        <pt x="124" y="518" on="0"/>
        <pt x="90" y="403" on="0"/>
        <pt x="90" y="332" on="1"/>
        <pt x="90" y="261" on="0"/>
        <pt x="124" y="145" on="0"/>
        <pt x="185" y="63" on="0"/>
        <pt x="271" y="18" on="0"/>
      </contour>
    </TTGlyph>
    <TTGlyph name="O.sc" xMin="56" yMin="-12" xMax="512" yMax="522">
      <contour>
        <pt x="284" y="-12" on="1"/>
        <pt x="234" y="-12" on="0"/>
        <pt x="150" y="26" on="0"/>
        <pt x="90" y="96" on="0"/>
        <pt x="56" y="195" on="0"/>
        <pt x="56" y="256" on="1"/>
        <pt x="56" y="317" on="0"/>
        <pt x="90" y="416" on="0"/>
        <pt x="150" y="485" on="0"/>
        <pt x="234" y="522" on="0"/>
        <pt x="284" y="522" on="1"/>
        <pt x="333" y="522" on="0"/>
        <pt x="417" y="485" on="0"/>
        <pt x="478" y="416" on="0"/>
        <pt x="512" y="317" on="0"/>
        <pt x="512" y="256" on="1"/>
        <pt x="512" y="195" on="0"/>
        <pt x="478" y="96" on="0"/>
        <pt x="417" y="26" on="0"/>
        <pt x="333" y="-12" on="0"/>
      </contour>
      <contour>
        <pt x="284" y="18" on="1"/>
        <pt x="327" y="18" on="0"/>
        <pt x="399" y="51" on="0"/>
        <pt x="450" y="113" on="0"/>
        <pt x="478" y="201" on="0"/>
        <pt x="478" y="256" on="1"/>
        <pt x="478" y="311" on="0"/>
        <pt x="450" y="398" on="0"/>
        <pt x="399" y="459" on="0"/>
        <pt x="327" y="492" on="0"/>
        <pt x="284" y="492" on="1"/>
        <pt x="240" y="492" on="0"/>
        <pt x="169" y="459" on="0"/>
        <pt x="118" y="398" on="0"/>
        <pt x="90" y="311" on="0"/>
        <pt x="90" y="256" on="1"/>
        <pt x="90" y="201" on="0"/>
        <pt x="118" y="113" on="0"/>
        <pt x="169" y="51" on="0"/>
        <pt x="240" y="18" on="0"/>
      </contour>
    </TTGlyph>
    <TTGlyph name="O.sups" xMin="34" yMin="262" xMax="395" yMax="710">
      <contour>
        <pt x="214" y="262" on="1"/>
        <pt x="175" y="262" on="0"/>
        <pt x="109" y="294" on="0"/>
        <pt x="61" y="353" on="0"/>
        <pt x="34" y="436" on="0"/>
        <pt x="34" y="488" on="1"/>
        <pt x="34" y="539" on="0"/>
        <pt x="61" y="622" on="0"/>
        <pt x="109" y="679" on="0"/>
        <pt x="175" y="710" on="0"/>
        <pt x="214" y="710" on="1"/>
        <pt x="254" y="710" on="0"/>
        <pt x="320" y="679" on="0"/>
        <pt x="368" y="621" on="0"/>
        <pt x="395" y="539" on="0"/>
        <pt x="395" y="488" on="1"/>
        <pt x="395" y="436" on="0"/>
        <pt x="368" y="353" on="0"/>
        <pt x="320" y="294" on="0"/>
        <pt x="254" y="262" on="0"/>
      </contour>
      <contour>
        <pt x="214" y="288" on="1"/>
        <pt x="248" y="288" on="0"/>
        <pt x="304" y="316" on="0"/>
        <pt x="343" y="369" on="0"/>
        <pt x="364" y="443" on="0"/>
        <pt x="364" y="488" on="1"/>
        <pt x="364" y="579" on="0"/>
        <pt x="283" y="685" on="0"/>
        <pt x="214" y="685" on="1"/>
        <pt x="181" y="685" on="0"/>
        <pt x="126" y="657" on="0"/>
        <pt x="87" y="606" on="0"/>
        <pt x="65" y="533" on="0"/>
        <pt x="65" y="488" on="1"/>
        <pt x="65" y="443" on="0"/>
        <pt x="87" y="369" on="0"/>
        <pt x="126" y="316" on="0"/>
        <pt x="181" y="288" on="0"/>
      </contour>
    </TTGlyph>
    <TTGlyph name="OE" xMin="56" yMin="0" xMax="782" yMax="660">
      <contour>
        <pt x="56" y="332" on="1"/>
        <pt x="56" y="405" on="0"/>
        <pt x="94" y="526" on="0"/>
        <pt x="171" y="613" on="0"/>
        <pt x="287" y="660" on="0"/>
        <pt x="366" y="660" on="1"/>
        <pt x="772" y="660" on="1"/>
        <pt x="772" y="632" on="1"/>
        <pt x="470" y="632" on="1"/>
        <pt x="470" y="366" on="1"/>
        <pt x="720" y="366" on="1"/>
        <pt x="720" y="338" on="1"/>
        <pt x="470" y="338" on="1"/>
        <pt x="470" y="28" on="1"/>
        <pt x="782" y="28" on="1"/>
        <pt x="782" y="0" on="1"/>
        <pt x="366" y="0" on="1"/>
        <pt x="287" y="0" on="0"/>
        <pt x="171" y="49" on="0"/>
        <pt x="94" y="136" on="0"/>
        <pt x="56" y="258" on="0"/>
      </contour>
      <contour>
        <pt x="90" y="332" on="1"/>
        <pt x="90" y="267" on="0"/>
        <pt x="123" y="155" on="0"/>
        <pt x="192" y="74" on="0"/>
        <pt x="297" y="28" on="0"/>
        <pt x="370" y="28" on="1"/>
        <pt x="438" y="28" on="1"/>
        <pt x="438" y="632" on="1"/>
        <pt x="370" y="632" on="1"/>
        <pt x="297" y="632" on="0"/>
        <pt x="192" y="587" on="0"/>
        <pt x="123" y="507" on="0"/>
        <pt x="90" y="397" on="0"/>
      </contour>
    </TTGlyph>
    <TTGlyph name="OE.sc" xMin="56" yMin="0" xMax="664" yMax="510">
      <contour>
        <pt x="56" y="254" on="1"/>
        <pt x="56" y="311" on="0"/>
        <pt x="88" y="406" on="0"/>
        <pt x="152" y="473" on="0"/>
        <pt x="251" y="510" on="0"/>
        <pt x="318" y="510" on="1"/>
        <pt x="654" y="510" on="1"/>
        <pt x="654" y="482" on="1"/>
        <pt x="406" y="482" on="1"/>
        <pt x="406" y="286" on="1"/>
        <pt x="612" y="286" on="1"/>
        <pt x="612" y="258" on="1"/>
        <pt x="406" y="258" on="1"/>
        <pt x="406" y="28" on="1"/>
        <pt x="664" y="28" on="1"/>
        <pt x="664" y="0" on="1"/>
        <pt x="318" y="0" on="1"/>
        <pt x="251" y="0" on="0"/>
        <pt x="152" y="36" on="0"/>
        <pt x="88" y="103" on="0"/>
        <pt x="56" y="197" on="0"/>
      </contour>
      <contour>
        <pt x="322" y="484" on="1"/>
        <pt x="261" y="484" on="0"/>
        <pt x="173" y="452" on="0"/>
        <pt x="117" y="393" on="0"/>
        <pt x="90" y="308" on="0"/>
        <pt x="90" y="254" on="1"/>
        <pt x="90" y="204" on="0"/>
        <pt x="117" y="121" on="0"/>
        <pt x="173" y="61" on="0"/>
        <pt x="261" y="27" on="0"/>
        <pt x="322" y="27" on="1"/>
        <pt x="374" y="27" on="1"/>
        <pt x="374" y="484" on="1"/>
      </contour>
    </TTGlyph>
    <TTGlyph name="Oacute" xMin="56" yMin="-12" xMax="592" yMax="814">
      <component glyphName="O" x="0" y="0" flags="0x204"/>
      <component glyphName="uni0301.cap" x="324" y="0" flags="0x4"/>
    </TTGlyph>
    <TTGlyph name="Oacute.sc" xMin="56" yMin="-12" xMax="512" yMax="695">
      <component glyphName="O.sc" x="0" y="0" flags="0x204"/>
      <component glyphName="uni0301.cap" x="284" y="-119" flags="0x4"/>
    </TTGlyph>
    <TTGlyph name="Ocircumflex" xMin="56" yMin="-12" xMax="592" yMax="814">
      <component glyphName="O" x="0" y="0" flags="0x204"/>
      <component glyphName="uni0302.cap" x="324" y="0" flags="0x4"/>
    </TTGlyph>
    <TTGlyph name="Ocircumflex.sc" xMin="56" yMin="-12" xMax="512" yMax="695">
      <component glyphName="O.sc" x="0" y="0" flags="0x204"/>
      <component glyphName="uni0302.cap" x="284" y="-119" flags="0x4"/>
    </TTGlyph>
    <TTGlyph name="Odieresis" xMin="56" yMin="-12" xMax="592" yMax="792">
      <component glyphName="O" x="0" y="0" flags="0x204"/>
      <component glyphName="uni0308.cap" x="324" y="0" flags="0x4"/>
    </TTGlyph>
    <TTGlyph name="Odieresis.sc" xMin="56" yMin="-12" xMax="512" yMax="673">
      <component glyphName="O.sc" x="0" y="0" flags="0x204"/>
      <component glyphName="uni0308.cap" x="284" y="-119" flags="0x4"/>
    </TTGlyph>
    <TTGlyph name="Ograve" xMin="56" yMin="-12" xMax="592" yMax="814">
      <component glyphName="O" x="0" y="0" flags="0x204"/>
      <component glyphName="uni0300.cap" x="324" y="0" flags="0x4"/>
    </TTGlyph>
    <TTGlyph name="Ograve.sc" xMin="56" yMin="-12" xMax="512" yMax="695">
      <component glyphName="O.sc" x="0" y="0" flags="0x204"/>
      <component glyphName="uni0300.cap" x="284" y="-119" flags="0x4"/>
    </TTGlyph>
    <TTGlyph name="Ohorn" xMin="60" yMin="-12" xMax="596" yMax="764">
      <contour>
        <pt x="328" y="18" on="1"/>
        <pt x="380" y="18" on="0"/>
        <pt x="467" y="63" on="0"/>
        <pt x="528" y="145" on="0"/>
        <pt x="562" y="261" on="0"/>
        <pt x="562" y="332" on="1"/>
        <pt x="562" y="403" on="0"/>
        <pt x="528" y="518" on="0"/>
        <pt x="467" y="599" on="0"/>
        <pt x="380" y="642" on="0"/>
        <pt x="328" y="642" on="1"/>
        <pt x="275" y="642" on="0"/>
        <pt x="189" y="599" on="0"/>
        <pt x="128" y="518" on="0"/>
        <pt x="94" y="403" on="0"/>
        <pt x="94" y="332" on="1"/>
        <pt x="94" y="261" on="0"/>
        <pt x="128" y="145" on="0"/>
        <pt x="189" y="63" on="0"/>
        <pt x="275" y="18" on="0"/>
      </contour>
      <contour>
        <pt x="562" y="764" on="1"/>
        <pt x="580" y="737" on="0"/>
        <pt x="580" y="712" on="1"/>
        <pt x="580" y="674" on="0"/>
        <pt x="528" y="629" on="0"/>
        <pt x="483" y="618" on="1"/>
        <pt x="536" y="575" on="0"/>
        <pt x="596" y="429" on="0"/>
        <pt x="596" y="332" on="1"/>
        <pt x="596" y="254" on="0"/>
        <pt x="556" y="127" on="0"/>
        <pt x="485" y="37" on="0"/>
        <pt x="386" y="-12" on="0"/>
        <pt x="328" y="-12" on="1"/>
        <pt x="269" y="-12" on="0"/>
        <pt x="171" y="37" on="0"/>
        <pt x="100" y="127" on="0"/>
        <pt x="60" y="254" on="0"/>
        <pt x="60" y="332" on="1"/>
        <pt x="60" y="410" on="0"/>
        <pt x="100" y="536" on="0"/>
        <pt x="171" y="624" on="0"/>
        <pt x="269" y="672" on="0"/>
        <pt x="328" y="672" on="1"/>
        <pt x="395" y="672" on="0"/>
        <pt x="451" y="640" on="1"/>
        <pt x="502" y="647" on="0"/>
        <pt x="550" y="681" on="0"/>
        <pt x="550" y="710" on="1"/>
        <pt x="550" y="728" on="0"/>
        <pt x="536" y="748" on="1"/>
      </contour>
    </TTGlyph>
    <TTGlyph name="Ohorn.sc" xMin="56" yMin="-12" xMax="528" yMax="604">
      <contour>
        <pt x="284" y="18" on="1"/>
        <pt x="327" y="18" on="0"/>
        <pt x="399" y="51" on="0"/>
        <pt x="450" y="113" on="0"/>
        <pt x="478" y="201" on="0"/>
        <pt x="478" y="256" on="1"/>
        <pt x="478" y="311" on="0"/>
        <pt x="450" y="398" on="0"/>
        <pt x="399" y="459" on="0"/>
        <pt x="327" y="492" on="0"/>
        <pt x="284" y="492" on="1"/>
        <pt x="240" y="492" on="0"/>
        <pt x="169" y="459" on="0"/>
        <pt x="118" y="398" on="0"/>
        <pt x="90" y="311" on="0"/>
        <pt x="90" y="256" on="1"/>
        <pt x="90" y="201" on="0"/>
        <pt x="118" y="113" on="0"/>
        <pt x="169" y="51" on="0"/>
        <pt x="240" y="18" on="0"/>
      </contour>
      <contour>
        <pt x="510" y="604" on="1"/>
        <pt x="528" y="577" on="0"/>
        <pt x="528" y="552" on="1"/>
        <pt x="528" y="514" on="0"/>
        <pt x="479" y="471" on="0"/>
        <pt x="438" y="460" on="1"/>
        <pt x="473" y="425" on="0"/>
        <pt x="512" y="322" on="0"/>
        <pt x="512" y="256" on="1"/>
        <pt x="512" y="195" on="0"/>
        <pt x="478" y="96" on="0"/>
        <pt x="417" y="26" on="0"/>
        <pt x="333" y="-12" on="0"/>
        <pt x="284" y="-12" on="1"/>
        <pt x="234" y="-12" on="0"/>
        <pt x="150" y="26" on="0"/>
        <pt x="90" y="96" on="0"/>
        <pt x="56" y="195" on="0"/>
        <pt x="56" y="256" on="1"/>
        <pt x="56" y="317" on="0"/>
        <pt x="90" y="416" on="0"/>
        <pt x="150" y="485" on="0"/>
        <pt x="234" y="522" on="0"/>
        <pt x="284" y="522" on="1"/>
        <pt x="358" y="522" on="0"/>
        <pt x="413" y="482" on="1"/>
        <pt x="458" y="489" on="0"/>
        <pt x="498" y="522" on="0"/>
        <pt x="498" y="550" on="1"/>
        <pt x="498" y="568" on="0"/>
        <pt x="484" y="588" on="1"/>
      </contour>
    </TTGlyph>
    <TTGlyph name="Ohungarumlaut" xMin="56" yMin="-12" xMax="592" yMax="814">
      <component glyphName="O" x="0" y="0" flags="0x204"/>
      <component glyphName="uni030B.cap" x="324" y="0" flags="0x4"/>
    </TTGlyph>
    <TTGlyph name="Ohungarumlaut.sc" xMin="56" yMin="-12" xMax="512" yMax="695">
      <component glyphName="O.sc" x="0" y="0" flags="0x204"/>
      <component glyphName="uni030B.cap" x="284" y="-119" flags="0x4"/>
    </TTGlyph>
    <TTGlyph name="Omacron" xMin="56" yMin="-12" xMax="592" yMax="764">
      <component glyphName="O" x="0" y="0" flags="0x204"/>
      <component glyphName="uni0304.cap" x="324" y="0" flags="0x4"/>
    </TTGlyph>
    <TTGlyph name="Omacron.sc" xMin="56" yMin="-12" xMax="512" yMax="645">
      <component glyphName="O.sc" x="0" y="0" flags="0x204"/>
      <component glyphName="uni0304.cap" x="284" y="-119" flags="0x4"/>
    </TTGlyph>
    <TTGlyph name="Oslash" xMin="58" yMin="-20" xMax="596" yMax="680">
      <contour>
        <pt x="165" y="95" on="1"/>
        <pt x="196" y="58" on="0"/>
        <pt x="278" y="18" on="0"/>
        <pt x="328" y="18" on="1"/>
        <pt x="380" y="18" on="0"/>
        <pt x="467" y="63" on="0"/>
        <pt x="528" y="145" on="0"/>
        <pt x="562" y="261" on="0"/>
        <pt x="562" y="332" on="1"/>
        <pt x="562" y="401" on="0"/>
        <pt x="531" y="511" on="0"/>
        <pt x="503" y="551" on="1"/>
      </contour>
      <contour>
        <pt x="485" y="573" on="1"/>
        <pt x="424" y="642" on="0"/>
        <pt x="328" y="642" on="1"/>
        <pt x="275" y="642" on="0"/>
        <pt x="189" y="599" on="0"/>
        <pt x="128" y="518" on="0"/>
        <pt x="94" y="403" on="0"/>
        <pt x="94" y="332" on="1"/>
        <pt x="94" y="266" on="0"/>
        <pt x="122" y="159" on="0"/>
        <pt x="148" y="118" on="1"/>
      </contour>
      <contour>
        <pt x="522" y="578" on="1"/>
        <pt x="557" y="533" on="0"/>
        <pt x="596" y="410" on="0"/>
        <pt x="596" y="332" on="1"/>
        <pt x="596" y="254" on="0"/>
        <pt x="556" y="127" on="0"/>
        <pt x="485" y="37" on="0"/>
        <pt x="386" y="-12" on="0"/>
        <pt x="328" y="-12" on="1"/>
        <pt x="274" y="-12" on="0"/>
        <pt x="181" y="30" on="0"/>
        <pt x="146" y="69" on="1"/>
        <pt x="80" y="-20" on="1"/>
        <pt x="58" y="-4" on="1"/>
        <pt x="128" y="91" on="1"/>
        <pt x="96" y="136" on="0"/>
        <pt x="60" y="257" on="0"/>
        <pt x="60" y="332" on="1"/>
        <pt x="60" y="410" on="0"/>
        <pt x="100" y="536" on="0"/>
        <pt x="171" y="624" on="0"/>
        <pt x="269" y="672" on="0"/>
        <pt x="328" y="672" on="1"/>
        <pt x="380" y="672" on="0"/>
        <pt x="469" y="634" on="0"/>
        <pt x="504" y="599" on="1"/>
        <pt x="564" y="680" on="1"/>
        <pt x="586" y="664" on="1"/>
      </contour>
    </TTGlyph>
    <TTGlyph name="Oslash.sc" xMin="46" yMin="-22" xMax="522" yMax="532">
      <contour>
        <pt x="150" y="75" on="1"/>
        <pt x="201" y="18" on="0"/>
        <pt x="284" y="18" on="1"/>
        <pt x="327" y="18" on="0"/>
        <pt x="399" y="51" on="0"/>
        <pt x="450" y="113" on="0"/>
        <pt x="478" y="201" on="0"/>
        <pt x="478" y="256" on="1"/>
        <pt x="478" y="351" on="0"/>
        <pt x="436" y="413" on="1"/>
      </contour>
      <contour>
        <pt x="418" y="436" on="1"/>
        <pt x="367" y="492" on="0"/>
        <pt x="284" y="492" on="1"/>
        <pt x="240" y="492" on="0"/>
        <pt x="169" y="459" on="0"/>
        <pt x="118" y="398" on="0"/>
        <pt x="90" y="311" on="0"/>
        <pt x="90" y="256" on="1"/>
        <pt x="90" y="208" on="0"/>
        <pt x="112" y="128" on="0"/>
        <pt x="132" y="97" on="1"/>
      </contour>
      <contour>
        <pt x="458" y="438" on="1"/>
        <pt x="484" y="404" on="0"/>
        <pt x="512" y="313" on="0"/>
        <pt x="512" y="256" on="1"/>
        <pt x="512" y="195" on="0"/>
        <pt x="478" y="96" on="0"/>
        <pt x="417" y="26" on="0"/>
        <pt x="333" y="-12" on="0"/>
        <pt x="284" y="-12" on="1"/>
        <pt x="190" y="-12" on="0"/>
        <pt x="130" y="51" on="1"/>
        <pt x="68" y="-22" on="1"/>
        <pt x="46" y="-4" on="1"/>
        <pt x="111" y="72" on="1"/>
        <pt x="85" y="107" on="0"/>
        <pt x="56" y="199" on="0"/>
        <pt x="56" y="256" on="1"/>
        <pt x="56" y="317" on="0"/>
        <pt x="90" y="416" on="0"/>
        <pt x="150" y="485" on="0"/>
        <pt x="234" y="522" on="0"/>
        <pt x="284" y="522" on="1"/>
        <pt x="330" y="522" on="0"/>
        <pt x="409" y="490" on="0"/>
        <pt x="439" y="460" on="1"/>
        <pt x="500" y="532" on="1"/>
        <pt x="522" y="514" on="1"/>
      </contour>
    </TTGlyph>
    <TTGlyph name="Otilde" xMin="56" yMin="-12" xMax="592" yMax="804">
      <component glyphName="O" x="0" y="0" flags="0x204"/>
      <component glyphName="uni0303.cap" x="324" y="0" flags="0x4"/>
    </TTGlyph>
    <TTGlyph name="Otilde.sc" xMin="56" yMin="-12" xMax="512" yMax="685">
      <component glyphName="O.sc" x="0" y="0" flags="0x204"/>
      <component glyphName="uni0303.cap" x="284" y="-119" flags="0x4"/>
    </TTGlyph>
    <TTGlyph name="P" xMin="100" yMin="0" xMax="504" yMax="660">
      <contour>
        <pt x="100" y="660" on="1"/>
        <pt x="272" y="660" on="1"/>
        <pt x="383" y="660" on="0"/>
        <pt x="504" y="579" on="0"/>
        <pt x="504" y="480" on="1"/>
        <pt x="504" y="385" on="0"/>
        <pt x="384" y="292" on="0"/>
        <pt x="272" y="292" on="1"/>
        <pt x="132" y="292" on="1"/>
        <pt x="132" y="0" on="1"/>
        <pt x="100" y="0" on="1"/>
      </contour>
      <contour>
        <pt x="260" y="320" on="1"/>
        <pt x="367" y="320" on="0"/>
        <pt x="470" y="394" on="0"/>
        <pt x="470" y="480" on="1"/>
        <pt x="470" y="567" on="0"/>
        <pt x="366" y="632" on="0"/>
        <pt x="260" y="632" on="1"/>
        <pt x="132" y="632" on="1"/>
        <pt x="132" y="320" on="1"/>
      </contour>
    </TTGlyph>
    <TTGlyph name="P.sc" xMin="100" yMin="0" xMax="444" yMax="510">
      <contour>
        <pt x="100" y="510" on="1"/>
        <pt x="247" y="510" on="1"/>
        <pt x="341" y="510" on="0"/>
        <pt x="444" y="446" on="0"/>
        <pt x="444" y="368" on="1"/>
        <pt x="444" y="293" on="0"/>
        <pt x="341" y="220" on="0"/>
        <pt x="247" y="220" on="1"/>
        <pt x="132" y="220" on="1"/>
        <pt x="132" y="0" on="1"/>
        <pt x="100" y="0" on="1"/>
      </contour>
      <contour>
        <pt x="241" y="247" on="1"/>
        <pt x="330" y="247" on="0"/>
        <pt x="410" y="303" on="0"/>
        <pt x="410" y="368" on="1"/>
        <pt x="410" y="433" on="0"/>
        <pt x="325" y="483" on="0"/>
        <pt x="237" y="483" on="1"/>
        <pt x="132" y="483" on="1"/>
        <pt x="132" y="247" on="1"/>
      </contour>
    </TTGlyph>
    <TTGlyph name="P.sups" xMin="63" yMin="270" xMax="338" yMax="702">
      <contour>
        <pt x="63" y="702" on="1"/>
        <pt x="182" y="702" on="1"/>
        <pt x="256" y="702" on="0"/>
        <pt x="338" y="648" on="0"/>
        <pt x="338" y="582" on="1"/>
        <pt x="338" y="518" on="0"/>
        <pt x="255" y="456" on="0"/>
        <pt x="182" y="456" on="1"/>
        <pt x="92" y="456" on="1"/>
        <pt x="92" y="270" on="1"/>
        <pt x="63" y="270" on="1"/>
      </contour>
      <contour>
        <pt x="175" y="481" on="1"/>
        <pt x="242" y="481" on="0"/>
        <pt x="308" y="528" on="0"/>
        <pt x="308" y="582" on="1"/>
        <pt x="308" y="637" on="0"/>
        <pt x="242" y="677" on="0"/>
        <pt x="175" y="677" on="1"/>
        <pt x="92" y="677" on="1"/>
        <pt x="92" y="481" on="1"/>
      </contour>
    </TTGlyph>
    <TTGlyph name="Q" xMin="56" yMin="-152" xMax="592" yMax="672">
      <contour>
        <pt x="90" y="332" on="1"/>
        <pt x="90" y="261" on="0"/>
        <pt x="124" y="144" on="0"/>
        <pt x="185" y="61" on="0"/>
        <pt x="271" y="16" on="0"/>
        <pt x="324" y="16" on="1"/>
        <pt x="376" y="16" on="0"/>
        <pt x="463" y="61" on="0"/>
        <pt x="524" y="144" on="0"/>
        <pt x="558" y="261" on="0"/>
        <pt x="558" y="332" on="1"/>
        <pt x="558" y="403" on="0"/>
        <pt x="524" y="518" on="0"/>
        <pt x="463" y="599" on="0"/>
        <pt x="376" y="642" on="0"/>
        <pt x="324" y="642" on="1"/>
        <pt x="271" y="642" on="0"/>
        <pt x="185" y="599" on="0"/>
        <pt x="124" y="518" on="0"/>
        <pt x="90" y="403" on="0"/>
      </contour>
      <contour>
        <pt x="590" y="-142" on="1"/>
        <pt x="578" y="-145" on="0"/>
        <pt x="537" y="-152" on="0"/>
        <pt x="514" y="-152" on="1"/>
        <pt x="433" y="-152" on="0"/>
        <pt x="327" y="-72" on="0"/>
        <pt x="304" y="-11" on="1"/>
        <pt x="249" y="-7" on="0"/>
        <pt x="158" y="45" on="0"/>
        <pt x="92" y="135" on="0"/>
        <pt x="56" y="257" on="0"/>
        <pt x="56" y="332" on="1"/>
        <pt x="56" y="410" on="0"/>
        <pt x="96" y="536" on="0"/>
        <pt x="167" y="624" on="0"/>
        <pt x="265" y="672" on="0"/>
        <pt x="324" y="672" on="1"/>
        <pt x="382" y="672" on="0"/>
        <pt x="481" y="624" on="0"/>
        <pt x="552" y="536" on="0"/>
        <pt x="592" y="410" on="0"/>
        <pt x="592" y="332" on="1"/>
        <pt x="592" y="257" on="0"/>
        <pt x="555" y="133" on="0"/>
        <pt x="488" y="44" on="0"/>
        <pt x="396" y="-8" on="0"/>
        <pt x="341" y="-11" on="1"/>
        <pt x="363" y="-63" on="0"/>
        <pt x="452" y="-120" on="0"/>
        <pt x="516" y="-120" on="1"/>
        <pt x="539" y="-120" on="0"/>
        <pt x="570" y="-115" on="0"/>
        <pt x="582" y="-112" on="1"/>
      </contour>
    </TTGlyph>
    <TTGlyph name="Q.sc" xMin="56" yMin="-138" xMax="512" yMax="522">
      <contour>
        <pt x="90" y="256" on="1"/>
        <pt x="90" y="201" on="0"/>
        <pt x="118" y="113" on="0"/>
        <pt x="169" y="50" on="0"/>
        <pt x="240" y="16" on="0"/>
        <pt x="284" y="16" on="1"/>
        <pt x="327" y="16" on="0"/>
        <pt x="399" y="50" on="0"/>
        <pt x="450" y="113" on="0"/>
        <pt x="478" y="201" on="0"/>
        <pt x="478" y="256" on="1"/>
        <pt x="478" y="311" on="0"/>
        <pt x="450" y="398" on="0"/>
        <pt x="399" y="459" on="0"/>
        <pt x="327" y="492" on="0"/>
        <pt x="284" y="492" on="1"/>
        <pt x="240" y="492" on="0"/>
        <pt x="169" y="459" on="0"/>
        <pt x="118" y="398" on="0"/>
        <pt x="90" y="311" on="0"/>
      </contour>
      <contour>
        <pt x="510" y="-128" on="1"/>
        <pt x="499" y="-133" on="0"/>
        <pt x="464" y="-138" on="0"/>
        <pt x="444" y="-138" on="1"/>
        <pt x="376" y="-138" on="0"/>
        <pt x="284" y="-66" on="0"/>
        <pt x="264" y="-11" on="1"/>
        <pt x="218" y="-7" on="0"/>
        <pt x="141" y="34" on="0"/>
        <pt x="86" y="103" on="0"/>
        <pt x="56" y="198" on="0"/>
        <pt x="56" y="256" on="1"/>
        <pt x="56" y="317" on="0"/>
        <pt x="90" y="416" on="0"/>
        <pt x="150" y="485" on="0"/>
        <pt x="234" y="522" on="0"/>
        <pt x="284" y="522" on="1"/>
        <pt x="333" y="522" on="0"/>
        <pt x="417" y="485" on="0"/>
        <pt x="478" y="416" on="0"/>
        <pt x="512" y="317" on="0"/>
        <pt x="512" y="256" on="1"/>
        <pt x="512" y="197" on="0"/>
        <pt x="480" y="101" on="0"/>
        <pt x="423" y="31" on="0"/>
        <pt x="345" y="-9" on="0"/>
        <pt x="298" y="-12" on="1"/>
        <pt x="317" y="-60" on="0"/>
        <pt x="392" y="-108" on="0"/>
        <pt x="446" y="-108" on="1"/>
        <pt x="465" y="-108" on="0"/>
        <pt x="491" y="-103" on="0"/>
        <pt x="502" y="-100" on="1"/>
      </contour>
    </TTGlyph>
    <TTGlyph name="Q.sups" xMin="34" yMin="169" xMax="395" yMax="710">
      <contour>
        <pt x="65" y="489" on="1"/>
        <pt x="65" y="444" on="0"/>
        <pt x="87" y="369" on="0"/>
        <pt x="126" y="317" on="0"/>
        <pt x="181" y="288" on="0"/>
        <pt x="214" y="288" on="1"/>
        <pt x="248" y="288" on="0"/>
        <pt x="303" y="317" on="0"/>
        <pt x="342" y="369" on="0"/>
        <pt x="363" y="444" on="0"/>
        <pt x="363" y="489" on="1"/>
        <pt x="363" y="579" on="0"/>
        <pt x="282" y="685" on="0"/>
        <pt x="214" y="685" on="1"/>
        <pt x="181" y="685" on="0"/>
        <pt x="126" y="657" on="0"/>
        <pt x="87" y="606" on="0"/>
        <pt x="65" y="534" on="0"/>
      </contour>
      <contour>
        <pt x="395" y="176" on="1"/>
        <pt x="387" y="174" on="0"/>
        <pt x="358" y="169" on="0"/>
        <pt x="341" y="169" on="1"/>
        <pt x="286" y="169" on="0"/>
        <pt x="214" y="221" on="0"/>
        <pt x="198" y="263" on="1"/>
        <pt x="162" y="266" on="0"/>
        <pt x="102" y="301" on="0"/>
        <pt x="58" y="359" on="0"/>
        <pt x="34" y="440" on="0"/>
        <pt x="34" y="489" on="1"/>
        <pt x="34" y="540" on="0"/>
        <pt x="61" y="622" on="0"/>
        <pt x="109" y="679" on="0"/>
        <pt x="175" y="710" on="0"/>
        <pt x="214" y="710" on="1"/>
        <pt x="253" y="710" on="0"/>
        <pt x="319" y="679" on="0"/>
        <pt x="367" y="621" on="0"/>
        <pt x="394" y="540" on="0"/>
        <pt x="394" y="489" on="1"/>
        <pt x="394" y="390" on="0"/>
        <pt x="303" y="270" on="0"/>
        <pt x="230" y="263" on="1"/>
        <pt x="260" y="196" on="0"/>
        <pt x="344" y="196" on="1"/>
        <pt x="359" y="196" on="0"/>
        <pt x="380" y="199" on="0"/>
        <pt x="388" y="201" on="1"/>
      </contour>
    </TTGlyph>
    <TTGlyph name="R" xMin="100" yMin="0" xMax="504" yMax="660">
      <contour>
        <pt x="270" y="340" on="1"/>
        <pt x="362" y="340" on="0"/>
        <pt x="460" y="413" on="0"/>
        <pt x="460" y="490" on="1"/>
        <pt x="460" y="568" on="0"/>
        <pt x="362" y="632" on="0"/>
        <pt x="270" y="632" on="1"/>
        <pt x="132" y="632" on="1"/>
        <pt x="132" y="340" on="1"/>
      </contour>
      <contour>
        <pt x="466" y="0" on="1"/>
        <pt x="280" y="312" on="1"/>
        <pt x="132" y="312" on="1"/>
        <pt x="132" y="0" on="1"/>
        <pt x="100" y="0" on="1"/>
        <pt x="100" y="660" on="1"/>
        <pt x="282" y="660" on="1"/>
        <pt x="331" y="660" on="0"/>
        <pt x="409" y="641" on="0"/>
        <pt x="464" y="600" on="0"/>
        <pt x="494" y="536" on="0"/>
        <pt x="494" y="490" on="1"/>
        <pt x="494" y="411" on="0"/>
        <pt x="399" y="322" on="0"/>
        <pt x="316" y="314" on="1"/>
        <pt x="504" y="0" on="1"/>
      </contour>
    </TTGlyph>
    <TTGlyph name="R.sc" xMin="100" yMin="0" xMax="444" yMax="510">
      <contour>
        <pt x="245" y="262" on="1"/>
        <pt x="403" y="262" on="0"/>
        <pt x="403" y="375" on="1"/>
        <pt x="403" y="435" on="0"/>
        <pt x="322" y="483" on="0"/>
        <pt x="245" y="483" on="1"/>
        <pt x="132" y="483" on="1"/>
        <pt x="132" y="262" on="1"/>
      </contour>
      <contour>
        <pt x="408" y="0" on="1"/>
        <pt x="254" y="235" on="1"/>
        <pt x="132" y="235" on="1"/>
        <pt x="132" y="0" on="1"/>
        <pt x="100" y="0" on="1"/>
        <pt x="100" y="510" on="1"/>
        <pt x="255" y="510" on="1"/>
        <pt x="338" y="510" on="0"/>
        <pt x="435" y="448" on="0"/>
        <pt x="435" y="375" on="1"/>
        <pt x="435" y="314" on="0"/>
        <pt x="358" y="244" on="0"/>
        <pt x="290" y="237" on="1"/>
        <pt x="444" y="0" on="1"/>
      </contour>
    </TTGlyph>
    <TTGlyph name="R.sups" xMin="63" yMin="270" xMax="339" yMax="702">
      <contour>
        <pt x="179" y="494" on="1"/>
        <pt x="239" y="494" on="0"/>
        <pt x="301" y="540" on="0"/>
        <pt x="301" y="589" on="1"/>
        <pt x="301" y="638" on="0"/>
        <pt x="239" y="677" on="0"/>
        <pt x="179" y="677" on="1"/>
        <pt x="92" y="677" on="1"/>
        <pt x="92" y="494" on="1"/>
      </contour>
      <contour>
        <pt x="305" y="270" on="1"/>
        <pt x="186" y="469" on="1"/>
        <pt x="92" y="469" on="1"/>
        <pt x="92" y="270" on="1"/>
        <pt x="63" y="270" on="1"/>
        <pt x="63" y="702" on="1"/>
        <pt x="187" y="702" on="1"/>
        <pt x="253" y="702" on="0"/>
        <pt x="331" y="650" on="0"/>
        <pt x="331" y="589" on="1"/>
        <pt x="331" y="537" on="0"/>
        <pt x="270" y="478" on="0"/>
        <pt x="218" y="471" on="1"/>
        <pt x="339" y="270" on="1"/>
      </contour>
    </TTGlyph>
    <TTGlyph name="Racute" xMin="100" yMin="0" xMax="504" yMax="814">
      <component glyphName="R" x="0" y="0" flags="0x204"/>
      <component glyphName="uni0301.cap" x="281" y="0" flags="0x4"/>
    </TTGlyph>
    <TTGlyph name="Racute.sc" xMin="100" yMin="0" xMax="444" yMax="695">
      <component glyphName="R.sc" x="0" y="0" flags="0x204"/>
      <component glyphName="uni0301.cap" x="268" y="-119" flags="0x4"/>
    </TTGlyph>
    <TTGlyph name="Rcaron" xMin="100" yMin="0" xMax="504" yMax="814">
      <component glyphName="R" x="0" y="0" flags="0x204"/>
      <component glyphName="uni030C.cap" x="281" y="0" flags="0x4"/>
    </TTGlyph>
    <TTGlyph name="Rcaron.sc" xMin="100" yMin="0" xMax="444" yMax="695">
      <component glyphName="R.sc" x="0" y="0" flags="0x204"/>
      <component glyphName="uni030C.cap" x="268" y="-119" flags="0x4"/>
    </TTGlyph>
    <TTGlyph name="S" xMin="48" yMin="-12" xMax="474" yMax="672">
      <contour>
        <pt x="70" y="110" on="1"/>
        <pt x="106" y="68" on="0"/>
        <pt x="208" y="18" on="0"/>
        <pt x="268" y="18" on="1"/>
        <pt x="308" y="18" on="0"/>
        <pt x="372" y="39" on="0"/>
        <pt x="417" y="76" on="0"/>
        <pt x="442" y="128" on="0"/>
        <pt x="442" y="160" on="1"/>
        <pt x="442" y="193" on="0"/>
        <pt x="422" y="238" on="0"/>
        <pt x="389" y="271" on="0"/>
        <pt x="345" y="295" on="0"/>
        <pt x="320" y="306" on="1"/>
        <pt x="218" y="352" on="1"/>
        <pt x="197" y="361" on="0"/>
        <pt x="150" y="387" on="0"/>
        <pt x="110" y="424" on="0"/>
        <pt x="84" y="477" on="0"/>
        <pt x="84" y="514" on="1"/>
        <pt x="84" y="549" on="0"/>
        <pt x="112" y="607" on="0"/>
        <pt x="162" y="649" on="0"/>
        <pt x="230" y="672" on="0"/>
        <pt x="270" y="672" on="1"/>
        <pt x="330" y="672" on="0"/>
        <pt x="421" y="625" on="0"/>
        <pt x="450" y="594" on="1"/>
        <pt x="430" y="572" on="1"/>
        <pt x="401" y="604" on="0"/>
        <pt x="321" y="642" on="0"/>
        <pt x="270" y="642" on="1"/>
        <pt x="201" y="642" on="0"/>
        <pt x="116" y="573" on="0"/>
        <pt x="116" y="516" on="1"/>
        <pt x="116" y="485" on="0"/>
        <pt x="139" y="442" on="0"/>
        <pt x="174" y="411" on="0"/>
        <pt x="214" y="390" on="0"/>
        <pt x="232" y="382" on="1"/>
        <pt x="334" y="336" on="1"/>
        <pt x="361" y="324" on="0"/>
        <pt x="412" y="295" on="0"/>
        <pt x="451" y="255" on="0"/>
        <pt x="474" y="200" on="0"/>
        <pt x="474" y="162" on="1"/>
        <pt x="474" y="124" on="0"/>
        <pt x="444" y="61" on="0"/>
        <pt x="390" y="14" on="0"/>
        <pt x="314" y="-12" on="0"/>
        <pt x="268" y="-12" on="1"/>
        <pt x="194" y="-12" on="0"/>
        <pt x="86" y="44" on="0"/>
        <pt x="48" y="88" on="1"/>
      </contour>
    </TTGlyph>
    <TTGlyph name="S.sc" xMin="48" yMin="-12" xMax="408" yMax="522">
      <contour>
        <pt x="70" y="88" on="1"/>
        <pt x="100" y="55" on="0"/>
        <pt x="184" y="16" on="0"/>
        <pt x="235" y="16" on="1"/>
        <pt x="301" y="16" on="0"/>
        <pt x="376" y="74" on="0"/>
        <pt x="376" y="122" on="1"/>
        <pt x="376" y="147" on="0"/>
        <pt x="360" y="182" on="0"/>
        <pt x="333" y="207" on="0"/>
        <pt x="296" y="225" on="0"/>
        <pt x="274" y="234" on="1"/>
        <pt x="202" y="264" on="1"/>
        <pt x="176" y="274" on="0"/>
        <pt x="130" y="299" on="0"/>
        <pt x="97" y="331" on="0"/>
        <pt x="78" y="370" on="0"/>
        <pt x="78" y="396" on="1"/>
        <pt x="78" y="424" on="0"/>
        <pt x="102" y="471" on="0"/>
        <pt x="145" y="504" on="0"/>
        <pt x="203" y="522" on="0"/>
        <pt x="237" y="522" on="1"/>
        <pt x="288" y="522" on="0"/>
        <pt x="366" y="486" on="0"/>
        <pt x="390" y="462" on="1"/>
        <pt x="370" y="440" on="1"/>
        <pt x="346" y="464" on="0"/>
        <pt x="279" y="494" on="0"/>
        <pt x="237" y="494" on="1"/>
        <pt x="179" y="494" on="0"/>
        <pt x="110" y="443" on="0"/>
        <pt x="110" y="398" on="1"/>
        <pt x="110" y="356" on="0"/>
        <pt x="164" y="313" on="0"/>
        <pt x="212" y="293" on="1"/>
        <pt x="286" y="262" on="1"/>
        <pt x="314" y="250" on="0"/>
        <pt x="359" y="227" on="0"/>
        <pt x="391" y="197" on="0"/>
        <pt x="408" y="155" on="0"/>
        <pt x="408" y="124" on="1"/>
        <pt x="408" y="95" on="0"/>
        <pt x="383" y="45" on="0"/>
        <pt x="338" y="9" on="0"/>
        <pt x="274" y="-12" on="0"/>
        <pt x="235" y="-12" on="1"/>
        <pt x="172" y="-12" on="0"/>
        <pt x="81" y="31" on="0"/>
        <pt x="48" y="64" on="1"/>
      </contour>
    </TTGlyph>
    <TTGlyph name="S.sups" xMin="29" yMin="262" xMax="316" yMax="710">
      <contour>
        <pt x="48" y="347" on="1"/>
        <pt x="72" y="318" on="0"/>
        <pt x="139" y="288" on="0"/>
        <pt x="177" y="288" on="1"/>
        <pt x="228" y="288" on="0"/>
        <pt x="287" y="336" on="0"/>
        <pt x="287" y="376" on="1"/>
        <pt x="287" y="397" on="0"/>
        <pt x="275" y="425" on="0"/>
        <pt x="254" y="445" on="0"/>
        <pt x="225" y="460" on="0"/>
        <pt x="209" y="467" on="1"/>
        <pt x="141" y="497" on="1"/>
        <pt x="127" y="503" on="0"/>
        <pt x="95" y="521" on="0"/>
        <pt x="69" y="546" on="0"/>
        <pt x="52" y="581" on="0"/>
        <pt x="52" y="605" on="1"/>
        <pt x="52" y="628" on="0"/>
        <pt x="71" y="667" on="0"/>
        <pt x="106" y="695" on="0"/>
        <pt x="152" y="710" on="0"/>
        <pt x="179" y="710" on="1"/>
        <pt x="219" y="710" on="0"/>
        <pt x="281" y="680" on="0"/>
        <pt x="301" y="659" on="1"/>
        <pt x="284" y="640" on="1"/>
        <pt x="264" y="660" on="0"/>
        <pt x="213" y="685" on="0"/>
        <pt x="179" y="685" on="1"/>
        <pt x="135" y="685" on="0"/>
        <pt x="82" y="642" on="0"/>
        <pt x="82" y="606" on="1"/>
        <pt x="82" y="587" on="0"/>
        <pt x="96" y="560" on="0"/>
        <pt x="118" y="540" on="0"/>
        <pt x="144" y="527" on="0"/>
        <pt x="156" y="522" on="1"/>
        <pt x="224" y="492" on="1"/>
        <pt x="243" y="484" on="0"/>
        <pt x="276" y="465" on="0"/>
        <pt x="301" y="439" on="0"/>
        <pt x="316" y="405" on="0"/>
        <pt x="316" y="381" on="1"/>
        <pt x="316" y="329" on="0"/>
        <pt x="240" y="262" on="0"/>
        <pt x="177" y="262" on="1"/>
        <pt x="129" y="262" on="0"/>
        <pt x="55" y="298" on="0"/>
        <pt x="29" y="327" on="1"/>
      </contour>
    </TTGlyph>
    <TTGlyph name="Sacute" xMin="48" yMin="-12" xMax="474" yMax="814">
      <component glyphName="S" x="0" y="0" flags="0x204"/>
      <component glyphName="uni0301.cap" x="269" y="0" flags="0x4"/>
    </TTGlyph>
    <TTGlyph name="Sacute.sc" xMin="48" yMin="-12" xMax="408" yMax="695">
      <component glyphName="S.sc" x="0" y="0" flags="0x204"/>
      <component glyphName="uni0301.cap" x="240" y="-119" flags="0x4"/>
    </TTGlyph>
    <TTGlyph name="Scaron" xMin="48" yMin="-12" xMax="474" yMax="814">
      <component glyphName="S" x="0" y="0" flags="0x204"/>
      <component glyphName="uni030C.cap" x="269" y="0" flags="0x4"/>
    </TTGlyph>
    <TTGlyph name="Scaron.sc" xMin="48" yMin="-12" xMax="408" yMax="695">
      <component glyphName="S.sc" x="0" y="0" flags="0x204"/>
      <component glyphName="uni030C.cap" x="240" y="-119" flags="0x4"/>
    </TTGlyph>
    <TTGlyph name="Scircumflex" xMin="48" yMin="-12" xMax="474" yMax="814">
      <component glyphName="S" x="0" y="0" flags="0x204"/>
      <component glyphName="uni0302.cap" x="269" y="0" flags="0x4"/>
    </TTGlyph>
    <TTGlyph name="Scircumflex.sc" xMin="48" yMin="-12" xMax="408" yMax="695">
      <component glyphName="S.sc" x="0" y="0" flags="0x204"/>
      <component glyphName="uni0302.cap" x="240" y="-119" flags="0x4"/>
    </TTGlyph>
    <TTGlyph name="T" xMin="30" yMin="0" xMax="490" yMax="660">
      <contour>
        <pt x="244" y="632" on="1"/>
        <pt x="30" y="632" on="1"/>
        <pt x="30" y="660" on="1"/>
        <pt x="490" y="660" on="1"/>
        <pt x="490" y="632" on="1"/>
        <pt x="276" y="632" on="1"/>
        <pt x="276" y="0" on="1"/>
        <pt x="244" y="0" on="1"/>
      </contour>
    </TTGlyph>
    <TTGlyph name="T.sc" xMin="30" yMin="0" xMax="418" yMax="510">
      <contour>
        <pt x="208" y="483" on="1"/>
        <pt x="30" y="483" on="1"/>
        <pt x="30" y="510" on="1"/>
        <pt x="418" y="510" on="1"/>
        <pt x="418" y="483" on="1"/>
        <pt x="240" y="483" on="1"/>
        <pt x="240" y="0" on="1"/>
        <pt x="208" y="0" on="1"/>
      </contour>
    </TTGlyph>
    <TTGlyph name="T.sups" xMin="17" yMin="270" xMax="324" yMax="702">
      <contour>
        <pt x="156" y="677" on="1"/>
        <pt x="17" y="677" on="1"/>
        <pt x="17" y="702" on="1"/>
        <pt x="324" y="702" on="1"/>
        <pt x="324" y="677" on="1"/>
        <pt x="185" y="677" on="1"/>
        <pt x="185" y="270" on="1"/>
        <pt x="156" y="270" on="1"/>
      </contour>
    </TTGlyph>
    <TTGlyph name="Tcaron" xMin="30" yMin="0" xMax="490" yMax="814">
      <component glyphName="T" x="0" y="0" flags="0x204"/>
      <component glyphName="uni030C.cap" x="259" y="0" flags="0x4"/>
    </TTGlyph>
    <TTGlyph name="Tcaron.sc" xMin="30" yMin="0" xMax="418" yMax="695">
      <component glyphName="T.sc" x="0" y="0" flags="0x204"/>
      <component glyphName="uni030C.cap" x="224" y="-119" flags="0x4"/>
    </TTGlyph>
    <TTGlyph name="Thorn" xMin="100" yMin="0" xMax="504" yMax="660">
      <contour>
        <pt x="100" y="660" on="1"/>
        <pt x="132" y="660" on="1"/>
        <pt x="132" y="540" on="1"/>
        <pt x="272" y="540" on="1"/>
        <pt x="383" y="540" on="0"/>
        <pt x="504" y="459" on="0"/>
        <pt x="504" y="360" on="1"/>
        <pt x="504" y="265" on="0"/>
        <pt x="384" y="172" on="0"/>
        <pt x="272" y="172" on="1"/>
        <pt x="132" y="172" on="1"/>
        <pt x="132" y="0" on="1"/>
        <pt x="100" y="0" on="1"/>
      </contour>
      <contour>
        <pt x="260" y="200" on="1"/>
        <pt x="367" y="200" on="0"/>
        <pt x="470" y="274" on="0"/>
        <pt x="470" y="360" on="1"/>
        <pt x="470" y="447" on="0"/>
        <pt x="366" y="512" on="0"/>
        <pt x="260" y="512" on="1"/>
        <pt x="132" y="512" on="1"/>
        <pt x="132" y="200" on="1"/>
      </contour>
    </TTGlyph>
    <TTGlyph name="Thorn.sc" xMin="100" yMin="0" xMax="444" yMax="510">
      <contour>
        <pt x="100" y="510" on="1"/>
        <pt x="132" y="510" on="1"/>
        <pt x="132" y="418" on="1"/>
        <pt x="247" y="418" on="1"/>
        <pt x="340" y="418" on="0"/>
        <pt x="444" y="353" on="0"/>
        <pt x="444" y="276" on="1"/>
        <pt x="444" y="202" on="0"/>
        <pt x="341" y="128" on="0"/>
        <pt x="247" y="128" on="1"/>
        <pt x="132" y="128" on="1"/>
        <pt x="132" y="0" on="1"/>
        <pt x="100" y="0" on="1"/>
      </contour>
      <contour>
        <pt x="237" y="156" on="1"/>
        <pt x="325" y="156" on="0"/>
        <pt x="410" y="212" on="0"/>
        <pt x="410" y="276" on="1"/>
        <pt x="410" y="341" on="0"/>
        <pt x="325" y="390" on="0"/>
        <pt x="237" y="390" on="1"/>
        <pt x="132" y="390" on="1"/>
        <pt x="132" y="156" on="1"/>
      </contour>
    </TTGlyph>
    <TTGlyph name="U" xMin="98" yMin="-12" xMax="532" yMax="660">
      <contour>
        <pt x="98" y="660" on="1"/>
        <pt x="130" y="660" on="1"/>
        <pt x="130" y="254" on="1"/>
        <pt x="130" y="186" on="0"/>
        <pt x="160" y="95" on="0"/>
        <pt x="211" y="41" on="0"/>
        <pt x="278" y="18" on="0"/>
        <pt x="314" y="18" on="1"/>
        <pt x="351" y="18" on="0"/>
        <pt x="419" y="41" on="0"/>
        <pt x="471" y="95" on="0"/>
        <pt x="502" y="186" on="0"/>
        <pt x="502" y="254" on="1"/>
        <pt x="502" y="660" on="1"/>
        <pt x="532" y="660" on="1"/>
        <pt x="532" y="246" on="1"/>
        <pt x="532" y="169" on="0"/>
        <pt x="494" y="70" on="0"/>
        <pt x="432" y="11" on="0"/>
        <pt x="354" y="-12" on="0"/>
        <pt x="314" y="-12" on="1"/>
        <pt x="274" y="-12" on="0"/>
        <pt x="197" y="11" on="0"/>
        <pt x="136" y="70" on="0"/>
        <pt x="98" y="169" on="0"/>
        <pt x="98" y="246" on="1"/>
      </contour>
    </TTGlyph>
    <TTGlyph name="U.sc" xMin="98" yMin="-12" xMax="466" yMax="510">
      <contour>
        <pt x="98" y="510" on="1"/>
        <pt x="130" y="510" on="1"/>
        <pt x="130" y="198" on="1"/>
        <pt x="130" y="145" on="0"/>
        <pt x="155" y="76" on="0"/>
        <pt x="197" y="35" on="0"/>
        <pt x="252" y="18" on="0"/>
        <pt x="282" y="18" on="1"/>
        <pt x="312" y="18" on="0"/>
        <pt x="368" y="35" on="0"/>
        <pt x="411" y="76" on="0"/>
        <pt x="436" y="145" on="0"/>
        <pt x="436" y="198" on="1"/>
        <pt x="436" y="510" on="1"/>
        <pt x="466" y="510" on="1"/>
        <pt x="466" y="192" on="1"/>
        <pt x="466" y="132" on="0"/>
        <pt x="434" y="53" on="0"/>
        <pt x="382" y="7" on="0"/>
        <pt x="316" y="-12" on="0"/>
        <pt x="282" y="-12" on="1"/>
        <pt x="247" y="-12" on="0"/>
        <pt x="181" y="7" on="0"/>
        <pt x="130" y="53" on="0"/>
        <pt x="98" y="132" on="0"/>
        <pt x="98" y="192" on="1"/>
      </contour>
    </TTGlyph>
    <TTGlyph name="U.sups" xMin="62" yMin="262" xMax="356" yMax="702">
      <contour>
        <pt x="62" y="702" on="1"/>
        <pt x="91" y="702" on="1"/>
        <pt x="91" y="439" on="1"/>
        <pt x="91" y="395" on="0"/>
        <pt x="110" y="337" on="0"/>
        <pt x="143" y="303" on="0"/>
        <pt x="186" y="288" on="0"/>
        <pt x="209" y="288" on="1"/>
        <pt x="233" y="288" on="0"/>
        <pt x="276" y="303" on="0"/>
        <pt x="309" y="337" on="0"/>
        <pt x="329" y="395" on="0"/>
        <pt x="329" y="439" on="1"/>
        <pt x="329" y="702" on="1"/>
        <pt x="356" y="702" on="1"/>
        <pt x="356" y="435" on="1"/>
        <pt x="356" y="385" on="0"/>
        <pt x="331" y="318" on="0"/>
        <pt x="290" y="278" on="0"/>
        <pt x="237" y="262" on="0"/>
        <pt x="209" y="262" on="1"/>
        <pt x="181" y="262" on="0"/>
        <pt x="128" y="278" on="0"/>
        <pt x="87" y="318" on="0"/>
        <pt x="62" y="385" on="0"/>
        <pt x="62" y="435" on="1"/>
      </contour>
    </TTGlyph>
    <TTGlyph name="Uacute" xMin="98" yMin="-12" xMax="532" yMax="814">
      <component glyphName="U" x="0" y="0" flags="0x204"/>
      <component glyphName="uni0301.cap" x="315" y="0" flags="0x4"/>
    </TTGlyph>
    <TTGlyph name="Uacute.sc" xMin="98" yMin="-12" xMax="466" yMax="695">
      <component glyphName="U.sc" x="0" y="0" flags="0x204"/>
      <component glyphName="uni0301.cap" x="282" y="-119" flags="0x4"/>
    </TTGlyph>
    <TTGlyph name="Ubreve" xMin="98" yMin="-12" xMax="532" yMax="814">
      <component glyphName="U" x="0" y="0" flags="0x204"/>
      <component glyphName="uni0306.cap" x="315" y="0" flags="0x4"/>
    </TTGlyph>
    <TTGlyph name="Ubreve.sc" xMin="98" yMin="-12" xMax="466" yMax="695">
      <component glyphName="U.sc" x="0" y="0" flags="0x204"/>
      <component glyphName="uni0306.cap" x="282" y="-119" flags="0x4"/>
    </TTGlyph>
    <TTGlyph name="Ucircumflex" xMin="98" yMin="-12" xMax="532" yMax="814">
      <component glyphName="U" x="0" y="0" flags="0x204"/>
      <component glyphName="uni0302.cap" x="315" y="0" flags="0x4"/>
    </TTGlyph>
    <TTGlyph name="Ucircumflex.sc" xMin="98" yMin="-12" xMax="466" yMax="695">
      <component glyphName="U.sc" x="0" y="0" flags="0x204"/>
      <component glyphName="uni0302.cap" x="282" y="-119" flags="0x4"/>
    </TTGlyph>
    <TTGlyph name="Udieresis" xMin="98" yMin="-12" xMax="532" yMax="792">
      <component glyphName="U" x="0" y="0" flags="0x204"/>
      <component glyphName="uni0308.cap" x="315" y="0" flags="0x4"/>
    </TTGlyph>
    <TTGlyph name="Udieresis.sc" xMin="98" yMin="-12" xMax="466" yMax="673">
      <component glyphName="U.sc" x="0" y="0" flags="0x204"/>
      <component glyphName="uni0308.cap" x="282" y="-119" flags="0x4"/>
    </TTGlyph>
    <TTGlyph name="Ugrave" xMin="98" yMin="-12" xMax="532" yMax="814">
      <component glyphName="U" x="0" y="0" flags="0x204"/>
      <component glyphName="uni0300.cap" x="315" y="0" flags="0x4"/>
    </TTGlyph>
    <TTGlyph name="Ugrave.sc" xMin="98" yMin="-12" xMax="466" yMax="695">
      <component glyphName="U.sc" x="0" y="0" flags="0x204"/>
      <component glyphName="uni0300.cap" x="282" y="-119" flags="0x4"/>
    </TTGlyph>
    <TTGlyph name="Uhorn" xMin="98" yMin="-12" xMax="630" yMax="784">
      <contour>
        <pt x="612" y="784" on="1"/>
        <pt x="630" y="757" on="0"/>
        <pt x="630" y="732" on="1"/>
        <pt x="630" y="709" on="0"/>
        <pt x="613" y="678" on="0"/>
        <pt x="586" y="656" on="0"/>
        <pt x="551" y="642" on="0"/>
        <pt x="532" y="638" on="1"/>
        <pt x="532" y="246" on="1"/>
        <pt x="532" y="169" on="0"/>
        <pt x="494" y="70" on="0"/>
        <pt x="432" y="11" on="0"/>
        <pt x="354" y="-12" on="0"/>
        <pt x="314" y="-12" on="1"/>
        <pt x="274" y="-12" on="0"/>
        <pt x="197" y="11" on="0"/>
        <pt x="136" y="70" on="0"/>
        <pt x="98" y="169" on="0"/>
        <pt x="98" y="246" on="1"/>
        <pt x="98" y="660" on="1"/>
        <pt x="130" y="660" on="1"/>
        <pt x="130" y="254" on="1"/>
        <pt x="130" y="186" on="0"/>
        <pt x="160" y="95" on="0"/>
        <pt x="211" y="41" on="0"/>
        <pt x="278" y="18" on="0"/>
        <pt x="314" y="18" on="1"/>
        <pt x="351" y="18" on="0"/>
        <pt x="419" y="41" on="0"/>
        <pt x="471" y="95" on="0"/>
        <pt x="502" y="186" on="0"/>
        <pt x="502" y="254" on="1"/>
        <pt x="502" y="660" on="1"/>
        <pt x="504" y="660" on="1"/>
        <pt x="555" y="666" on="0"/>
        <pt x="600" y="700" on="0"/>
        <pt x="600" y="730" on="1"/>
        <pt x="600" y="748" on="0"/>
        <pt x="586" y="768" on="1"/>
      </contour>
    </TTGlyph>
    <TTGlyph name="Uhorn.sc" xMin="98" yMin="-12" xMax="564" yMax="634">
      <contour>
        <pt x="546" y="634" on="1"/>
        <pt x="564" y="607" on="0"/>
        <pt x="564" y="582" on="1"/>
        <pt x="564" y="559" on="0"/>
        <pt x="547" y="528" on="0"/>
        <pt x="520" y="506" on="0"/>
        <pt x="485" y="492" on="0"/>
        <pt x="466" y="488" on="1"/>
        <pt x="466" y="192" on="1"/>
        <pt x="466" y="132" on="0"/>
        <pt x="434" y="53" on="0"/>
        <pt x="382" y="7" on="0"/>
        <pt x="316" y="-12" on="0"/>
        <pt x="282" y="-12" on="1"/>
        <pt x="247" y="-12" on="0"/>
        <pt x="181" y="7" on="0"/>
        <pt x="130" y="53" on="0"/>
        <pt x="98" y="132" on="0"/>
        <pt x="98" y="192" on="1"/>
        <pt x="98" y="510" on="1"/>
        <pt x="130" y="510" on="1"/>
        <pt x="130" y="198" on="1"/>
        <pt x="130" y="145" on="0"/>
        <pt x="155" y="76" on="0"/>
        <pt x="197" y="35" on="0"/>
        <pt x="252" y="18" on="0"/>
        <pt x="282" y="18" on="1"/>
        <pt x="312" y="18" on="0"/>
        <pt x="368" y="35" on="0"/>
        <pt x="411" y="76" on="0"/>
        <pt x="436" y="145" on="0"/>
        <pt x="436" y="198" on="1"/>
        <pt x="436" y="510" on="1"/>
        <pt x="438" y="510" on="1"/>
        <pt x="488" y="516" on="0"/>
        <pt x="534" y="550" on="0"/>
        <pt x="534" y="580" on="1"/>
        <pt x="534" y="598" on="0"/>
        <pt x="520" y="618" on="1"/>
      </contour>
    </TTGlyph>
    <TTGlyph name="Uhungarumlaut" xMin="98" yMin="-12" xMax="532" yMax="814">
      <component glyphName="U" x="0" y="0" flags="0x204"/>
      <component glyphName="uni030B.cap" x="315" y="0" flags="0x4"/>
    </TTGlyph>
    <TTGlyph name="Uhungarumlaut.sc" xMin="98" yMin="-12" xMax="466" yMax="695">
      <component glyphName="U.sc" x="0" y="0" flags="0x204"/>
      <component glyphName="uni030B.cap" x="282" y="-119" flags="0x4"/>
    </TTGlyph>
    <TTGlyph name="Umacron" xMin="98" yMin="-12" xMax="532" yMax="764">
      <component glyphName="U" x="0" y="0" flags="0x204"/>
      <component glyphName="uni0304.cap" x="315" y="0" flags="0x4"/>
    </TTGlyph>
    <TTGlyph name="Umacron.sc" xMin="98" yMin="-12" xMax="466" yMax="645">
      <component glyphName="U.sc" x="0" y="0" flags="0x204"/>
      <component glyphName="uni0304.cap" x="282" y="-119" flags="0x4"/>
    </TTGlyph>
    <TTGlyph name="Uogonek" xMin="98" yMin="-202" xMax="532" yMax="660">
      <contour>
        <pt x="98" y="660" on="1"/>
        <pt x="130" y="660" on="1"/>
        <pt x="130" y="254" on="1"/>
        <pt x="130" y="186" on="0"/>
        <pt x="160" y="95" on="0"/>
        <pt x="211" y="41" on="0"/>
        <pt x="278" y="18" on="0"/>
        <pt x="314" y="18" on="1"/>
        <pt x="351" y="18" on="0"/>
        <pt x="419" y="41" on="0"/>
        <pt x="471" y="95" on="0"/>
        <pt x="502" y="186" on="0"/>
        <pt x="502" y="254" on="1"/>
        <pt x="502" y="660" on="1"/>
        <pt x="532" y="660" on="1"/>
        <pt x="532" y="246" on="1"/>
        <pt x="532" y="182" on="0"/>
        <pt x="506" y="98" on="0"/>
        <pt x="463" y="41" on="0"/>
        <pt x="408" y="6" on="0"/>
        <pt x="380" y="-8" on="1"/>
        <pt x="339" y="-29" on="0"/>
        <pt x="294" y="-93" on="0"/>
        <pt x="294" y="-120" on="1"/>
        <pt x="294" y="-147" on="0"/>
        <pt x="326" y="-174" on="0"/>
        <pt x="346" y="-174" on="1"/>
        <pt x="360" y="-174" on="0"/>
        <pt x="379" y="-168" on="0"/>
        <pt x="390" y="-160" on="1"/>
        <pt x="404" y="-180" on="1"/>
        <pt x="393" y="-189" on="0"/>
        <pt x="359" y="-202" on="0"/>
        <pt x="344" y="-202" on="1"/>
        <pt x="311" y="-202" on="0"/>
        <pt x="264" y="-163" on="0"/>
        <pt x="264" y="-122" on="1"/>
        <pt x="264" y="-85" on="0"/>
        <pt x="304" y="-36" on="0"/>
        <pt x="328" y="-12" on="1"/>
        <pt x="281" y="-13" on="0"/>
        <pt x="197" y="11" on="0"/>
        <pt x="134" y="71" on="0"/>
        <pt x="98" y="171" on="0"/>
        <pt x="98" y="246" on="1"/>
      </contour>
    </TTGlyph>
    <TTGlyph name="Uogonek.sc" xMin="98" yMin="-202" xMax="466" yMax="510">
      <contour>
        <pt x="466" y="192" on="1"/>
        <pt x="466" y="142" on="0"/>
        <pt x="445" y="75" on="0"/>
        <pt x="412" y="31" on="0"/>
        <pt x="371" y="3" on="0"/>
        <pt x="350" y="-8" on="1"/>
        <pt x="309" y="-29" on="0"/>
        <pt x="264" y="-93" on="0"/>
        <pt x="264" y="-120" on="1"/>
        <pt x="264" y="-147" on="0"/>
        <pt x="296" y="-174" on="0"/>
        <pt x="316" y="-174" on="1"/>
        <pt x="330" y="-174" on="0"/>
        <pt x="349" y="-168" on="0"/>
        <pt x="360" y="-160" on="1"/>
        <pt x="374" y="-180" on="1"/>
        <pt x="363" y="-189" on="0"/>
        <pt x="329" y="-202" on="0"/>
        <pt x="314" y="-202" on="1"/>
        <pt x="281" y="-202" on="0"/>
        <pt x="234" y="-163" on="0"/>
        <pt x="234" y="-122" on="1"/>
        <pt x="234" y="-85" on="0"/>
        <pt x="274" y="-36" on="0"/>
        <pt x="298" y="-12" on="1"/>
        <pt x="257" y="-13" on="0"/>
        <pt x="184" y="6" on="0"/>
        <pt x="130" y="53" on="0"/>
        <pt x="98" y="132" on="0"/>
        <pt x="98" y="192" on="1"/>
        <pt x="98" y="510" on="1"/>
        <pt x="130" y="510" on="1"/>
        <pt x="130" y="198" on="1"/>
        <pt x="130" y="145" on="0"/>
        <pt x="155" y="76" on="0"/>
        <pt x="197" y="35" on="0"/>
        <pt x="252" y="18" on="0"/>
        <pt x="282" y="18" on="1"/>
        <pt x="312" y="18" on="0"/>
        <pt x="368" y="35" on="0"/>
        <pt x="411" y="76" on="0"/>
        <pt x="436" y="145" on="0"/>
        <pt x="436" y="198" on="1"/>
        <pt x="436" y="510" on="1"/>
        <pt x="466" y="510" on="1"/>
      </contour>
    </TTGlyph>
    <TTGlyph name="Uring" xMin="98" yMin="-12" xMax="532" yMax="860">
      <component glyphName="U" x="0" y="0" flags="0x204"/>
      <component glyphName="uni030A.cap" x="315" y="0" flags="0x4"/>
    </TTGlyph>
    <TTGlyph name="Uring.sc" xMin="98" yMin="-12" xMax="466" yMax="741">
      <component glyphName="U.sc" x="0" y="0" flags="0x204"/>
      <component glyphName="uni030A.cap" x="282" y="-119" flags="0x4"/>
    </TTGlyph>
    <TTGlyph name="Utilde" xMin="98" yMin="-12" xMax="532" yMax="804">
      <component glyphName="U" x="0" y="0" flags="0x204"/>
      <component glyphName="uni0303.cap" x="315" y="0" flags="0x4"/>
    </TTGlyph>
    <TTGlyph name="Utilde.sc" xMin="98" yMin="-12" xMax="466" yMax="685">
      <component glyphName="U.sc" x="0" y="0" flags="0x204"/>
      <component glyphName="uni0303.cap" x="282" y="-119" flags="0x4"/>
    </TTGlyph>
    <TTGlyph name="V" xMin="6" yMin="0" xMax="476" yMax="660">
      <contour>
        <pt x="6" y="660" on="1"/>
        <pt x="40" y="660" on="1"/>
        <pt x="168" y="264" on="1"/>
        <pt x="178" y="233" on="0"/>
        <pt x="195" y="179" on="0"/>
        <pt x="212" y="126" on="0"/>
        <pt x="229" y="71" on="0"/>
        <pt x="240" y="41" on="1"/>
        <pt x="244" y="41" on="1"/>
        <pt x="254" y="71" on="0"/>
        <pt x="272" y="126" on="0"/>
        <pt x="289" y="179" on="0"/>
        <pt x="306" y="233" on="0"/>
        <pt x="316" y="264" on="1"/>
        <pt x="444" y="660" on="1"/>
        <pt x="476" y="660" on="1"/>
        <pt x="258" y="0" on="1"/>
        <pt x="226" y="0" on="1"/>
      </contour>
    </TTGlyph>
    <TTGlyph name="V.sc" xMin="6" yMin="0" xMax="405" yMax="510">
      <contour>
        <pt x="6" y="510" on="1"/>
        <pt x="40" y="510" on="1"/>
        <pt x="145" y="211" on="1"/>
        <pt x="161" y="164" on="0"/>
        <pt x="189" y="85" on="0"/>
        <pt x="206" y="39" on="1"/>
        <pt x="210" y="39" on="1"/>
        <pt x="226" y="85" on="0"/>
        <pt x="252" y="164" on="0"/>
        <pt x="269" y="211" on="1"/>
        <pt x="373" y="510" on="1"/>
        <pt x="405" y="510" on="1"/>
        <pt x="223" y="0" on="1"/>
        <pt x="191" y="0" on="1"/>
      </contour>
    </TTGlyph>
    <TTGlyph name="V.sups" xMin="1" yMin="270" xMax="320" yMax="702">
      <contour>
        <pt x="1" y="702" on="1"/>
        <pt x="32" y="702" on="1"/>
        <pt x="114" y="450" on="1"/>
        <pt x="127" y="410" on="0"/>
        <pt x="147" y="344" on="0"/>
        <pt x="161" y="305" on="1"/>
        <pt x="164" y="305" on="1"/>
        <pt x="178" y="344" on="0"/>
        <pt x="196" y="410" on="0"/>
        <pt x="209" y="450" on="1"/>
        <pt x="290" y="702" on="1"/>
        <pt x="320" y="702" on="1"/>
        <pt x="177" y="270" on="1"/>
        <pt x="146" y="270" on="1"/>
      </contour>
    </TTGlyph>
    <TTGlyph name="W" xMin="30" yMin="0" xMax="732" yMax="660">
      <contour>
        <pt x="30" y="660" on="1"/>
        <pt x="64" y="660" on="1"/>
        <pt x="152" y="260" on="1"/>
        <pt x="200" y="44" on="1"/>
        <pt x="204" y="44" on="1"/>
        <pt x="216" y="98" on="0"/>
        <pt x="242" y="206" on="0"/>
        <pt x="256" y="260" on="1"/>
        <pt x="364" y="660" on="1"/>
        <pt x="400" y="660" on="1"/>
        <pt x="508" y="260" on="1"/>
        <pt x="562" y="44" on="1"/>
        <pt x="566" y="44" on="1"/>
        <pt x="578" y="98" on="0"/>
        <pt x="600" y="206" on="0"/>
        <pt x="612" y="260" on="1"/>
        <pt x="700" y="660" on="1"/>
        <pt x="732" y="660" on="1"/>
        <pt x="580" y="0" on="1"/>
        <pt x="548" y="0" on="1"/>
        <pt x="420" y="474" on="1"/>
        <pt x="411" y="513" on="0"/>
        <pt x="393" y="583" on="0"/>
        <pt x="384" y="622" on="1"/>
        <pt x="380" y="622" on="1"/>
        <pt x="371" y="583" on="0"/>
        <pt x="351" y="513" on="0"/>
        <pt x="342" y="474" on="1"/>
        <pt x="216" y="0" on="1"/>
        <pt x="184" y="0" on="1"/>
      </contour>
    </TTGlyph>
    <TTGlyph name="W.sc" xMin="30" yMin="0" xMax="625" yMax="510">
      <contour>
        <pt x="30" y="510" on="1"/>
        <pt x="63" y="510" on="1"/>
        <pt x="135" y="208" on="1"/>
        <pt x="145" y="166" on="0"/>
        <pt x="165" y="83" on="0"/>
        <pt x="175" y="41" on="1"/>
        <pt x="178" y="41" on="1"/>
        <pt x="189" y="83" on="0"/>
        <pt x="212" y="166" on="0"/>
        <pt x="223" y="208" on="1"/>
        <pt x="312" y="510" on="1"/>
        <pt x="346" y="510" on="1"/>
        <pt x="434" y="208" on="1"/>
        <pt x="445" y="166" on="0"/>
        <pt x="468" y="83" on="0"/>
        <pt x="480" y="41" on="1"/>
        <pt x="484" y="41" on="1"/>
        <pt x="494" y="83" on="0"/>
        <pt x="511" y="166" on="0"/>
        <pt x="522" y="208" on="1"/>
        <pt x="594" y="510" on="1"/>
        <pt x="625" y="510" on="1"/>
        <pt x="498" y="0" on="1"/>
        <pt x="466" y="0" on="1"/>
        <pt x="360" y="356" on="1"/>
        <pt x="352" y="387" on="0"/>
        <pt x="338" y="441" on="0"/>
        <pt x="330" y="471" on="1"/>
        <pt x="326" y="471" on="1"/>
        <pt x="318" y="441" on="0"/>
        <pt x="303" y="387" on="0"/>
        <pt x="295" y="356" on="1"/>
        <pt x="191" y="0" on="1"/>
        <pt x="158" y="0" on="1"/>
      </contour>
    </TTGlyph>
    <TTGlyph name="W.sups" xMin="17" yMin="270" xMax="490" yMax="702">
      <contour>
        <pt x="17" y="702" on="1"/>
        <pt x="48" y="702" on="1"/>
        <pt x="104" y="448" on="1"/>
        <pt x="112" y="412" on="0"/>
        <pt x="126" y="342" on="0"/>
        <pt x="133" y="307" on="1"/>
        <pt x="136" y="307" on="1"/>
        <pt x="144" y="342" on="0"/>
        <pt x="160" y="412" on="0"/>
        <pt x="170" y="448" on="1"/>
        <pt x="239" y="702" on="1"/>
        <pt x="269" y="702" on="1"/>
        <pt x="338" y="448" on="1"/>
        <pt x="348" y="412" on="0"/>
        <pt x="364" y="342" on="0"/>
        <pt x="373" y="307" on="1"/>
        <pt x="376" y="307" on="1"/>
        <pt x="384" y="342" on="0"/>
        <pt x="397" y="412" on="0"/>
        <pt x="405" y="448" on="1"/>
        <pt x="461" y="702" on="1"/>
        <pt x="490" y="702" on="1"/>
        <pt x="390" y="270" on="1"/>
        <pt x="359" y="270" on="1"/>
        <pt x="278" y="568" on="1"/>
        <pt x="271" y="593" on="0"/>
        <pt x="261" y="639" on="0"/>
        <pt x="255" y="665" on="1"/>
        <pt x="252" y="665" on="1"/>
        <pt x="246" y="639" on="0"/>
        <pt x="235" y="593" on="0"/>
        <pt x="228" y="568" on="1"/>
        <pt x="149" y="270" on="1"/>
        <pt x="117" y="270" on="1"/>
      </contour>
    </TTGlyph>
    <TTGlyph name="Wacute" xMin="30" yMin="0" xMax="732" yMax="814">
      <component glyphName="W" x="0" y="0" flags="0x204"/>
      <component glyphName="uni0301.cap" x="382" y="0" flags="0x4"/>
    </TTGlyph>
    <TTGlyph name="Wacute.sc" xMin="30" yMin="0" xMax="625" yMax="695">
      <component glyphName="W.sc" x="0" y="0" flags="0x204"/>
      <component glyphName="uni0301.cap" x="328" y="-119" flags="0x4"/>
    </TTGlyph>
    <TTGlyph name="Wcircumflex" xMin="30" yMin="0" xMax="732" yMax="814">
      <component glyphName="W" x="0" y="0" flags="0x204"/>
      <component glyphName="uni0302.cap" x="382" y="0" flags="0x4"/>
    </TTGlyph>
    <TTGlyph name="Wcircumflex.sc" xMin="30" yMin="0" xMax="625" yMax="695">
      <component glyphName="W.sc" x="0" y="0" flags="0x204"/>
      <component glyphName="uni0302.cap" x="328" y="-119" flags="0x4"/>
    </TTGlyph>
    <TTGlyph name="Wdieresis" xMin="30" yMin="0" xMax="732" yMax="792">
      <component glyphName="W" x="0" y="0" flags="0x204"/>
      <component glyphName="uni0308.cap" x="382" y="0" flags="0x4"/>
    </TTGlyph>
    <TTGlyph name="Wdieresis.sc" xMin="30" yMin="0" xMax="625" yMax="673">
      <component glyphName="W.sc" x="0" y="0" flags="0x204"/>
      <component glyphName="uni0308.cap" x="328" y="-119" flags="0x4"/>
    </TTGlyph>
    <TTGlyph name="Wgrave" xMin="30" yMin="0" xMax="732" yMax="814">
      <component glyphName="W" x="0" y="0" flags="0x204"/>
      <component glyphName="uni0300.cap" x="382" y="0" flags="0x4"/>
    </TTGlyph>
    <TTGlyph name="Wgrave.sc" xMin="30" yMin="0" xMax="625" yMax="695">
      <component glyphName="W.sc" x="0" y="0" flags="0x204"/>
      <component glyphName="uni0300.cap" x="328" y="-119" flags="0x4"/>
    </TTGlyph>
    <TTGlyph name="X" xMin="18" yMin="0" xMax="452" yMax="660">
      <contour>
        <pt x="218" y="342" on="1"/>
        <pt x="32" y="660" on="1"/>
        <pt x="66" y="660" on="1"/>
        <pt x="182" y="456" on="1"/>
        <pt x="196" y="433" on="0"/>
        <pt x="219" y="395" on="0"/>
        <pt x="236" y="368" on="1"/>
        <pt x="240" y="368" on="1"/>
        <pt x="255" y="395" on="0"/>
        <pt x="276" y="433" on="0"/>
        <pt x="290" y="456" on="1"/>
        <pt x="406" y="660" on="1"/>
        <pt x="438" y="660" on="1"/>
        <pt x="252" y="340" on="1"/>
        <pt x="452" y="0" on="1"/>
        <pt x="418" y="0" on="1"/>
        <pt x="296" y="212" on="1"/>
        <pt x="282" y="236" on="0"/>
        <pt x="252" y="286" on="0"/>
        <pt x="234" y="316" on="1"/>
        <pt x="230" y="316" on="1"/>
        <pt x="213" y="286" on="0"/>
        <pt x="186" y="236" on="0"/>
        <pt x="172" y="212" on="1"/>
        <pt x="50" y="0" on="1"/>
        <pt x="18" y="0" on="1"/>
      </contour>
    </TTGlyph>
    <TTGlyph name="X.sc" xMin="18" yMin="0" xMax="390" yMax="510">
      <contour>
        <pt x="186" y="264" on="1"/>
        <pt x="30" y="510" on="1"/>
        <pt x="64" y="510" on="1"/>
        <pt x="160" y="357" on="1"/>
        <pt x="171" y="340" on="0"/>
        <pt x="190" y="309" on="0"/>
        <pt x="204" y="288" on="1"/>
        <pt x="208" y="288" on="1"/>
        <pt x="220" y="309" on="0"/>
        <pt x="239" y="340" on="0"/>
        <pt x="250" y="357" on="1"/>
        <pt x="344" y="510" on="1"/>
        <pt x="378" y="510" on="1"/>
        <pt x="222" y="262" on="1"/>
        <pt x="390" y="0" on="1"/>
        <pt x="355" y="0" on="1"/>
        <pt x="255" y="159" on="1"/>
        <pt x="243" y="178" on="0"/>
        <pt x="219" y="216" on="0"/>
        <pt x="204" y="239" on="1"/>
        <pt x="200" y="239" on="1"/>
        <pt x="186" y="216" on="0"/>
        <pt x="162" y="178" on="0"/>
        <pt x="151" y="159" on="1"/>
        <pt x="51" y="0" on="1"/>
        <pt x="18" y="0" on="1"/>
      </contour>
    </TTGlyph>
    <TTGlyph name="X.sups" xMin="9" yMin="270" xMax="305" yMax="702">
      <contour>
        <pt x="141" y="494" on="1"/>
        <pt x="18" y="702" on="1"/>
        <pt x="50" y="702" on="1"/>
        <pt x="122" y="574" on="1"/>
        <pt x="131" y="559" on="0"/>
        <pt x="146" y="533" on="0"/>
        <pt x="157" y="516" on="1"/>
        <pt x="160" y="516" on="1"/>
        <pt x="170" y="533" on="0"/>
        <pt x="185" y="559" on="0"/>
        <pt x="193" y="574" on="1"/>
        <pt x="266" y="702" on="1"/>
        <pt x="296" y="702" on="1"/>
        <pt x="173" y="493" on="1"/>
        <pt x="305" y="270" on="1"/>
        <pt x="274" y="270" on="1"/>
        <pt x="198" y="404" on="1"/>
        <pt x="189" y="420" on="0"/>
        <pt x="169" y="452" on="0"/>
        <pt x="157" y="472" on="1"/>
        <pt x="154" y="472" on="1"/>
        <pt x="143" y="452" on="0"/>
        <pt x="125" y="420" on="0"/>
        <pt x="116" y="404" on="1"/>
        <pt x="39" y="270" on="1"/>
        <pt x="9" y="270" on="1"/>
      </contour>
    </TTGlyph>
    <TTGlyph name="Y" xMin="4" yMin="0" xMax="432" yMax="660">
      <contour>
        <pt x="202" y="272" on="1"/>
        <pt x="4" y="660" on="1"/>
        <pt x="38" y="660" on="1"/>
        <pt x="144" y="446" on="1"/>
        <pt x="162" y="410" on="0"/>
        <pt x="196" y="340" on="0"/>
        <pt x="216" y="304" on="1"/>
        <pt x="220" y="304" on="1"/>
        <pt x="240" y="340" on="0"/>
        <pt x="277" y="410" on="0"/>
        <pt x="294" y="446" on="1"/>
        <pt x="400" y="660" on="1"/>
        <pt x="432" y="660" on="1"/>
        <pt x="234" y="272" on="1"/>
        <pt x="234" y="0" on="1"/>
        <pt x="202" y="0" on="1"/>
      </contour>
    </TTGlyph>
    <TTGlyph name="Y.sc" xMin="4" yMin="0" xMax="369" yMax="510">
      <contour>
        <pt x="170" y="208" on="1"/>
        <pt x="4" y="510" on="1"/>
        <pt x="38" y="510" on="1"/>
        <pt x="124" y="349" on="1"/>
        <pt x="139" y="321" on="0"/>
        <pt x="169" y="268" on="0"/>
        <pt x="186" y="240" on="1"/>
        <pt x="190" y="240" on="1"/>
        <pt x="206" y="268" on="0"/>
        <pt x="236" y="321" on="0"/>
        <pt x="250" y="349" on="1"/>
        <pt x="336" y="510" on="1"/>
        <pt x="369" y="510" on="1"/>
        <pt x="202" y="208" on="1"/>
        <pt x="202" y="0" on="1"/>
        <pt x="170" y="0" on="1"/>
      </contour>
    </TTGlyph>
    <TTGlyph name="Y.sups" xMin="-1" yMin="270" xMax="292" yMax="702">
      <contour>
        <pt x="131" y="446" on="1"/>
        <pt x="-1" y="702" on="1"/>
        <pt x="30" y="702" on="1"/>
        <pt x="98" y="566" on="1"/>
        <pt x="109" y="542" on="0"/>
        <pt x="132" y="497" on="0"/>
        <pt x="145" y="473" on="1"/>
        <pt x="148" y="473" on="1"/>
        <pt x="161" y="497" on="0"/>
        <pt x="184" y="542" on="0"/>
        <pt x="195" y="566" on="1"/>
        <pt x="262" y="702" on="1"/>
        <pt x="292" y="702" on="1"/>
        <pt x="160" y="446" on="1"/>
        <pt x="160" y="270" on="1"/>
        <pt x="131" y="270" on="1"/>
      </contour>
    </TTGlyph>
    <TTGlyph name="Yacute" xMin="4" yMin="0" xMax="432" yMax="814">
      <component glyphName="Y" x="0" y="0" flags="0x204"/>
      <component glyphName="uni0301.cap" x="218" y="0" flags="0x4"/>
    </TTGlyph>
    <TTGlyph name="Yacute.sc" xMin="4" yMin="0" xMax="369" yMax="695">
      <component glyphName="Y.sc" x="0" y="0" flags="0x204"/>
      <component glyphName="uni0301.cap" x="189" y="-119" flags="0x4"/>
    </TTGlyph>
    <TTGlyph name="Ycircumflex" xMin="4" yMin="0" xMax="432" yMax="814">
      <component glyphName="Y" x="0" y="0" flags="0x204"/>
      <component glyphName="uni0302.cap" x="218" y="0" flags="0x4"/>
    </TTGlyph>
    <TTGlyph name="Ycircumflex.sc" xMin="4" yMin="0" xMax="369" yMax="695">
      <component glyphName="Y.sc" x="0" y="0" flags="0x204"/>
      <component glyphName="uni0302.cap" x="189" y="-119" flags="0x4"/>
    </TTGlyph>
    <TTGlyph name="Ydieresis" xMin="4" yMin="0" xMax="432" yMax="792">
      <component glyphName="Y" x="0" y="0" flags="0x204"/>
      <component glyphName="uni0308.cap" x="218" y="0" flags="0x4"/>
    </TTGlyph>
    <TTGlyph name="Ydieresis.sc" xMin="4" yMin="0" xMax="369" yMax="673">
      <component glyphName="Y.sc" x="0" y="0" flags="0x204"/>
      <component glyphName="uni0308.cap" x="189" y="-119" flags="0x4"/>
    </TTGlyph>
    <TTGlyph name="Ygrave" xMin="4" yMin="0" xMax="432" yMax="814">
      <component glyphName="Y" x="0" y="0" flags="0x204"/>
      <component glyphName="uni0300.cap" x="218" y="0" flags="0x4"/>
    </TTGlyph>
    <TTGlyph name="Ygrave.sc" xMin="4" yMin="0" xMax="369" yMax="695">
      <component glyphName="Y.sc" x="0" y="0" flags="0x204"/>
      <component glyphName="uni0300.cap" x="189" y="-119" flags="0x4"/>
    </TTGlyph>
    <TTGlyph name="Z" xMin="52" yMin="0" xMax="488" yMax="660">
      <contour>
        <pt x="52" y="18" on="1"/>
        <pt x="444" y="632" on="1"/>
        <pt x="86" y="632" on="1"/>
        <pt x="86" y="660" on="1"/>
        <pt x="484" y="660" on="1"/>
        <pt x="484" y="642" on="1"/>
        <pt x="92" y="28" on="1"/>
        <pt x="488" y="28" on="1"/>
        <pt x="488" y="0" on="1"/>
        <pt x="52" y="0" on="1"/>
      </contour>
    </TTGlyph>
    <TTGlyph name="Z.sc" xMin="52" yMin="0" xMax="421" yMax="510">
      <contour>
        <pt x="52" y="18" on="1"/>
        <pt x="377" y="483" on="1"/>
        <pt x="80" y="483" on="1"/>
        <pt x="80" y="510" on="1"/>
        <pt x="417" y="510" on="1"/>
        <pt x="417" y="492" on="1"/>
        <pt x="92" y="27" on="1"/>
        <pt x="421" y="27" on="1"/>
        <pt x="421" y="0" on="1"/>
        <pt x="52" y="0" on="1"/>
      </contour>
    </TTGlyph>
    <TTGlyph name="Z.sups" xMin="31" yMin="270" xMax="324" yMax="702">
      <contour>
        <pt x="31" y="287" on="1"/>
        <pt x="285" y="677" on="1"/>
        <pt x="53" y="677" on="1"/>
        <pt x="53" y="702" on="1"/>
        <pt x="321" y="702" on="1"/>
        <pt x="321" y="685" on="1"/>
        <pt x="67" y="295" on="1"/>
        <pt x="324" y="295" on="1"/>
        <pt x="324" y="270" on="1"/>
        <pt x="31" y="270" on="1"/>
      </contour>
    </TTGlyph>
    <TTGlyph name="Zacute" xMin="52" yMin="0" xMax="488" yMax="814">
      <component glyphName="Z" x="0" y="0" flags="0x204"/>
      <component glyphName="uni0301.cap" x="279" y="0" flags="0x4"/>
    </TTGlyph>
    <TTGlyph name="Zacute.sc" xMin="52" yMin="0" xMax="421" yMax="695">
      <component glyphName="Z.sc" x="0" y="0" flags="0x204"/>
      <component glyphName="uni0301.cap" x="246" y="-119" flags="0x4"/>
    </TTGlyph>
    <TTGlyph name="Zcaron" xMin="52" yMin="0" xMax="488" yMax="814">
      <component glyphName="Z" x="0" y="0" flags="0x204"/>
      <component glyphName="uni030C.cap" x="279" y="0" flags="0x4"/>
    </TTGlyph>
    <TTGlyph name="Zcaron.sc" xMin="52" yMin="0" xMax="421" yMax="695">
      <component glyphName="Z.sc" x="0" y="0" flags="0x204"/>
      <component glyphName="uni030C.cap" x="246" y="-119" flags="0x4"/>
    </TTGlyph>
    <TTGlyph name="Zdotaccent" xMin="52" yMin="0" xMax="488" yMax="794">
      <component glyphName="Z" x="0" y="0" flags="0x204"/>
      <component glyphName="uni0307.cap" x="279" y="0" flags="0x4"/>
    </TTGlyph>
    <TTGlyph name="Zdotaccent.sc" xMin="52" yMin="0" xMax="421" yMax="675">
      <component glyphName="Z.sc" x="0" y="0" flags="0x204"/>
      <component glyphName="uni0307.cap" x="246" y="-119" flags="0x4"/>
    </TTGlyph>
    <TTGlyph name="a" xMin="68" yMin="-12" xMax="412" yMax="490">
      <contour>
        <pt x="68" y="117" on="1"/>
        <pt x="68" y="197" on="0"/>
        <pt x="220" y="280" on="0"/>
        <pt x="382" y="298" on="1"/>
        <pt x="383" y="327" on="0"/>
        <pt x="374" y="386" on="0"/>
        <pt x="348" y="433" on="0"/>
        <pt x="301" y="462" on="0"/>
        <pt x="264" y="462" on="1"/>
        <pt x="238" y="462" on="0"/>
        <pt x="192" y="451" on="0"/>
        <pt x="152" y="433" on="0"/>
        <pt x="119" y="413" on="0"/>
        <pt x="108" y="404" on="1"/>
        <pt x="92" y="428" on="1"/>
        <pt x="103" y="436" on="0"/>
        <pt x="138" y="458" on="0"/>
        <pt x="183" y="477" on="0"/>
        <pt x="237" y="490" on="0"/>
        <pt x="266" y="490" on="1"/>
        <pt x="308" y="490" on="0"/>
        <pt x="364" y="461" on="0"/>
        <pt x="398" y="411" on="0"/>
        <pt x="412" y="346" on="0"/>
        <pt x="412" y="310" on="1"/>
        <pt x="412" y="0" on="1"/>
        <pt x="386" y="0" on="1"/>
        <pt x="382" y="64" on="1"/>
        <pt x="380" y="64" on="1"/>
        <pt x="342" y="34" on="0"/>
        <pt x="254" y="-12" on="0"/>
        <pt x="206" y="-12" on="1"/>
        <pt x="178" y="-12" on="0"/>
        <pt x="128" y="3" on="0"/>
        <pt x="90" y="34" on="0"/>
        <pt x="68" y="83" on="0"/>
      </contour>
      <contour>
        <pt x="100" y="118" on="1"/>
        <pt x="100" y="90" on="0"/>
        <pt x="117" y="51" on="0"/>
        <pt x="147" y="27" on="0"/>
        <pt x="186" y="16" on="0"/>
        <pt x="208" y="16" on="1"/>
        <pt x="252" y="16" on="0"/>
        <pt x="334" y="57" on="0"/>
        <pt x="382" y="98" on="1"/>
        <pt x="382" y="272" on="1"/>
        <pt x="303" y="263" on="0"/>
        <pt x="195" y="236" on="0"/>
        <pt x="129" y="198" on="0"/>
        <pt x="100" y="149" on="0"/>
      </contour>
    </TTGlyph>
    <TTGlyph name="a.a" xMin="54" yMin="-12" xMax="444" yMax="490">
      <component glyphName="uni0251" x="0" y="0" flags="0x204"/>
    </TTGlyph>
    <TTGlyph name="a.supa" xMin="38" yMin="262" xMax="304" yMax="594">
      <contour>
        <pt x="68" y="434" on="1"/>
        <pt x="68" y="368" on="0"/>
        <pt x="121" y="290" on="0"/>
        <pt x="178" y="290" on="1"/>
        <pt x="202" y="290" on="0"/>
        <pt x="249" y="316" on="0"/>
        <pt x="276" y="340" on="1"/>
        <pt x="276" y="526" on="1"/>
        <pt x="250" y="549" on="0"/>
        <pt x="201" y="568" on="0"/>
        <pt x="178" y="568" on="1"/>
        <pt x="155" y="568" on="0"/>
        <pt x="115" y="547" on="0"/>
        <pt x="85" y="511" on="0"/>
        <pt x="68" y="462" on="0"/>
      </contour>
      <contour>
        <pt x="38" y="432" on="1"/>
        <pt x="38" y="469" on="0"/>
        <pt x="61" y="529" on="0"/>
        <pt x="100" y="571" on="0"/>
        <pt x="151" y="594" on="0"/>
        <pt x="180" y="594" on="1"/>
        <pt x="207" y="594" on="0"/>
        <pt x="253" y="574" on="0"/>
        <pt x="274" y="556" on="1"/>
        <pt x="278" y="556" on="1"/>
        <pt x="282" y="586" on="1"/>
        <pt x="304" y="586" on="1"/>
        <pt x="304" y="270" on="1"/>
        <pt x="280" y="270" on="1"/>
        <pt x="276" y="308" on="1"/>
        <pt x="272" y="308" on="1"/>
        <pt x="251" y="290" on="0"/>
        <pt x="206" y="262" on="0"/>
        <pt x="176" y="262" on="1"/>
        <pt x="111" y="262" on="0"/>
        <pt x="38" y="351" on="0"/>
      </contour>
    </TTGlyph>
    <TTGlyph name="a.sups" xMin="44" yMin="262" xMax="280" yMax="594">
      <contour>
        <pt x="140" y="262" on="1"/>
        <pt x="98" y="262" on="0"/>
        <pt x="44" y="308" on="0"/>
        <pt x="44" y="352" on="1"/>
        <pt x="44" y="404" on="0"/>
        <pt x="144" y="459" on="0"/>
        <pt x="252" y="470" on="1"/>
        <pt x="252" y="490" on="0"/>
        <pt x="246" y="526" on="0"/>
        <pt x="230" y="553" on="0"/>
        <pt x="202" y="568" on="0"/>
        <pt x="180" y="568" on="1"/>
        <pt x="148" y="568" on="0"/>
        <pt x="87" y="542" on="0"/>
        <pt x="70" y="530" on="1"/>
        <pt x="58" y="552" on="1"/>
        <pt x="76" y="564" on="0"/>
        <pt x="143" y="594" on="0"/>
        <pt x="182" y="594" on="1"/>
        <pt x="239" y="594" on="0"/>
        <pt x="280" y="526" on="0"/>
        <pt x="280" y="472" on="1"/>
        <pt x="280" y="270" on="1"/>
        <pt x="258" y="270" on="1"/>
        <pt x="252" y="310" on="1"/>
        <pt x="248" y="310" on="1"/>
        <pt x="227" y="292" on="0"/>
        <pt x="173" y="262" on="0"/>
      </contour>
      <contour>
        <pt x="146" y="288" on="1"/>
        <pt x="170" y="288" on="0"/>
        <pt x="223" y="313" on="0"/>
        <pt x="252" y="340" on="1"/>
        <pt x="252" y="448" on="1"/>
        <pt x="153" y="437" on="0"/>
        <pt x="74" y="390" on="0"/>
        <pt x="74" y="354" on="1"/>
        <pt x="74" y="319" on="0"/>
        <pt x="113" y="288" on="0"/>
      </contour>
    </TTGlyph>
    <TTGlyph name="aacute" xMin="68" yMin="-12" xMax="412" yMax="706">
      <component glyphName="a" x="0" y="0" flags="0x204"/>
      <component glyphName="uni0301" x="260" y="0" flags="0x4"/>
    </TTGlyph>
    <TTGlyph name="aacute.a" xMin="54" yMin="-12" xMax="444" yMax="706">
      <component glyphName="uni0251" x="0" y="0" flags="0x204"/>
      <component glyphName="uni0301" x="269" y="0" flags="0x4"/>
    </TTGlyph>
    <TTGlyph name="abreve" xMin="68" yMin="-12" xMax="412" yMax="692">
      <component glyphName="a" x="0" y="0" flags="0x204"/>
      <component glyphName="uni0306" x="260" y="0" flags="0x4"/>
    </TTGlyph>
    <TTGlyph name="abreve.a" xMin="54" yMin="-12" xMax="444" yMax="692">
      <component glyphName="uni0251" x="0" y="0" flags="0x204"/>
      <component glyphName="uni0306" x="269" y="0" flags="0x4"/>
    </TTGlyph>
    <TTGlyph name="acircumflex" xMin="68" yMin="-12" xMax="412" yMax="706">
      <component glyphName="a" x="0" y="0" flags="0x204"/>
      <component glyphName="uni0302" x="260" y="0" flags="0x4"/>
    </TTGlyph>
    <TTGlyph name="acircumflex.a" xMin="54" yMin="-12" xMax="444" yMax="706">
      <component glyphName="uni0251" x="0" y="0" flags="0x204"/>
      <component glyphName="uni0302" x="269" y="0" flags="0x4"/>
    </TTGlyph>
    <TTGlyph name="acute" xMin="214" yMin="572" xMax="346" yMax="706">
      <component glyphName="uni0301" x="266" y="0" flags="0x4"/>
    </TTGlyph>
    <TTGlyph name="adieresis" xMin="68" yMin="-12" xMax="412" yMax="666">
      <component glyphName="a" x="0" y="0" flags="0x204"/>
      <component glyphName="uni0308" x="260" y="0" flags="0x4"/>
    </TTGlyph>
    <TTGlyph name="adieresis.a" xMin="54" yMin="-12" xMax="444" yMax="666">
      <component glyphName="uni0251" x="0" y="0" flags="0x204"/>
      <component glyphName="uni0308" x="269" y="0" flags="0x4"/>
    </TTGlyph>
    <TTGlyph name="ae" xMin="68" yMin="-12" xMax="746" yMax="490">
      <contour>
        <pt x="100" y="118" on="1"/>
        <pt x="100" y="90" on="0"/>
        <pt x="117" y="51" on="0"/>
        <pt x="147" y="27" on="0"/>
        <pt x="186" y="16" on="0"/>
        <pt x="208" y="16" on="1"/>
        <pt x="249" y="16" on="0"/>
        <pt x="354" y="68" on="0"/>
        <pt x="398" y="116" on="1"/>
        <pt x="387" y="139" on="0"/>
        <pt x="376" y="208" on="0"/>
        <pt x="376" y="244" on="1"/>
        <pt x="376" y="272" on="1"/>
        <pt x="301" y="263" on="0"/>
        <pt x="196" y="236" on="0"/>
        <pt x="130" y="198" on="0"/>
        <pt x="100" y="149" on="0"/>
      </contour>
      <contour>
        <pt x="92" y="428" on="1"/>
        <pt x="103" y="436" on="0"/>
        <pt x="138" y="458" on="0"/>
        <pt x="182" y="477" on="0"/>
        <pt x="233" y="490" on="0"/>
        <pt x="260" y="490" on="1"/>
        <pt x="320" y="490" on="0"/>
        <pt x="389" y="421" on="0"/>
        <pt x="400" y="364" on="1"/>
        <pt x="426" y="421" on="0"/>
        <pt x="516" y="490" on="0"/>
        <pt x="570" y="490" on="1"/>
        <pt x="653" y="490" on="0"/>
        <pt x="746" y="377" on="0"/>
        <pt x="746" y="270" on="1"/>
        <pt x="746" y="262" on="0"/>
        <pt x="746" y="247" on="0"/>
        <pt x="744" y="238" on="1"/>
        <pt x="406" y="238" on="1"/>
        <pt x="405" y="190" on="0"/>
        <pt x="432" y="109" on="0"/>
        <pt x="480" y="49" on="0"/>
        <pt x="546" y="16" on="0"/>
        <pt x="584" y="16" on="1"/>
        <pt x="625" y="16" on="0"/>
        <pt x="685" y="40" on="0"/>
        <pt x="712" y="60" on="1"/>
        <pt x="726" y="34" on="1"/>
        <pt x="712" y="26" on="0"/>
        <pt x="684" y="9" on="0"/>
        <pt x="651" y="-4" on="0"/>
        <pt x="609" y="-12" on="0"/>
        <pt x="582" y="-12" on="1"/>
        <pt x="549" y="-12" on="0"/>
        <pt x="497" y="6" on="0"/>
        <pt x="455" y="35" on="0"/>
        <pt x="423" y="71" on="0"/>
        <pt x="410" y="90" on="1"/>
        <pt x="387" y="67" on="0"/>
        <pt x="334" y="29" on="0"/>
        <pt x="280" y="2" on="0"/>
        <pt x="228" y="-12" on="0"/>
        <pt x="206" y="-12" on="1"/>
        <pt x="178" y="-12" on="0"/>
        <pt x="128" y="3" on="0"/>
        <pt x="90" y="34" on="0"/>
        <pt x="68" y="82" on="0"/>
        <pt x="68" y="116" on="1"/>
        <pt x="68" y="197" on="0"/>
        <pt x="220" y="280" on="0"/>
        <pt x="376" y="298" on="1"/>
        <pt x="377" y="327" on="0"/>
        <pt x="368" y="386" on="0"/>
        <pt x="342" y="433" on="0"/>
        <pt x="295" y="462" on="0"/>
        <pt x="258" y="462" on="1"/>
        <pt x="235" y="462" on="0"/>
        <pt x="190" y="451" on="0"/>
        <pt x="151" y="433" on="0"/>
        <pt x="119" y="413" on="0"/>
        <pt x="108" y="404" on="1"/>
      </contour>
      <contour>
        <pt x="716" y="264" on="1"/>
        <pt x="716" y="364" on="0"/>
        <pt x="638" y="462" on="0"/>
        <pt x="570" y="462" on="1"/>
        <pt x="538" y="462" on="0"/>
        <pt x="482" y="433" on="0"/>
        <pt x="438" y="380" on="0"/>
        <pt x="410" y="307" on="0"/>
        <pt x="406" y="264" on="1"/>
      </contour>
    </TTGlyph>
    <TTGlyph name="agrave" xMin="68" yMin="-12" xMax="412" yMax="706">
      <component glyphName="a" x="0" y="0" flags="0x204"/>
      <component glyphName="uni0300" x="260" y="0" flags="0x4"/>
    </TTGlyph>
    <TTGlyph name="agrave.a" xMin="54" yMin="-12" xMax="444" yMax="706">
      <component glyphName="uni0251" x="0" y="0" flags="0x204"/>
      <component glyphName="uni0300" x="269" y="0" flags="0x4"/>
    </TTGlyph>
    <TTGlyph name="amacron" xMin="68" yMin="-12" xMax="412" yMax="636">
      <component glyphName="a" x="0" y="0" flags="0x204"/>
      <component glyphName="uni0304" x="260" y="0" flags="0x4"/>
    </TTGlyph>
    <TTGlyph name="amacron.a" xMin="54" yMin="-12" xMax="444" yMax="636">
      <component glyphName="uni0251" x="0" y="0" flags="0x204"/>
      <component glyphName="uni0304" x="269" y="0" flags="0x4"/>
    </TTGlyph>
    <TTGlyph name="ampersand" xMin="38" yMin="-12" xMax="550" yMax="672">
      <contour>
        <pt x="226" y="16" on="1"/>
        <pt x="270" y="16" on="0"/>
        <pt x="348" y="59" on="0"/>
        <pt x="380" y="93" on="1"/>
        <pt x="326" y="144" on="0"/>
        <pt x="223" y="270" on="0"/>
        <pt x="187" y="339" on="1"/>
        <pt x="163" y="321" on="0"/>
        <pt x="121" y="283" on="0"/>
        <pt x="89" y="241" on="0"/>
        <pt x="70" y="195" on="0"/>
        <pt x="70" y="168" on="1"/>
        <pt x="70" y="133" on="0"/>
        <pt x="95" y="77" on="0"/>
        <pt x="138" y="38" on="0"/>
        <pt x="194" y="16" on="0"/>
      </contour>
      <contour>
        <pt x="160" y="530" on="1"/>
        <pt x="160" y="495" on="0"/>
        <pt x="181" y="419" on="0"/>
        <pt x="199" y="380" on="1"/>
        <pt x="225" y="399" on="0"/>
        <pt x="274" y="438" on="0"/>
        <pt x="311" y="480" on="0"/>
        <pt x="334" y="527" on="0"/>
        <pt x="334" y="554" on="1"/>
        <pt x="334" y="570" on="0"/>
        <pt x="326" y="603" on="0"/>
        <pt x="308" y="628" on="0"/>
        <pt x="279" y="644" on="0"/>
        <pt x="258" y="644" on="1"/>
        <pt x="235" y="644" on="0"/>
        <pt x="198" y="626" on="0"/>
        <pt x="173" y="595" on="0"/>
        <pt x="160" y="553" on="0"/>
      </contour>
      <contour>
        <pt x="538" y="-12" on="1"/>
        <pt x="508" y="-1" on="0"/>
        <pt x="439" y="42" on="0"/>
        <pt x="401" y="74" on="1"/>
        <pt x="365" y="36" on="0"/>
        <pt x="279" y="-12" on="0"/>
        <pt x="224" y="-12" on="1"/>
        <pt x="186" y="-12" on="0"/>
        <pt x="119" y="13" on="0"/>
        <pt x="68" y="59" on="0"/>
        <pt x="38" y="125" on="0"/>
        <pt x="38" y="166" on="1"/>
        <pt x="38" y="198" on="0"/>
        <pt x="61" y="252" on="0"/>
        <pt x="99" y="300" on="0"/>
        <pt x="149" y="342" on="0"/>
        <pt x="175" y="362" on="1"/>
        <pt x="154" y="405" on="0"/>
        <pt x="130" y="489" on="0"/>
        <pt x="130" y="528" on="1"/>
        <pt x="130" y="559" on="0"/>
        <pt x="149" y="612" on="0"/>
        <pt x="184" y="651" on="0"/>
        <pt x="231" y="672" on="0"/>
        <pt x="260" y="672" on="1"/>
        <pt x="311" y="672" on="0"/>
        <pt x="364" y="606" on="0"/>
        <pt x="364" y="556" on="1"/>
        <pt x="364" y="524" on="0"/>
        <pt x="337" y="471" on="0"/>
        <pt x="294" y="423" on="0"/>
        <pt x="238" y="379" on="0"/>
        <pt x="210" y="357" on="1"/>
        <pt x="245" y="289" on="0"/>
        <pt x="346" y="163" on="0"/>
        <pt x="399" y="115" on="1"/>
        <pt x="437" y="162" on="0"/>
        <pt x="490" y="276" on="0"/>
        <pt x="508" y="342" on="1"/>
        <pt x="538" y="342" on="1"/>
        <pt x="518" y="273" on="0"/>
        <pt x="460" y="148" on="0"/>
        <pt x="420" y="97" on="1"/>
        <pt x="490" y="39" on="0"/>
        <pt x="550" y="16" on="1"/>
      </contour>
    </TTGlyph>
    <TTGlyph name="ampersand.sc" xMin="38" yMin="-12" xMax="472" yMax="522">
      <contour>
        <pt x="70" y="130" on="1"/>
        <pt x="70" y="104" on="0"/>
        <pt x="90" y="62" on="0"/>
        <pt x="125" y="32" on="0"/>
        <pt x="172" y="16" on="0"/>
        <pt x="198" y="16" on="1"/>
        <pt x="233" y="16" on="0"/>
        <pt x="297" y="47" on="0"/>
        <pt x="323" y="71" on="1"/>
        <pt x="278" y="109" on="0"/>
        <pt x="193" y="206" on="0"/>
        <pt x="163" y="257" on="1"/>
        <pt x="125" y="230" on="0"/>
        <pt x="70" y="170" on="0"/>
      </contour>
      <contour>
        <pt x="143" y="406" on="1"/>
        <pt x="143" y="380" on="0"/>
        <pt x="160" y="324" on="0"/>
        <pt x="174" y="295" on="1"/>
        <pt x="195" y="310" on="0"/>
        <pt x="235" y="339" on="0"/>
        <pt x="266" y="370" on="0"/>
        <pt x="284" y="405" on="0"/>
        <pt x="284" y="425" on="1"/>
        <pt x="284" y="450" on="0"/>
        <pt x="258" y="494" on="0"/>
        <pt x="224" y="494" on="1"/>
        <pt x="186" y="494" on="0"/>
        <pt x="143" y="441" on="0"/>
      </contour>
      <contour>
        <pt x="462" y="-12" on="1"/>
        <pt x="436" y="-4" on="0"/>
        <pt x="376" y="29" on="0"/>
        <pt x="344" y="54" on="1"/>
        <pt x="314" y="25" on="0"/>
        <pt x="241" y="-12" on="0"/>
        <pt x="195" y="-12" on="1"/>
        <pt x="163" y="-12" on="0"/>
        <pt x="106" y="8" on="0"/>
        <pt x="63" y="45" on="0"/>
        <pt x="38" y="96" on="0"/>
        <pt x="38" y="128" on="1"/>
        <pt x="38" y="153" on="0"/>
        <pt x="57" y="195" on="0"/>
        <pt x="88" y="232" on="0"/>
        <pt x="129" y="264" on="0"/>
        <pt x="151" y="279" on="1"/>
        <pt x="134" y="312" on="0"/>
        <pt x="115" y="376" on="0"/>
        <pt x="115" y="405" on="1"/>
        <pt x="115" y="429" on="0"/>
        <pt x="131" y="472" on="0"/>
        <pt x="161" y="504" on="0"/>
        <pt x="202" y="522" on="0"/>
        <pt x="226" y="522" on="1"/>
        <pt x="270" y="522" on="0"/>
        <pt x="312" y="465" on="0"/>
        <pt x="312" y="426" on="1"/>
        <pt x="312" y="402" on="0"/>
        <pt x="290" y="360" on="0"/>
        <pt x="254" y="323" on="0"/>
        <pt x="209" y="289" on="0"/>
        <pt x="186" y="273" on="1"/>
        <pt x="215" y="222" on="0"/>
        <pt x="298" y="127" on="0"/>
        <pt x="343" y="91" on="1"/>
        <pt x="375" y="126" on="0"/>
        <pt x="418" y="214" on="0"/>
        <pt x="434" y="264" on="1"/>
        <pt x="462" y="264" on="1"/>
        <pt x="445" y="208" on="0"/>
        <pt x="398" y="113" on="0"/>
        <pt x="364" y="75" on="1"/>
        <pt x="422" y="32" on="0"/>
        <pt x="472" y="15" on="1"/>
      </contour>
    </TTGlyph>
    <TTGlyph name="aogonek" xMin="68" yMin="-202" xMax="434" yMax="490">
      <contour>
        <pt x="100" y="118" on="1"/>
        <pt x="100" y="90" on="0"/>
        <pt x="117" y="51" on="0"/>
        <pt x="147" y="27" on="0"/>
        <pt x="186" y="16" on="0"/>
        <pt x="208" y="16" on="1"/>
        <pt x="252" y="16" on="0"/>
        <pt x="334" y="57" on="0"/>
        <pt x="382" y="98" on="1"/>
        <pt x="382" y="272" on="1"/>
        <pt x="303" y="263" on="0"/>
        <pt x="195" y="236" on="0"/>
        <pt x="129" y="198" on="0"/>
        <pt x="100" y="149" on="0"/>
      </contour>
      <contour>
        <pt x="68" y="116" on="1"/>
        <pt x="68" y="197" on="0"/>
        <pt x="220" y="280" on="0"/>
        <pt x="382" y="298" on="1"/>
        <pt x="383" y="327" on="0"/>
        <pt x="374" y="386" on="0"/>
        <pt x="348" y="433" on="0"/>
        <pt x="301" y="462" on="0"/>
        <pt x="264" y="462" on="1"/>
        <pt x="238" y="462" on="0"/>
        <pt x="192" y="451" on="0"/>
        <pt x="152" y="433" on="0"/>
        <pt x="119" y="413" on="0"/>
        <pt x="108" y="404" on="1"/>
        <pt x="92" y="428" on="1"/>
        <pt x="103" y="436" on="0"/>
        <pt x="138" y="458" on="0"/>
        <pt x="183" y="477" on="0"/>
        <pt x="237" y="490" on="0"/>
        <pt x="266" y="490" on="1"/>
        <pt x="308" y="490" on="0"/>
        <pt x="364" y="461" on="0"/>
        <pt x="398" y="411" on="0"/>
        <pt x="412" y="346" on="0"/>
        <pt x="412" y="310" on="1"/>
        <pt x="412" y="0" on="1"/>
        <pt x="376" y="-20" on="0"/>
        <pt x="326" y="-87" on="0"/>
        <pt x="326" y="-120" on="1"/>
        <pt x="326" y="-147" on="0"/>
        <pt x="356" y="-174" on="0"/>
        <pt x="376" y="-174" on="1"/>
        <pt x="390" y="-174" on="0"/>
        <pt x="409" y="-168" on="0"/>
        <pt x="420" y="-160" on="1"/>
        <pt x="434" y="-180" on="1"/>
        <pt x="423" y="-189" on="0"/>
        <pt x="389" y="-202" on="0"/>
        <pt x="374" y="-202" on="1"/>
        <pt x="341" y="-202" on="0"/>
        <pt x="296" y="-163" on="0"/>
        <pt x="296" y="-122" on="1"/>
        <pt x="296" y="-84" on="0"/>
        <pt x="348" y="-15" on="0"/>
        <pt x="386" y="8" on="1"/>
        <pt x="382" y="64" on="1"/>
        <pt x="380" y="64" on="1"/>
        <pt x="342" y="34" on="0"/>
        <pt x="254" y="-12" on="0"/>
        <pt x="206" y="-12" on="1"/>
        <pt x="178" y="-12" on="0"/>
        <pt x="128" y="3" on="0"/>
        <pt x="90" y="34" on="0"/>
        <pt x="68" y="82" on="0"/>
      </contour>
    </TTGlyph>
    <TTGlyph name="aogonek.a" xMin="54" yMin="-202" xMax="466" yMax="490">
      <contour>
        <pt x="86" y="238" on="1"/>
        <pt x="86" y="188" on="0"/>
        <pt x="108" y="107" on="0"/>
        <pt x="151" y="48" on="0"/>
        <pt x="213" y="16" on="0"/>
        <pt x="254" y="16" on="1"/>
        <pt x="296" y="16" on="0"/>
        <pt x="373" y="59" on="0"/>
        <pt x="414" y="100" on="1"/>
        <pt x="414" y="396" on="1"/>
        <pt x="373" y="432" on="0"/>
        <pt x="304" y="462" on="0"/>
        <pt x="266" y="462" on="1"/>
        <pt x="228" y="462" on="0"/>
        <pt x="162" y="427" on="0"/>
        <pt x="114" y="366" on="0"/>
        <pt x="86" y="284" on="0"/>
      </contour>
      <contour>
        <pt x="54" y="238" on="1"/>
        <pt x="54" y="296" on="0"/>
        <pt x="88" y="389" on="0"/>
        <pt x="147" y="455" on="0"/>
        <pt x="224" y="490" on="0"/>
        <pt x="268" y="490" on="1"/>
        <pt x="312" y="490" on="0"/>
        <pt x="377" y="459" on="0"/>
        <pt x="412" y="432" on="1"/>
        <pt x="414" y="432" on="1"/>
        <pt x="416" y="478" on="1"/>
        <pt x="444" y="478" on="1"/>
        <pt x="444" y="0" on="1"/>
        <pt x="403" y="-27" on="0"/>
        <pt x="358" y="-87" on="0"/>
        <pt x="358" y="-120" on="1"/>
        <pt x="358" y="-147" on="0"/>
        <pt x="388" y="-174" on="0"/>
        <pt x="408" y="-174" on="1"/>
        <pt x="422" y="-174" on="0"/>
        <pt x="441" y="-168" on="0"/>
        <pt x="452" y="-160" on="1"/>
        <pt x="466" y="-180" on="1"/>
        <pt x="455" y="-189" on="0"/>
        <pt x="421" y="-202" on="0"/>
        <pt x="406" y="-202" on="1"/>
        <pt x="373" y="-202" on="0"/>
        <pt x="328" y="-163" on="0"/>
        <pt x="328" y="-122" on="1"/>
        <pt x="328" y="-84" on="0"/>
        <pt x="376" y="-22" on="0"/>
        <pt x="418" y="8" on="1"/>
        <pt x="414" y="64" on="1"/>
        <pt x="412" y="64" on="1"/>
        <pt x="382" y="34" on="0"/>
        <pt x="302" y="-12" on="0"/>
        <pt x="252" y="-12" on="1"/>
        <pt x="161" y="-12" on="0"/>
        <pt x="54" y="116" on="0"/>
      </contour>
    </TTGlyph>
    <TTGlyph name="approxequal" xMin="42" yMin="171" xMax="430" yMax="490">
      <component glyphName="asciitilde" x="0" y="100" flags="0x204"/>
      <component glyphName="asciitilde" x="0" y="-99" flags="0x4"/>
    </TTGlyph>
    <TTGlyph name="aring" xMin="68" yMin="-12" xMax="412" yMax="706">
      <component glyphName="a" x="0" y="0" flags="0x204"/>
      <component glyphName="uni030A" x="260" y="0" flags="0x4"/>
    </TTGlyph>
    <TTGlyph name="aring.a" xMin="54" yMin="-12" xMax="444" yMax="706">
      <component glyphName="uni0251" x="0" y="0" flags="0x204"/>
      <component glyphName="uni030A" x="269" y="0" flags="0x4"/>
    </TTGlyph>
    <TTGlyph name="arrowdown" xMin="44" yMin="-24" xMax="576" yMax="526">
      <contour>
        <pt x="308" y="-24" on="1"/>
        <pt x="44" y="244" on="1"/>
        <pt x="64" y="264" on="1"/>
        <pt x="296" y="22" on="1"/>
        <pt x="296" y="526" on="1"/>
        <pt x="324" y="526" on="1"/>
        <pt x="324" y="22" on="1"/>
        <pt x="556" y="264" on="1"/>
        <pt x="576" y="244" on="1"/>
        <pt x="312" y="-24" on="1"/>
      </contour>
    </TTGlyph>
    <TTGlyph name="arrowup" xMin="44" yMin="-24" xMax="576" yMax="526">
      <contour>
        <pt x="312" y="526" on="1"/>
        <pt x="576" y="258" on="1"/>
        <pt x="556" y="238" on="1"/>
        <pt x="324" y="480" on="1"/>
        <pt x="324" y="-24" on="1"/>
        <pt x="296" y="-24" on="1"/>
        <pt x="296" y="480" on="1"/>
        <pt x="64" y="238" on="1"/>
        <pt x="44" y="258" on="1"/>
        <pt x="308" y="526" on="1"/>
      </contour>
    </TTGlyph>
    <TTGlyph name="asciicircum" xMin="68" yMin="292" xMax="404" yMax="670">
      <contour>
        <pt x="218" y="670" on="1"/>
        <pt x="254" y="670" on="1"/>
        <pt x="404" y="292" on="1"/>
        <pt x="372" y="292" on="1"/>
        <pt x="290" y="506" on="1"/>
        <pt x="238" y="638" on="1"/>
        <pt x="234" y="638" on="1"/>
        <pt x="182" y="506" on="1"/>
        <pt x="100" y="292" on="1"/>
        <pt x="68" y="292" on="1"/>
      </contour>
    </TTGlyph>
    <TTGlyph name="asciitilde" xMin="42" yMin="270" xMax="430" yMax="390">
      <contour>
        <pt x="42" y="310" on="1"/>
        <pt x="62" y="351" on="0"/>
        <pt x="117" y="390" on="0"/>
        <pt x="146" y="390" on="1"/>
        <pt x="174" y="390" on="0"/>
        <pt x="222" y="361" on="0"/>
        <pt x="265" y="327" on="0"/>
        <pt x="306" y="298" on="0"/>
        <pt x="328" y="298" on="1"/>
        <pt x="351" y="298" on="0"/>
        <pt x="390" y="326" on="0"/>
        <pt x="408" y="362" on="1"/>
        <pt x="430" y="348" on="1"/>
        <pt x="410" y="309" on="0"/>
        <pt x="355" y="270" on="0"/>
        <pt x="326" y="270" on="1"/>
        <pt x="297" y="270" on="0"/>
        <pt x="250" y="299" on="0"/>
        <pt x="207" y="333" on="0"/>
        <pt x="166" y="362" on="0"/>
        <pt x="144" y="362" on="1"/>
        <pt x="121" y="362" on="0"/>
        <pt x="82" y="334" on="0"/>
        <pt x="64" y="298" on="1"/>
      </contour>
    </TTGlyph>
    <TTGlyph name="asterisk" xMin="74" yMin="478" xMax="312" yMax="712">
      <contour>
        <pt x="108" y="494" on="1"/>
        <pt x="162" y="580" on="1"/>
        <pt x="74" y="614" on="1"/>
        <pt x="82" y="638" on="1"/>
        <pt x="174" y="612" on="1"/>
        <pt x="180" y="712" on="1"/>
        <pt x="206" y="712" on="1"/>
        <pt x="212" y="614" on="1"/>
        <pt x="304" y="638" on="1"/>
        <pt x="312" y="614" on="1"/>
        <pt x="224" y="580" on="1"/>
        <pt x="278" y="494" on="1"/>
        <pt x="256" y="478" on="1"/>
        <pt x="194" y="560" on="1"/>
        <pt x="130" y="478" on="1"/>
      </contour>
    </TTGlyph>
    <TTGlyph name="at" xMin="52" yMin="-142" xMax="750" yMax="628">
      <contour>
        <pt x="52" y="202" on="1"/>
        <pt x="52" y="299" on="0"/>
        <pt x="116" y="456" on="0"/>
        <pt x="224" y="567" on="0"/>
        <pt x="365" y="628" on="0"/>
        <pt x="442" y="628" on="1"/>
        <pt x="513" y="628" on="0"/>
        <pt x="627" y="583" on="0"/>
        <pt x="707" y="502" on="0"/>
        <pt x="750" y="386" on="0"/>
        <pt x="750" y="316" on="1"/>
        <pt x="750" y="253" on="0"/>
        <pt x="717" y="157" on="0"/>
        <pt x="665" y="91" on="0"/>
        <pt x="602" y="58" on="0"/>
        <pt x="572" y="58" on="1"/>
        <pt x="533" y="58" on="0"/>
        <pt x="481" y="95" on="0"/>
        <pt x="478" y="134" on="1"/>
        <pt x="476" y="134" on="1"/>
        <pt x="449" y="105" on="0"/>
        <pt x="389" y="64" on="0"/>
        <pt x="354" y="64" on="1"/>
        <pt x="331" y="64" on="0"/>
        <pt x="291" y="81" on="0"/>
        <pt x="260" y="114" on="0"/>
        <pt x="242" y="164" on="0"/>
        <pt x="242" y="198" on="1"/>
        <pt x="242" y="233" on="0"/>
        <pt x="266" y="311" on="0"/>
        <pt x="313" y="377" on="0"/>
        <pt x="382" y="420" on="0"/>
        <pt x="426" y="420" on="1"/>
        <pt x="480" y="420" on="0"/>
        <pt x="510" y="372" on="1"/>
        <pt x="512" y="372" on="1"/>
        <pt x="520" y="412" on="1"/>
        <pt x="546" y="412" on="1"/>
        <pt x="512" y="228" on="1"/>
        <pt x="476" y="86" on="0"/>
        <pt x="574" y="86" on="1"/>
        <pt x="598" y="86" on="0"/>
        <pt x="650" y="116" on="0"/>
        <pt x="692" y="174" on="0"/>
        <pt x="720" y="259" on="0"/>
        <pt x="720" y="314" on="1"/>
        <pt x="720" y="380" on="0"/>
        <pt x="680" y="486" on="0"/>
        <pt x="607" y="560" on="0"/>
        <pt x="504" y="600" on="0"/>
        <pt x="440" y="600" on="1"/>
        <pt x="371" y="600" on="0"/>
        <pt x="242" y="544" on="0"/>
        <pt x="142" y="440" on="0"/>
        <pt x="82" y="294" on="0"/>
        <pt x="82" y="204" on="1"/>
        <pt x="82" y="131" on="0"/>
        <pt x="125" y="14" on="0"/>
        <pt x="204" y="-69" on="0"/>
        <pt x="316" y="-114" on="0"/>
        <pt x="384" y="-114" on="1"/>
        <pt x="435" y="-114" on="0"/>
        <pt x="518" y="-87" on="0"/>
        <pt x="554" y="-64" on="1"/>
        <pt x="568" y="-88" on="1"/>
        <pt x="484" y="-142" on="0"/>
        <pt x="382" y="-142" on="1"/>
        <pt x="310" y="-142" on="0"/>
        <pt x="189" y="-95" on="0"/>
        <pt x="101" y="-7" on="0"/>
        <pt x="52" y="121" on="0"/>
      </contour>
      <contour>
        <pt x="272" y="200" on="1"/>
        <pt x="272" y="140" on="0"/>
        <pt x="321" y="92" on="0"/>
        <pt x="356" y="92" on="1"/>
        <pt x="409" y="92" on="0"/>
        <pt x="470" y="162" on="1"/>
        <pt x="502" y="340" on="1"/>
        <pt x="482" y="370" on="0"/>
        <pt x="448" y="392" on="0"/>
        <pt x="424" y="392" on="1"/>
        <pt x="389" y="392" on="0"/>
        <pt x="332" y="357" on="0"/>
        <pt x="293" y="301" on="0"/>
        <pt x="272" y="233" on="0"/>
      </contour>
    </TTGlyph>
    <TTGlyph name="at.case" xMin="52" yMin="-16" xMax="692" yMax="678">
      <contour>
        <pt x="52" y="288" on="1"/>
        <pt x="52" y="376" on="0"/>
        <pt x="112" y="520" on="0"/>
        <pt x="213" y="622" on="0"/>
        <pt x="345" y="678" on="0"/>
        <pt x="418" y="678" on="1"/>
        <pt x="479" y="678" on="0"/>
        <pt x="580" y="639" on="0"/>
        <pt x="652" y="566" on="0"/>
        <pt x="692" y="461" on="0"/>
        <pt x="692" y="396" on="1"/>
        <pt x="692" y="338" on="0"/>
        <pt x="663" y="249" on="0"/>
        <pt x="617" y="188" on="0"/>
        <pt x="559" y="156" on="0"/>
        <pt x="530" y="156" on="1"/>
        <pt x="494" y="156" on="0"/>
        <pt x="450" y="196" on="0"/>
        <pt x="448" y="232" on="1"/>
        <pt x="446" y="232" on="1"/>
        <pt x="420" y="203" on="0"/>
        <pt x="364" y="162" on="0"/>
        <pt x="326" y="162" on="1"/>
        <pt x="306" y="162" on="0"/>
        <pt x="268" y="179" on="0"/>
        <pt x="239" y="211" on="0"/>
        <pt x="222" y="257" on="0"/>
        <pt x="222" y="286" on="1"/>
        <pt x="222" y="320" on="0"/>
        <pt x="244" y="395" on="0"/>
        <pt x="289" y="458" on="0"/>
        <pt x="357" y="500" on="0"/>
        <pt x="402" y="500" on="1"/>
        <pt x="426" y="500" on="0"/>
        <pt x="466" y="476" on="0"/>
        <pt x="480" y="452" on="1"/>
        <pt x="482" y="452" on="1"/>
        <pt x="492" y="492" on="1"/>
        <pt x="520" y="492" on="1"/>
        <pt x="484" y="326" on="1"/>
        <pt x="467" y="249" on="0"/>
        <pt x="490" y="184" on="0"/>
        <pt x="534" y="184" on="1"/>
        <pt x="556" y="184" on="0"/>
        <pt x="601" y="211" on="0"/>
        <pt x="638" y="265" on="0"/>
        <pt x="662" y="343" on="0"/>
        <pt x="662" y="394" on="1"/>
        <pt x="662" y="455" on="0"/>
        <pt x="627" y="550" on="0"/>
        <pt x="561" y="616" on="0"/>
        <pt x="469" y="650" on="0"/>
        <pt x="412" y="650" on="1"/>
        <pt x="347" y="650" on="0"/>
        <pt x="228" y="599" on="0"/>
        <pt x="137" y="505" on="0"/>
        <pt x="82" y="372" on="0"/>
        <pt x="82" y="290" on="1"/>
        <pt x="82" y="222" on="0"/>
        <pt x="122" y="118" on="0"/>
        <pt x="195" y="48" on="0"/>
        <pt x="296" y="12" on="0"/>
        <pt x="358" y="12" on="1"/>
        <pt x="396" y="12" on="0"/>
        <pt x="463" y="30" on="0"/>
        <pt x="492" y="50" on="1"/>
        <pt x="506" y="28" on="1"/>
        <pt x="473" y="5" on="0"/>
        <pt x="397" y="-16" on="0"/>
        <pt x="356" y="-16" on="1"/>
        <pt x="290" y="-16" on="0"/>
        <pt x="178" y="24" on="0"/>
        <pt x="97" y="102" on="0"/>
        <pt x="52" y="215" on="0"/>
      </contour>
      <contour>
        <pt x="330" y="190" on="1"/>
        <pt x="354" y="190" on="0"/>
        <pt x="410" y="224" on="0"/>
        <pt x="442" y="260" on="1"/>
        <pt x="474" y="420" on="1"/>
        <pt x="454" y="450" on="0"/>
        <pt x="422" y="472" on="0"/>
        <pt x="398" y="472" on="1"/>
        <pt x="364" y="472" on="0"/>
        <pt x="310" y="439" on="0"/>
        <pt x="272" y="387" on="0"/>
        <pt x="252" y="323" on="0"/>
        <pt x="252" y="292" on="1"/>
        <pt x="252" y="239" on="0"/>
        <pt x="298" y="190" on="0"/>
      </contour>
    </TTGlyph>
    <TTGlyph name="atilde" xMin="68" yMin="-12" xMax="412" yMax="664">
      <component glyphName="a" x="0" y="0" flags="0x204"/>
      <component glyphName="uni0303" x="260" y="0" flags="0x4"/>
    </TTGlyph>
    <TTGlyph name="atilde.a" xMin="54" yMin="-12" xMax="444" yMax="664">
      <component glyphName="uni0251" x="0" y="0" flags="0x204"/>
      <component glyphName="uni0303" x="269" y="0" flags="0x4"/>
    </TTGlyph>
    <TTGlyph name="b" xMin="96" yMin="-12" xMax="486" yMax="722">
      <contour>
        <pt x="96" y="722" on="1"/>
        <pt x="126" y="722" on="1"/>
        <pt x="126" y="508" on="1"/>
        <pt x="124" y="412" on="1"/>
        <pt x="162" y="444" on="0"/>
        <pt x="249" y="490" on="0"/>
        <pt x="294" y="490" on="1"/>
        <pt x="391" y="490" on="0"/>
        <pt x="486" y="357" on="0"/>
        <pt x="486" y="246" on="1"/>
        <pt x="486" y="185" on="0"/>
        <pt x="452" y="89" on="0"/>
        <pt x="394" y="23" on="0"/>
        <pt x="317" y="-12" on="0"/>
        <pt x="274" y="-12" on="1"/>
        <pt x="239" y="-12" on="0"/>
        <pt x="163" y="18" on="0"/>
        <pt x="128" y="44" on="1"/>
        <pt x="126" y="44" on="1"/>
        <pt x="122" y="0" on="1"/>
        <pt x="96" y="0" on="1"/>
      </contour>
      <contour>
        <pt x="126" y="82" on="1"/>
        <pt x="168" y="46" on="0"/>
        <pt x="247" y="16" on="0"/>
        <pt x="276" y="16" on="1"/>
        <pt x="315" y="16" on="0"/>
        <pt x="380" y="50" on="0"/>
        <pt x="428" y="111" on="0"/>
        <pt x="454" y="196" on="0"/>
        <pt x="454" y="246" on="1"/>
        <pt x="454" y="292" on="0"/>
        <pt x="437" y="371" on="0"/>
        <pt x="398" y="429" on="0"/>
        <pt x="336" y="462" on="0"/>
        <pt x="292" y="462" on="1"/>
        <pt x="254" y="462" on="0"/>
        <pt x="171" y="419" on="0"/>
        <pt x="126" y="378" on="1"/>
      </contour>
    </TTGlyph>
    <TTGlyph name="b.sups" xMin="60" yMin="262" xMax="326" yMax="744">
      <contour>
        <pt x="60" y="744" on="1"/>
        <pt x="88" y="744" on="1"/>
        <pt x="88" y="606" on="1"/>
        <pt x="86" y="542" on="1"/>
        <pt x="112" y="563" on="0"/>
        <pt x="164" y="594" on="0"/>
        <pt x="196" y="594" on="1"/>
        <pt x="262" y="594" on="0"/>
        <pt x="326" y="508" on="0"/>
        <pt x="326" y="434" on="1"/>
        <pt x="326" y="393" on="0"/>
        <pt x="304" y="330" on="0"/>
        <pt x="265" y="285" on="0"/>
        <pt x="214" y="262" on="0"/>
        <pt x="186" y="262" on="1"/>
        <pt x="163" y="262" on="0"/>
        <pt x="113" y="282" on="0"/>
        <pt x="90" y="300" on="1"/>
        <pt x="86" y="300" on="1"/>
        <pt x="82" y="270" on="1"/>
        <pt x="60" y="270" on="1"/>
      </contour>
      <contour>
        <pt x="88" y="330" on="1"/>
        <pt x="114" y="307" on="0"/>
        <pt x="167" y="288" on="0"/>
        <pt x="188" y="288" on="1"/>
        <pt x="235" y="288" on="0"/>
        <pt x="296" y="368" on="0"/>
        <pt x="296" y="434" on="1"/>
        <pt x="296" y="493" on="0"/>
        <pt x="248" y="568" on="0"/>
        <pt x="194" y="568" on="1"/>
        <pt x="170" y="568" on="0"/>
        <pt x="115" y="540" on="0"/>
        <pt x="88" y="514" on="1"/>
      </contour>
    </TTGlyph>
    <TTGlyph name="backslash" xMin="2" yMin="-160" xMax="352" yMax="710">
      <contour>
        <pt x="2" y="710" on="1"/>
        <pt x="32" y="710" on="1"/>
        <pt x="352" y="-160" on="1"/>
        <pt x="322" y="-160" on="1"/>
      </contour>
    </TTGlyph>
    <TTGlyph name="bar" xMin="96" yMin="-250" xMax="124" yMax="750">
      <contour>
        <pt x="96" y="750" on="1"/>
        <pt x="124" y="750" on="1"/>
        <pt x="124" y="-250" on="1"/>
        <pt x="96" y="-250" on="1"/>
      </contour>
    </TTGlyph>
    <TTGlyph name="braceleft" xMin="36" yMin="-152" xMax="252" yMax="708">
      <contour>
        <pt x="252" y="-130" on="1"/>
        <pt x="252" y="-152" on="1"/>
        <pt x="222" y="-152" on="1"/>
        <pt x="195" y="-152" on="0"/>
        <pt x="154" y="-141" on="0"/>
        <pt x="127" y="-112" on="0"/>
        <pt x="114" y="-64" on="0"/>
        <pt x="114" y="-26" on="1"/>
        <pt x="114" y="30" on="0"/>
        <pt x="122" y="131" on="0"/>
        <pt x="122" y="184" on="1"/>
        <pt x="122" y="200" on="0"/>
        <pt x="115" y="229" on="0"/>
        <pt x="96" y="252" on="0"/>
        <pt x="62" y="266" on="0"/>
        <pt x="36" y="266" on="1"/>
        <pt x="36" y="290" on="1"/>
        <pt x="62" y="290" on="0"/>
        <pt x="96" y="304" on="0"/>
        <pt x="115" y="326" on="0"/>
        <pt x="122" y="355" on="0"/>
        <pt x="122" y="370" on="1"/>
        <pt x="122" y="424" on="0"/>
        <pt x="114" y="526" on="0"/>
        <pt x="114" y="582" on="1"/>
        <pt x="114" y="619" on="0"/>
        <pt x="127" y="668" on="0"/>
        <pt x="154" y="697" on="0"/>
        <pt x="195" y="708" on="0"/>
        <pt x="222" y="708" on="1"/>
        <pt x="252" y="708" on="1"/>
        <pt x="252" y="686" on="1"/>
        <pt x="220" y="686" on="1"/>
        <pt x="172" y="686" on="0"/>
        <pt x="140" y="632" on="0"/>
        <pt x="140" y="578" on="1"/>
        <pt x="140" y="528" on="0"/>
        <pt x="146" y="438" on="0"/>
        <pt x="146" y="382" on="1"/>
        <pt x="146" y="340" on="0"/>
        <pt x="127" y="289" on="0"/>
        <pt x="98" y="280" on="1"/>
        <pt x="98" y="276" on="1"/>
        <pt x="127" y="267" on="0"/>
        <pt x="146" y="215" on="0"/>
        <pt x="146" y="174" on="1"/>
        <pt x="146" y="118" on="0"/>
        <pt x="140" y="28" on="0"/>
        <pt x="140" y="-22" on="1"/>
        <pt x="140" y="-76" on="0"/>
        <pt x="172" y="-130" on="0"/>
        <pt x="220" y="-130" on="1"/>
      </contour>
    </TTGlyph>
    <TTGlyph name="braceright" xMin="18" yMin="-152" xMax="234" yMax="708">
      <contour>
        <pt x="50" y="-130" on="1"/>
        <pt x="98" y="-130" on="0"/>
        <pt x="130" y="-76" on="0"/>
        <pt x="130" y="-22" on="1"/>
        <pt x="130" y="28" on="0"/>
        <pt x="124" y="118" on="0"/>
        <pt x="124" y="174" on="1"/>
        <pt x="124" y="215" on="0"/>
        <pt x="143" y="267" on="0"/>
        <pt x="172" y="276" on="1"/>
        <pt x="172" y="280" on="1"/>
        <pt x="143" y="289" on="0"/>
        <pt x="124" y="340" on="0"/>
        <pt x="124" y="382" on="1"/>
        <pt x="124" y="438" on="0"/>
        <pt x="130" y="528" on="0"/>
        <pt x="130" y="578" on="1"/>
        <pt x="130" y="632" on="0"/>
        <pt x="98" y="686" on="0"/>
        <pt x="50" y="686" on="1"/>
        <pt x="18" y="686" on="1"/>
        <pt x="18" y="708" on="1"/>
        <pt x="48" y="708" on="1"/>
        <pt x="75" y="708" on="0"/>
        <pt x="115" y="697" on="0"/>
        <pt x="142" y="668" on="0"/>
        <pt x="156" y="619" on="0"/>
        <pt x="156" y="582" on="1"/>
        <pt x="156" y="526" on="0"/>
        <pt x="148" y="424" on="0"/>
        <pt x="148" y="370" on="1"/>
        <pt x="148" y="355" on="0"/>
        <pt x="155" y="326" on="0"/>
        <pt x="174" y="304" on="0"/>
        <pt x="208" y="290" on="0"/>
        <pt x="234" y="290" on="1"/>
        <pt x="234" y="266" on="1"/>
        <pt x="208" y="266" on="0"/>
        <pt x="174" y="252" on="0"/>
        <pt x="155" y="229" on="0"/>
        <pt x="148" y="200" on="0"/>
        <pt x="148" y="184" on="1"/>
        <pt x="148" y="131" on="0"/>
        <pt x="156" y="30" on="0"/>
        <pt x="156" y="-26" on="1"/>
        <pt x="156" y="-64" on="0"/>
        <pt x="142" y="-112" on="0"/>
        <pt x="115" y="-141" on="0"/>
        <pt x="75" y="-152" on="0"/>
        <pt x="48" y="-152" on="1"/>
        <pt x="18" y="-152" on="1"/>
        <pt x="18" y="-130" on="1"/>
      </contour>
    </TTGlyph>
    <TTGlyph name="bracketleft" xMin="100" yMin="-152" xMax="252" yMax="708">
      <contour>
        <pt x="100" y="708" on="1"/>
        <pt x="252" y="708" on="1"/>
        <pt x="252" y="686" on="1"/>
        <pt x="124" y="686" on="1"/>
        <pt x="124" y="-130" on="1"/>
        <pt x="252" y="-130" on="1"/>
        <pt x="252" y="-152" on="1"/>
        <pt x="100" y="-152" on="1"/>
      </contour>
    </TTGlyph>
    <TTGlyph name="bracketright" xMin="18" yMin="-152" xMax="170" yMax="708">
      <contour>
        <pt x="146" y="-130" on="1"/>
        <pt x="146" y="686" on="1"/>
        <pt x="18" y="686" on="1"/>
        <pt x="18" y="708" on="1"/>
        <pt x="170" y="708" on="1"/>
        <pt x="170" y="-152" on="1"/>
        <pt x="18" y="-152" on="1"/>
        <pt x="18" y="-130" on="1"/>
      </contour>
    </TTGlyph>
    <TTGlyph name="breve" xMin="150" yMin="576" xMax="382" yMax="692">
      <component glyphName="uni0306" x="266" y="0" flags="0x4"/>
    </TTGlyph>
    <TTGlyph name="brokenbar" xMin="96" yMin="-250" xMax="124" yMax="750">
      <contour>
        <pt x="96" y="750" on="1"/>
        <pt x="124" y="750" on="1"/>
        <pt x="124" y="274" on="1"/>
        <pt x="96" y="274" on="1"/>
      </contour>
      <contour>
        <pt x="124" y="222" on="1"/>
        <pt x="124" y="-250" on="1"/>
        <pt x="96" y="-250" on="1"/>
        <pt x="96" y="222" on="1"/>
      </contour>
    </TTGlyph>
    <TTGlyph name="bullet" xMin="40" yMin="158" xMax="232" yMax="370">
      <contour>
        <pt x="136" y="158" on="1"/>
        <pt x="118" y="158" on="0"/>
        <pt x="83" y="173" on="0"/>
        <pt x="56" y="200" on="0"/>
        <pt x="40" y="239" on="0"/>
        <pt x="40" y="264" on="1"/>
        <pt x="40" y="289" on="0"/>
        <pt x="56" y="328" on="0"/>
        <pt x="83" y="355" on="0"/>
        <pt x="118" y="370" on="0"/>
        <pt x="136" y="370" on="1"/>
        <pt x="154" y="370" on="0"/>
        <pt x="188" y="355" on="0"/>
        <pt x="215" y="328" on="0"/>
        <pt x="232" y="289" on="0"/>
        <pt x="232" y="264" on="1"/>
        <pt x="232" y="239" on="0"/>
        <pt x="215" y="200" on="0"/>
        <pt x="188" y="173" on="0"/>
        <pt x="154" y="158" on="0"/>
      </contour>
    </TTGlyph>
    <TTGlyph name="c" xMin="54" yMin="-12" xMax="420" yMax="490">
      <contour>
        <pt x="54" y="238" on="1"/>
        <pt x="54" y="298" on="0"/>
        <pt x="89" y="392" on="0"/>
        <pt x="148" y="456" on="0"/>
        <pt x="225" y="490" on="0"/>
        <pt x="268" y="490" on="1"/>
        <pt x="318" y="490" on="0"/>
        <pt x="384" y="453" on="0"/>
        <pt x="408" y="430" on="1"/>
        <pt x="388" y="408" on="1"/>
        <pt x="364" y="431" on="0"/>
        <pt x="306" y="462" on="0"/>
        <pt x="268" y="462" on="1"/>
        <pt x="230" y="462" on="0"/>
        <pt x="163" y="429" on="0"/>
        <pt x="114" y="370" on="0"/>
        <pt x="86" y="287" on="0"/>
        <pt x="86" y="238" on="1"/>
        <pt x="86" y="188" on="0"/>
        <pt x="112" y="107" on="0"/>
        <pt x="160" y="48" on="0"/>
        <pt x="227" y="16" on="0"/>
        <pt x="268" y="16" on="1"/>
        <pt x="309" y="16" on="0"/>
        <pt x="376" y="50" on="0"/>
        <pt x="402" y="74" on="1"/>
        <pt x="420" y="52" on="1"/>
        <pt x="390" y="25" on="0"/>
        <pt x="315" y="-12" on="0"/>
        <pt x="268" y="-12" on="1"/>
        <pt x="222" y="-12" on="0"/>
        <pt x="144" y="22" on="0"/>
        <pt x="87" y="86" on="0"/>
        <pt x="54" y="179" on="0"/>
      </contour>
    </TTGlyph>
    <TTGlyph name="c.sups" xMin="34" yMin="262" xMax="282" yMax="594">
      <contour>
        <pt x="182" y="262" on="1"/>
        <pt x="117" y="262" on="0"/>
        <pt x="34" y="348" on="0"/>
        <pt x="34" y="428" on="1"/>
        <pt x="34" y="468" on="0"/>
        <pt x="58" y="530" on="0"/>
        <pt x="99" y="572" on="0"/>
        <pt x="153" y="594" on="0"/>
        <pt x="182" y="594" on="1"/>
        <pt x="215" y="594" on="0"/>
        <pt x="259" y="572" on="0"/>
        <pt x="276" y="558" on="1"/>
        <pt x="260" y="538" on="1"/>
        <pt x="242" y="553" on="0"/>
        <pt x="209" y="568" on="0"/>
        <pt x="180" y="568" on="1"/>
        <pt x="130" y="568" on="0"/>
        <pt x="64" y="490" on="0"/>
        <pt x="64" y="428" on="1"/>
        <pt x="64" y="366" on="0"/>
        <pt x="129" y="288" on="0"/>
        <pt x="182" y="288" on="1"/>
        <pt x="211" y="288" on="0"/>
        <pt x="251" y="306" on="0"/>
        <pt x="268" y="320" on="1"/>
        <pt x="282" y="300" on="1"/>
        <pt x="264" y="285" on="0"/>
        <pt x="218" y="262" on="0"/>
      </contour>
    </TTGlyph>
    <TTGlyph name="cacute" xMin="54" yMin="-12" xMax="420" yMax="706">
      <component glyphName="c" x="0" y="0" flags="0x204"/>
      <component glyphName="uni0301" x="269" y="0" flags="0x4"/>
    </TTGlyph>
    <TTGlyph name="caron" xMin="158" yMin="572" xMax="374" yMax="706">
      <component glyphName="uni030C" x="266" y="0" flags="0x4"/>
    </TTGlyph>
    <TTGlyph name="ccaron" xMin="54" yMin="-12" xMax="420" yMax="706">
      <component glyphName="c" x="0" y="0" flags="0x204"/>
      <component glyphName="uni030C" x="269" y="0" flags="0x4"/>
    </TTGlyph>
    <TTGlyph name="ccedilla" xMin="54" yMin="-206" xMax="420" yMax="490">
      <component glyphName="c" x="0" y="0" flags="0x204"/>
      <component glyphName="uni0327" x="263" y="0" flags="0x4"/>
    </TTGlyph>
    <TTGlyph name="ccircumflex" xMin="54" yMin="-12" xMax="420" yMax="706">
      <component glyphName="c" x="0" y="0" flags="0x204"/>
      <component glyphName="uni0302" x="269" y="0" flags="0x4"/>
    </TTGlyph>
    <TTGlyph name="cdotaccent" xMin="54" yMin="-12" xMax="420" yMax="670">
      <component glyphName="c" x="0" y="0" flags="0x204"/>
      <component glyphName="uni0307" x="269" y="0" flags="0x4"/>
    </TTGlyph>
    <TTGlyph name="cedilla" xMin="206" yMin="-206" xMax="330" yMax="2">
      <component glyphName="uni0327" x="276" y="0" flags="0x4"/>
    </TTGlyph>
    <TTGlyph name="cent" xMin="62" yMin="-26" xMax="428" yMax="652">
      <contour>
        <pt x="252" y="510" on="1"/>
        <pt x="218" y="506" on="0"/>
        <pt x="160" y="474" on="0"/>
        <pt x="118" y="422" on="0"/>
        <pt x="94" y="353" on="0"/>
        <pt x="94" y="312" on="1"/>
        <pt x="94" y="270" on="0"/>
        <pt x="116" y="201" on="0"/>
        <pt x="158" y="149" on="0"/>
        <pt x="216" y="117" on="0"/>
        <pt x="252" y="113" on="1"/>
      </contour>
      <contour>
        <pt x="428" y="148" on="1"/>
        <pt x="399" y="122" on="0"/>
        <pt x="325" y="85" on="0"/>
        <pt x="280" y="84" on="1"/>
        <pt x="280" y="-26" on="1"/>
        <pt x="252" y="-26" on="1"/>
        <pt x="252" y="85" on="1"/>
        <pt x="211" y="89" on="0"/>
        <pt x="141" y="122" on="0"/>
        <pt x="90" y="180" on="0"/>
        <pt x="62" y="261" on="0"/>
        <pt x="62" y="312" on="1"/>
        <pt x="62" y="364" on="0"/>
        <pt x="92" y="445" on="0"/>
        <pt x="144" y="502" on="0"/>
        <pt x="213" y="535" on="0"/>
        <pt x="252" y="539" on="1"/>
        <pt x="252" y="652" on="1"/>
        <pt x="280" y="652" on="1"/>
        <pt x="280" y="540" on="1"/>
        <pt x="328" y="539" on="0"/>
        <pt x="393" y="502" on="0"/>
        <pt x="416" y="480" on="1"/>
        <pt x="398" y="460" on="1"/>
        <pt x="375" y="482" on="0"/>
        <pt x="316" y="511" on="0"/>
        <pt x="280" y="512" on="1"/>
        <pt x="280" y="112" on="1"/>
        <pt x="319" y="113" on="0"/>
        <pt x="385" y="145" on="0"/>
        <pt x="410" y="168" on="1"/>
      </contour>
    </TTGlyph>
    <TTGlyph name="circumflex" xMin="158" yMin="572" xMax="374" yMax="706">
      <component glyphName="uni0302" x="266" y="0" flags="0x4"/>
    </TTGlyph>
    <TTGlyph name="colon" xMin="68" yMin="-12" xMax="140" yMax="456">
      <component glyphName="period" x="0" y="390" flags="0x204"/>
      <component glyphName="period" x="0" y="0" flags="0x4"/>
    </TTGlyph>
    <TTGlyph name="colon.sups" xMin="44" yMin="432" xMax="108" yMax="740">
      <contour>
        <pt x="44" y="466" on="1"/>
        <pt x="44" y="483" on="0"/>
        <pt x="62" y="500" on="0"/>
        <pt x="76" y="500" on="1"/>
        <pt x="90" y="500" on="0"/>
        <pt x="108" y="483" on="0"/>
        <pt x="108" y="466" on="1"/>
        <pt x="108" y="449" on="0"/>
        <pt x="90" y="432" on="0"/>
        <pt x="76" y="432" on="1"/>
        <pt x="62" y="432" on="0"/>
        <pt x="44" y="449" on="0"/>
      </contour>
      <contour>
        <pt x="44" y="706" on="1"/>
        <pt x="44" y="723" on="0"/>
        <pt x="62" y="740" on="0"/>
        <pt x="76" y="740" on="1"/>
        <pt x="90" y="740" on="0"/>
        <pt x="108" y="723" on="0"/>
        <pt x="108" y="706" on="1"/>
        <pt x="108" y="689" on="0"/>
        <pt x="90" y="672" on="0"/>
        <pt x="76" y="672" on="1"/>
        <pt x="62" y="672" on="0"/>
        <pt x="44" y="689" on="0"/>
      </contour>
    </TTGlyph>
</ttFont>
